<?xml version='1.0' encoding='utf-8'?>
<svg xmlns:xlink="http://www.w3.org/1999/xlink" xmlns="http://www.w3.org/2000/svg" width="750" height="500" viewBox="0 0 749.99997 500" id="svg2" version="1.1"> <defs id="defs4"> <linearGradient x2="177.392" y2="144.808" y1="121.072" x1="153.655" id="LinearGradient" gradientUnits="userSpaceOnUse" gradientTransform="translate(9.67543,-11.1874)"> <stop id="stop11" offset="0" stop-opacity="0" stop-color="#000000"/> <stop id="stop13" offset="1" stop-opacity="0.317597" stop-color="#000000"/> </linearGradient> <linearGradient x2="177.392" y2="144.808" y1="121.072" x1="153.655" id="LinearGradient_2" gradientUnits="userSpaceOnUse" gradientTransform="translate(-51.8661,-11.1874)"> <stop id="stop16" offset="0" stop-opacity="0" stop-color="#000000"/> <stop id="stop18" offset="1" stop-opacity="0.317597" stop-color="#000000"/> </linearGradient> <radialGradient gradientUnits="userSpaceOnUse" cy="170.1" gradientTransform="matrix(0.578566,0,0,0.121455,71.6859,158.626)" id="RadialGradient" r="46.2063" cx="170.1"> <stop id="stop21" offset="0" stop-color="#fbf8ff"/> <stop id="stop23" offset="1" stop-color="#e8e8e8"/> </radialGradient> <radialGradient gradientUnits="userSpaceOnUse" cy="170.1" gradientTransform="matrix(0.65453,0,0,0.0865311,58.7644,160.458)" id="RadialGradient_2" r="46.2063" cx="170.1"> <stop id="stop26" offset="0" stop-color="#fbf8ff"/> <stop id="stop28" offset="1" stop-color="#d0d0d0"/> </radialGradient> <linearGradient x2="195.615" y2="109.451" y1="109.451" x1="144.585" id="LinearGradient_3" gradientUnits="userSpaceOnUse" gradientTransform="matrix(1.28968,0,0,1.28968,-49.3033,-42.3144)"> <stop id="stop31" offset="0" stop-color="#b2b2b2"/> <stop id="stop33" offset="0.270677" stop-color="#d5d5d5"/> <stop id="stop35" offset="0.631579" stop-color="#fcfcfc"/> </linearGradient> <linearGradient x2="204.12" y2="122.675" y1="122.675" x1="153.09" id="LinearGradient_4" gradientUnits="userSpaceOnUse" gradientTransform="matrix(1.28968,0,0,1.28968,-60.2721,-21.1562)"> <stop id="stop38" offset="0" stop-color="#b2b2b2"/> <stop id="stop40" offset="0.270677" stop-color="#d5d5d5"/> <stop id="stop42" offset="0.631579" stop-color="#fcfcfc"/> </linearGradient> <linearGradient x2="192.911" y2="92.6106" y1="157.979" x1="180.632" id="LinearGradient_5" gradientUnits="userSpaceOnUse" gradientTransform="matrix(1.28968,0,0,1.28968,-60.2721,-21.1562)"> <stop id="stop45" offset="0.0263158" stop-opacity="0.678112" stop-color="#dedede"/> <stop id="stop47" offset="0.142857" stop-opacity="0.742489" stop-color="#f5f5f5"/> <stop id="stop49" offset="0.454887" stop-opacity="0.802575" stop-color="#e9e9e9"/> <stop id="stop51" offset="0.909774" stop-opacity="0.772532" stop-color="#fcfcfc"/> <stop id="stop53" offset="1" stop-opacity="0.811159" stop-color="#e7e7e7"/> </linearGradient> <path transform="matrix(1 -0 -0 1 0 0)" d="M144.827+181.58C145.2+156.572+159.864+156.843+174.5+143.695C185.511+133.804+201.747+134.177+201.56+92.9337" id="TextPath"/> <linearGradient x2="194.655" y2="133.244" y1="126.036" x1="144.394" id="LinearGradient_6" gradientUnits="userSpaceOnUse"> <stop id="stop57" offset="0.0225564" stop-opacity="0.2103" stop-color="#6667ca"/> <stop id="stop59" offset="1" stop-opacity="0.463519" stop-color="#e75f5f"/> </linearGradient> <linearGradient x2="100.942" y2="222.88" y1="73.7676" x1="200.809" id="LinearGradient_7" gradientUnits="userSpaceOnUse"> <stop id="stop62" offset="0" stop-color="#cdaaaa"/> <stop id="stop64" offset="1" stop-color="#6a6a6a"/> </linearGradient> <linearGradient x2="130.41" y2="73.71" y1="56.7" x1="130.41" id="LinearGradient_8" gradientUnits="userSpaceOnUse" gradientTransform="matrix(0.682914,0,0,0.772308,41.35,5.52649)"> <stop id="stop67" offset="0" stop-color="#dbe18c"/> <stop id="stop69" offset="1" stop-color="#969d4b"/> </linearGradient> <linearGradient x2="132.26" y2="39.8441" y1="39.5683" x1="128.7" id="LinearGradient_9" gradientUnits="userSpaceOnUse" gradientTransform="matrix(0.682914,0,0,0.772308,41.3398,5.35711)"> <stop id="stop72" offset="0" stop-color="#9b9b91"/> <stop id="stop74" offset="0.488722" stop-color="#555555"/> <stop id="stop76" offset="1" stop-color="#2b2b2b"/> </linearGradient> <linearGradient x2="127.964" y2="26.2494" y1="26.2494" x1="127.186" id="LinearGradient_10" gradientUnits="userSpaceOnUse" gradientTransform="translate(-7.48217e-7,-17.1172)"> <stop id="stop79" offset="0" stop-color="#3d3d3d"/> <stop id="stop81" offset="1" stop-color="#666666"/> </linearGradient> <linearGradient x2="128.148" y2="27.9886" y1="27.9886" x1="127.002" id="LinearGradient_11" gradientUnits="userSpaceOnUse" gradientTransform="translate(-7.48217e-7,-17.1172)"> <stop id="stop84" offset="0" stop-color="#efefef"/> <stop id="stop86" offset="0.281955" stop-color="#ffffff"/> <stop id="stop88" offset="0.518797" stop-color="#dbdbdb"/> <stop id="stop90" offset="1" stop-color="#f2f2f2"/> </linearGradient> <linearGradient x2="129.9" y2="29.2977" y1="29.2977" x1="125.25" id="LinearGradient_12" gradientUnits="userSpaceOnUse" gradientTransform="translate(-7.48217e-7,-17.1172)"> <stop id="stop93" offset="0" stop-color="#999999"/> <stop id="stop95" offset="0.199248" stop-color="#dedede"/> <stop id="stop97" offset="0.37218" stop-color="#ffffff"/> <stop id="stop99" offset="0.808271" stop-color="#d5d5d5"/> <stop id="stop101" offset="0.93985" stop-color="#f2f2f2"/> </linearGradient> <linearGradient x2="136.08" y2="44.1401" y1="44.1401" x1="119.07" id="LinearGradient_13" gradientUnits="userSpaceOnUse" gradientTransform="translate(-7.48217e-7,-17.1172)"> <stop id="stop104" offset="0.0112782" stop-color="#999999"/> <stop id="stop106" offset="0.165414" stop-color="#dedede"/> <stop id="stop108" offset="0.37218" stop-color="#ffffff"/> <stop id="stop110" offset="0.545113" stop-color="#f3f3f3"/> <stop id="stop112" offset="0.740601" stop-color="#ffffff"/> <stop id="stop114" offset="0.977444" stop-color="#cfcfcf"/> </linearGradient> <radialGradient gradientUnits="userSpaceOnUse" cy="170.1" gradientTransform="matrix(0.578566,0,0,0.121455,71.6859,158.626)" id="RadialGradient-4" r="46.2063" cx="170.1"> <stop id="stop21-4" offset="0" stop-color="#fbf8ff"/> <stop id="stop23-2" offset="1" stop-color="#e8e8e8"/> </radialGradient> <radialGradient gradientUnits="userSpaceOnUse" cy="170.1" gradientTransform="matrix(0.65453,0,0,0.0865311,58.7644,160.458)" id="RadialGradient_2-0" r="46.2063" cx="170.1"> <stop id="stop26-0" offset="0" stop-color="#fbf8ff"/> <stop id="stop28-0" offset="1" stop-color="#d0d0d0"/> </radialGradient> <path transform="matrix(1 -0 -0 1 0 0)" d="M144.827+181.58C145.2+156.572+159.864+156.843+174.5+143.695C185.511+133.804+201.747+134.177+201.56+92.9337" id="TextPath-7"/> <linearGradient id="linearGradient4119"> <stop id="stop4121" offset="0" style="stop-color:#c8c5c5;stop-opacity:1"/> <stop id="stop4123" offset="1" style="stop-color:#dddddd;stop-opacity:1"/> </linearGradient> <linearGradient gradientUnits="userSpaceOnUse" y2="802.36218" x2="341.47156" y1="802.36218" x1="250" id="linearGradient4125" xlink:href="#linearGradient4119"/> </defs> <metadata id="metadata7"> </metadata> <g id="layer1" transform="translate(0,-552.36188)"> <path transform="scale(-1,-1)" style="fill:#f4cd68;fill-opacity:1;stroke:none;stroke-width:6;stroke-linecap:round;stroke-linejoin:round;stroke-miterlimit:4;stroke-dasharray:none;stroke-dashoffset:0;stroke-opacity:1" d="m -750,-1052.3619 750.76281738,1e-4 0,499.99998 L -750,-552.36188 Z" id="rect4133"/> <path style="fill:#000000;fill-opacity:0.03488372;fill-rule:evenodd;stroke:none;stroke-width:1px;stroke-linecap:butt;stroke-linejoin:miter;stroke-opacity:1" d="m 544.20452,999.39071 -14.19356,52.97109 -395.62677,1e-4 111.5913,-416.4644 z" id="path4920"/> <g id="g4830" transform="matrix(0.99685849,-0.07920318,0.07920318,0.99685849,-63.597063,33.324429)"> <rect y="625.19922" x="260.87433" height="385.97198" width="268.50232" id="rect4135" style="fill:#ffffff;fill-opacity:1;stroke:none;stroke-width:6;stroke-linecap:round;stroke-linejoin:round;stroke-miterlimit:4;stroke-dasharray:none;stroke-dashoffset:0;stroke-opacity:1"/> <g id="g4752"> <path style="fill:#f1a93c;fill-opacity:1;fill-rule:evenodd;stroke:#a89500;stroke-width:5.46945143;stroke-linecap:round;stroke-linejoin:round;stroke-miterlimit:4;stroke-dasharray:none;stroke-opacity:1" d="m 250.26359,635.35332 20.07725,0" id="path4137"/> <path style="fill:#f1a93c;fill-opacity:1;fill-rule:evenodd;stroke:#a89500;stroke-width:5.46945143;stroke-linecap:round;stroke-linejoin:round;stroke-miterlimit:4;stroke-dasharray:none;stroke-opacity:1" d="m 250.26359,656.64872 20.07725,0" id="path4137-7"/> <path style="fill:#f1a93c;fill-opacity:1;fill-rule:evenodd;stroke:#a89500;stroke-width:5.46945143;stroke-linecap:round;stroke-linejoin:round;stroke-miterlimit:4;stroke-dasharray:none;stroke-opacity:1" d="m 250.26359,677.94412 20.07725,0" id="path4137-7-7"/> <path style="fill:#f1a93c;fill-opacity:1;fill-rule:evenodd;stroke:#a89500;stroke-width:5.46945143;stroke-linecap:round;stroke-linejoin:round;stroke-miterlimit:4;stroke-dasharray:none;stroke-opacity:1" d="m 250.26359,699.23951 20.07725,0" id="path4137-7-1"/> <path style="fill:#f1a93c;fill-opacity:1;fill-rule:evenodd;stroke:#a89500;stroke-width:5.46945143;stroke-linecap:round;stroke-linejoin:round;stroke-miterlimit:4;stroke-dasharray:none;stroke-opacity:1" d="m 250.26359,720.53493 20.07725,0" id="path4137-7-9"/> <path style="fill:#f1a93c;fill-opacity:1;fill-rule:evenodd;stroke:#a89500;stroke-width:5.46945143;stroke-linecap:round;stroke-linejoin:round;stroke-miterlimit:4;stroke-dasharray:none;stroke-opacity:1" d="m 250.26359,741.83033 20.07725,0" id="path4137-7-76"/> <path style="fill:#f1a93c;fill-opacity:1;fill-rule:evenodd;stroke:#a89500;stroke-width:5.46945143;stroke-linecap:round;stroke-linejoin:round;stroke-miterlimit:4;stroke-dasharray:none;stroke-opacity:1" d="m 250.26359,763.12569 20.07725,0" id="path4137-7-6"/> <path style="fill:#f1a93c;fill-opacity:1;fill-rule:evenodd;stroke:#a89500;stroke-width:5.46945143;stroke-linecap:round;stroke-linejoin:round;stroke-miterlimit:4;stroke-dasharray:none;stroke-opacity:1" d="m 250.26359,784.42108 20.07725,0" id="path4137-7-3"/> <path style="fill:#f1a93c;fill-opacity:1;fill-rule:evenodd;stroke:#a89500;stroke-width:5.46945143;stroke-linecap:round;stroke-linejoin:round;stroke-miterlimit:4;stroke-dasharray:none;stroke-opacity:1" d="m 250.26359,805.71651 20.07725,0" id="path4137-7-4"/> <path style="fill:#f1a93c;fill-opacity:1;fill-rule:evenodd;stroke:#a89500;stroke-width:5.46945143;stroke-linecap:round;stroke-linejoin:round;stroke-miterlimit:4;stroke-dasharray:none;stroke-opacity:1" d="m 250.26359,827.01193 20.07725,0" id="path4137-7-12"/> <path style="fill:#f1a93c;fill-opacity:1;fill-rule:evenodd;stroke:#a89500;stroke-width:5.46945143;stroke-linecap:round;stroke-linejoin:round;stroke-miterlimit:4;stroke-dasharray:none;stroke-opacity:1" d="m 250.26359,848.30734 20.07725,0" id="path4137-7-90"/> <path style="fill:#f1a93c;fill-opacity:1;fill-rule:evenodd;stroke:#a89500;stroke-width:5.46945143;stroke-linecap:round;stroke-linejoin:round;stroke-miterlimit:4;stroke-dasharray:none;stroke-opacity:1" d="m 250.26359,869.60271 20.07725,0" id="path4137-7-5"/> <path style="fill:#f1a93c;fill-opacity:1;fill-rule:evenodd;stroke:#a89500;stroke-width:5.46945143;stroke-linecap:round;stroke-linejoin:round;stroke-miterlimit:4;stroke-dasharray:none;stroke-opacity:1" d="m 250.26359,890.8981 20.07725,0" id="path4137-7-96"/> <path style="fill:#f1a93c;fill-opacity:1;fill-rule:evenodd;stroke:#a89500;stroke-width:5.46945143;stroke-linecap:round;stroke-linejoin:round;stroke-miterlimit:4;stroke-dasharray:none;stroke-opacity:1" d="m 250.26359,912.19352 20.07725,0" id="path4137-7-8"/> <path style="fill:#f1a93c;fill-opacity:1;fill-rule:evenodd;stroke:#a89500;stroke-width:5.46945143;stroke-linecap:round;stroke-linejoin:round;stroke-miterlimit:4;stroke-dasharray:none;stroke-opacity:1" d="m 250.26359,933.48894 20.07725,0" id="path4137-7-15"/> <path style="fill:#f1a93c;fill-opacity:1;fill-rule:evenodd;stroke:#a89500;stroke-width:5.46945143;stroke-linecap:round;stroke-linejoin:round;stroke-miterlimit:4;stroke-dasharray:none;stroke-opacity:1" d="m 250.26359,954.78432 20.07725,0" id="path4137-7-48"/> <path style="fill:#f1a93c;fill-opacity:1;fill-rule:evenodd;stroke:#a89500;stroke-width:5.46945143;stroke-linecap:round;stroke-linejoin:round;stroke-miterlimit:4;stroke-dasharray:none;stroke-opacity:1" d="m 250.26359,976.0797 20.07724,0" id="path4137-7-30"/> <path style="fill:#f1a93c;fill-opacity:1;fill-rule:evenodd;stroke:#a89500;stroke-width:5.46945143;stroke-linecap:round;stroke-linejoin:round;stroke-miterlimit:4;stroke-dasharray:none;stroke-opacity:1" d="m 250.26359,997.37503 20.07725,0" id="path4137-7-44"/> </g> <g style="stroke:#f7f7f7;stroke-opacity:1" id="g4529"> <path style="fill:none;fill-rule:evenodd;stroke:#f7f7f7;stroke-width:4;stroke-linecap:round;stroke-linejoin:round;stroke-miterlimit:4;stroke-dasharray:none;stroke-opacity:1" d="m 288.05971,656.37311 214.13159,0" id="path4314-6"/> <path style="fill:none;fill-rule:evenodd;stroke:#f7f7f7;stroke-width:4;stroke-linecap:round;stroke-linejoin:round;stroke-miterlimit:4;stroke-dasharray:none;stroke-opacity:1" d="m 288.05969,677.94802 214.1316,0" id="path4314-1"/> <path style="fill:none;fill-rule:evenodd;stroke:#f7f7f7;stroke-width:4;stroke-linecap:round;stroke-linejoin:round;stroke-miterlimit:4;stroke-dasharray:none;stroke-opacity:1" d="m 288.0597,699.52299 214.13159,0" id="path4314-5"/> <path style="fill:none;fill-rule:evenodd;stroke:#f7f7f7;stroke-width:4;stroke-linecap:round;stroke-linejoin:round;stroke-miterlimit:4;stroke-dasharray:none;stroke-opacity:1" d="m 288.0597,721.09791 214.13159,0" id="path4314-62"/> <path style="fill:none;fill-rule:evenodd;stroke:#f7f7f7;stroke-width:4;stroke-linecap:round;stroke-linejoin:round;stroke-miterlimit:4;stroke-dasharray:none;stroke-opacity:1" d="m 288.05969,742.6729 214.13159,0" id="path4314-7"/> <path style="fill:none;fill-rule:evenodd;stroke:#f7f7f7;stroke-width:4;stroke-linecap:round;stroke-linejoin:round;stroke-miterlimit:4;stroke-dasharray:none;stroke-opacity:1" d="m 288.05968,764.24785 214.13159,0" id="path4314-57"/> <path style="fill:none;fill-rule:evenodd;stroke:#f7f7f7;stroke-width:4;stroke-linecap:round;stroke-linejoin:round;stroke-miterlimit:4;stroke-dasharray:none;stroke-opacity:1" d="m 288.0597,785.82285 214.13158,0" id="path4314-6-5"/> <path style="fill:none;fill-rule:evenodd;stroke:#f7f7f7;stroke-width:4;stroke-linecap:round;stroke-linejoin:round;stroke-miterlimit:4;stroke-dasharray:none;stroke-opacity:1" d="m 288.05968,807.39776 214.13159,0" id="path4314-1-7"/> <path style="fill:none;fill-rule:evenodd;stroke:#f7f7f7;stroke-width:4;stroke-linecap:round;stroke-linejoin:round;stroke-miterlimit:4;stroke-dasharray:none;stroke-opacity:1" d="m 288.05969,828.97273 214.13158,0" id="path4314-5-3"/> <path style="fill:none;fill-rule:evenodd;stroke:#f7f7f7;stroke-width:4;stroke-linecap:round;stroke-linejoin:round;stroke-miterlimit:4;stroke-dasharray:none;stroke-opacity:1" d="m 288.05969,850.54765 214.13158,0" id="path4314-62-8"/> <path style="fill:none;fill-rule:evenodd;stroke:#f7f7f7;stroke-width:4;stroke-linecap:round;stroke-linejoin:round;stroke-miterlimit:4;stroke-dasharray:none;stroke-opacity:1" d="m 288.05968,872.12264 214.13158,0" id="path4314-7-1"/> <path style="fill:none;fill-rule:evenodd;stroke:#f7f7f7;stroke-width:4;stroke-linecap:round;stroke-linejoin:round;stroke-miterlimit:4;stroke-dasharray:none;stroke-opacity:1" d="m 288.05967,893.69759 214.13158,0" id="path4314-57-9"/> <path style="fill:none;fill-rule:evenodd;stroke:#f7f7f7;stroke-width:4;stroke-linecap:round;stroke-linejoin:round;stroke-miterlimit:4;stroke-dasharray:none;stroke-opacity:1" d="m 288.05972,915.27251 214.13159,0" id="path4314-6-3"/> <path style="fill:none;fill-rule:evenodd;stroke:#f7f7f7;stroke-width:4;stroke-linecap:round;stroke-linejoin:round;stroke-miterlimit:4;stroke-dasharray:none;stroke-opacity:1" d="m 288.0597,936.84742 214.1316,0" id="path4314-1-8"/> <path style="fill:none;fill-rule:evenodd;stroke:#f7f7f7;stroke-width:4;stroke-linecap:round;stroke-linejoin:round;stroke-miterlimit:4;stroke-dasharray:none;stroke-opacity:1" d="m 288.05971,958.42239 214.13159,0" id="path4314-5-0"/> <path style="fill:none;fill-rule:evenodd;stroke:#f7f7f7;stroke-width:4;stroke-linecap:round;stroke-linejoin:round;stroke-miterlimit:4;stroke-dasharray:none;stroke-opacity:1" d="m 288.05971,979.99731 214.13159,0" id="path4314-62-88"/> </g> </g> <g id="Layer_10" transform="matrix(-1.1852299,0.25039831,0.25039831,1.1852299,751.80813,599.36869)"> <path d="m 130.432,251.314 0,0 c 4.147,0 7.509,3.362 7.509,7.509 l 0,9.637 c 0,4.147 -3.362,7.509 -7.509,7.509 l 0,0 c -4.147,0 -7.509,-3.362 -7.509,-7.509 l 0,-9.637 c 0,-4.147 3.362,-7.509 7.509,-7.509 z" id="path500" style="fill:#ff0000;stroke:#ac2424;stroke-width:0.5;stroke-linecap:round"/> <path d="m 130.432,251.314 0,0 c 4.147,0 7.509,3.362 7.509,7.509 l 0,9.637 c 0,4.147 -3.362,7.509 -7.509,7.509 l 0,0 c -4.147,0 -7.509,-3.362 -7.509,-7.509 l 0,-9.637 c 0,-4.147 3.362,-7.509 7.509,-7.509 z" id="path502" style="fill:#c60000"/> <path d="m 130.432,251.314 c -4.147,0 -7.509,3.362 -7.509,7.509 l 0,9.637 c 0,4.147 3.362,7.509 7.509,7.509 l 0,-24.655 z" id="path504" style="fill:#e52f2f"/> <path d="m 122.037,247.49 16.79,0 0,3.222 -16.79,0 0,-3.222 z" id="path506" style="fill:#919191"/> <path d="m 132.434,39.8701 -4.076,0.0241 -5.743,28.2695 15.588,0 -5.748,-28.2936 -0.021,0 z" id="path508" style="fill:url(#LinearGradient_8)"/> <path d="m 126.512,62.022 7.794,0 2.097,132.803 -2.097,53.539 -7.794,0 -1.62,-47.615 0,-122.545 1.62,-16.182 z" id="path510" style="fill:#5b340a"/> <path d="m 126.512,62.0221 -3.897,6.1416 0,178.1073 3.897,2.093 0,-186.3419 z" id="path512" style="fill:#a06322"/> <path d="m 138.203,68.1637 -3.897,-6.1416 0,186.3419 3.897,-2.093 0,-178.1073 z" id="path514" style="fill:#4e2c09"/> <path d="m 122.615,68.1637 1.114,-5.4851 0.745,0.9289 1.261,-4.2929 0.777,2.7075 -1.855,3.6735 -2.042,2.4681 z" id="path516" style="fill:#a06322"/> <path d="m 126.512,62.0221 2.348,-5.579" id="path518" style="fill:#7f4f1b"/> <path d="m 126.512,62.0221 1.8,-3.7105 1.599,3.7104 2.179,-3.1988 2.216,3.1989 -2.385,1.0094 -5.409,-1.0094 z" id="path520" style="fill:#5b340a"/> <path d="m 138.203,68.1637 -1.02,-5.0225 -0.951,1.9169 -1.25,-5.4828 -0.676,2.4468 2.07,5.2216 1.827,0.92 z" id="path522" style="fill:#4e2c09"/> <path d="m 130.458,34.0738 c -1.021,0.0064 -2.1,5.8204 -2.1,5.8204 0,0 0.976,0.288 2,0.282 1.025,-0.0061 2.097,-0.3061 2.097,-0.3061 0,0 -0.976,-5.8027 -1.997,-5.7963 z" id="path524" style="fill:url(#LinearGradient_9)"/> <path d="m 128.358,39.8942 0.27,-0.3836 0.327,0.2384 0.393,-0.6989 0.443,0.666 0.458,-1.0688 0.429,1.1757 0.429,-0.8386 0.495,0.7728 0.407,-0.4111 0.446,0.524 -0.233,1.9856 -3.277,-0.2037 -0.587,-1.7578 z" id="path526" style="fill:#dbe18c"/> <path d="m 122.037,245.931 c 0,0 4.219,1.008 8.417,1.008 4.197,0 8.373,-1.008 8.373,-1.008 l 0,3.222 -16.79,0 0,-3.222 z" id="path528" style="fill:#c2c2c2"/> <path d="m 122.037,250.582 16.79,0 0,3.222 -16.79,0 0,-3.222 z" id="path530" style="fill:#a7a7a7"/> <path d="m 122.037,252.601 16.79,0 0,3.222 -16.79,0 0,-3.222 z" id="path532" style="fill:#919191"/> <path d="m 122.037,255.066 16.79,0 0,3.223 -16.79,0 0,-3.223 z" id="path534" style="fill:#a7a7a7"/> <path d="m 122.037,257.212 16.79,0 0,3.222 c 0,0 -4.237,0.496 -8.434,0.496 -4.197,0 -8.356,-0.496 -8.356,-0.496 l 0,-3.222 z" id="path536" style="fill:#b3b3b3"/> </g> <g transform="matrix(-1.9402571,-0.51989034,-0.51989034,1.9402571,652.35159,-725.4284)" id="g4339"> <ellipse style="fill:#000000;fill-opacity:1;stroke:none" id="path4287" transform="matrix(0.78195487,0,0,1.0000016,22.309343,549.37062)" cx="64.64286" cy="327.99106" rx="5.9375" ry="3.125"/> <rect style="fill:#ff4c4c;fill-opacity:1;stroke:none" id="rect4285" width="9.2857141" height="112.85714" x="68.214287" y="764.50507"/> <path style="fill:#dddddd;fill-opacity:1;stroke:none" id="path4310" d="m 21.970818,158.92565 4.000707,6.92943 4.000707,6.92943 -8.001414,0 -8.001415,0 4.000707,-6.92943 z" transform="matrix(0.58025451,0,0,1,60.108477,591.72054)"/> <path style="fill:#000000;fill-opacity:1;stroke:none" d="m 72.852679,750.63897 -1.40625,4.1875 2.8125,0 -1.40625,-4.1875 z" id="rect4315"/> <rect style="fill:#dddddd;fill-opacity:1;stroke:none" id="rect4337" width="9.2857065" height="13.124858" x="68.214287" y="864.23724"/> </g> <rect y="949.55493" x="174.84975" height="22.434088" width="11.261992" id="rect4370-6" style="fill:#49cce5;fill-opacity:1;stroke:none"/> <rect y="706.35852" x="169.82799" height="249.84784" width="21.3055" id="rect4370" style="fill:#88a1a8;fill-opacity:1;stroke:none"/> <path id="rect4390" d="m 173.97073,683.52075 13.02,0 4.14272,22.83781 -21.30545,0 z" style="fill:#dddddd;fill-opacity:1;stroke:none"/> <rect y="677.14313" x="175.08652" height="13.372987" width="10.788421" id="rect4393" style="fill:#dddddd;fill-opacity:1;stroke:none"/> <path id="path4439" d="m 180.5121,666.66988 c -0.54879,0 -1.00435,0.58375 -1.00435,1.25544 l 0,2.44811 1.94593,0 0,-2.44811 c 0,-0.67169 -0.39277,-1.25544 -0.94158,-1.25544 z" style="fill:#000000;fill-opacity:1;stroke:none"/> <path id="rect4393-9" d="m 179.0612,669.40113 2.83906,0 2.38482,11.69907 -7.60871,0 z" style="fill:#dddddd;fill-opacity:1;stroke:none"/> <path id="rect4454" d="m 168.62085,714.303 1.23391,0 3.54198,0 3.54201,0 3.54198,0 3.542,0 3.54201,0 3.54198,0 1.2339,0 3.55093,9.69825 -1.24282,9.69813 0,9.69842 0,9.69821 0,9.69821 0,9.69822 1.24282,9.69841 -3.55093,9.69821 -1.2339,0 -3.54198,0 -3.54201,0 -3.542,0 -3.54198,0 -3.54201,0 -3.54198,0 -1.23391,0 -3.55093,-9.69821 1.24283,-9.69841 0,-9.69822 0,-9.69821 0,-9.69821 0,-9.69842 -1.24283,-9.69813 z" style="fill:#49cce5;fill-opacity:1;stroke:none"/> <rect y="947.034" x="174.47618" height="2.008702" width="12.009132" id="rect4471" style="fill:#dddddd;fill-opacity:1;stroke:none"/> <rect y="870.95435" x="177.27829" height="78.088287" width="6.4048705" id="rect4471-8" style="fill:#dddddd;fill-opacity:1;stroke:none"/> <rect y="868.85986" x="176.27753" height="2.2057321" width="8.4063931" id="rect4471-8-0" style="fill:#dddddd;fill-opacity:1;stroke:none"/> </g> </svg>