<?xml version='1.0' encoding='utf-8'?>
<svg xmlns="http://www.w3.org/2000/svg" version="1.1" id="Ebene_1" x="0px" y="0px" viewBox="0 0 1920 1080" style="enable-background:new 0 0 1920 1080;"> <style type="text/css"> .st0{fill:#94A4A5;} .st1{fill:#CCD9D7;} .st2{fill:#AEC0BD;} .st3{fill:#EDEEEF;} .st4{fill:#808787;} .st5{fill:#616B6C;} .st6{fill:#CDD6D6;} .st7{fill:#495153;} .st8{fill:#5B6767;} .st9{fill:#324040;} .st10{fill:#495E5E;} .st11{fill:#A9562B;} .st12{fill:#804529;} .st13{fill:#64696B;} .st14{fill:#FFFFFF;} .st15{fill:#AEC6C2;} </style> <rect class="st0" width="1920" height="1080"/> <path class="st1" d="M1305.884,857.9H547c-13.688,0-24.784-11.096-24.784-24.784V401.604c0-13.688,11.096-24.784,24.784-24.784 h758.884c13.688,0,24.784,11.096,24.784,24.784v431.513C1330.668,846.804,1319.572,857.9,1305.884,857.9z"/> <path class="st2" d="M1330.668,409.667L522.216,746.225V401.604c0-13.688,11.096-24.784,24.784-24.784h758.884 c13.688,0,24.784,11.096,24.784,24.784V409.667z"/> <path class="st3" d="M1344.405,376.82H506.712c-12.175,0-22.045-9.87-22.045-22.045v0c0-12.175,9.87-22.045,22.045-22.045h837.693 c12.175,0,22.044,9.87,22.044,22.045v0C1366.449,366.951,1356.58,376.82,1344.405,376.82z"/> <g> <path class="st3" d="M1188.125,434.884c0-2.726,2.23-4.957,4.957-4.957h31.133c2.726,0,4.957,2.231,4.957,4.957v15.777 c0,2.726-2.231,4.957-4.957,4.957h-31.133c-2.726,0-4.957-2.231-4.957-4.957V434.884z"/> </g> <g> <path class="st3" d="M1132.209,434.884c0-2.726,2.231-4.957,4.957-4.957h31.133c2.726,0,4.957,2.231,4.957,4.957v15.777 c0,2.726-2.23,4.957-4.957,4.957h-31.133c-2.726,0-4.957-2.231-4.957-4.957V434.884z"/> </g> <g> <path class="st3" d="M1076.292,434.884c0-2.726,2.231-4.957,4.957-4.957h31.133c2.726,0,4.957,2.231,4.957,4.957v15.777 c0,2.726-2.231,4.957-4.957,4.957h-31.133c-2.726,0-4.957-2.231-4.957-4.957V434.884z"/> </g> <g> <path class="st3" d="M1020.375,434.884c0-2.726,2.231-4.957,4.957-4.957h31.133c2.726,0,4.957,2.231,4.957,4.957v15.777 c0,2.726-2.231,4.957-4.957,4.957h-31.133c-2.726,0-4.957-2.231-4.957-4.957V434.884z"/> </g> <g> <path class="st3" d="M964.459,434.884c0-2.726,2.231-4.957,4.957-4.957h31.133c2.726,0,4.957,2.231,4.957,4.957v15.777 c0,2.726-2.231,4.957-4.957,4.957h-31.133c-2.726,0-4.957-2.231-4.957-4.957V434.884z"/> </g> <g> <path class="st3" d="M908.542,434.884c0-2.726,2.231-4.957,4.957-4.957h31.133c2.726,0,4.957,2.231,4.957,4.957v15.777 c0,2.726-2.231,4.957-4.957,4.957h-31.133c-2.726,0-4.957-2.231-4.957-4.957V434.884z"/> </g> <g> <path class="st3" d="M852.625,434.884c0-2.726,2.231-4.957,4.957-4.957h31.133c2.726,0,4.957,2.231,4.957,4.957v15.777 c0,2.726-2.231,4.957-4.957,4.957h-31.133c-2.726,0-4.957-2.231-4.957-4.957V434.884z"/> </g> <g> <path class="st3" d="M796.709,434.884c0-2.726,2.231-4.957,4.957-4.957h31.133c2.726,0,4.957,2.231,4.957,4.957v15.777 c0,2.726-2.231,4.957-4.957,4.957h-31.133c-2.726,0-4.957-2.231-4.957-4.957V434.884z"/> </g> <g> <path class="st3" d="M740.792,434.884c0-2.726,2.231-4.957,4.957-4.957h31.133c2.726,0,4.957,2.231,4.957,4.957v15.777 c0,2.726-2.231,4.957-4.957,4.957h-31.133c-2.726,0-4.957-2.231-4.957-4.957V434.884z"/> </g> <g> <path class="st3" d="M684.875,434.884c0-2.726,2.231-4.957,4.957-4.957h31.133c2.726,0,4.957,2.231,4.957,4.957v15.777 c0,2.726-2.231,4.957-4.957,4.957h-31.133c-2.726,0-4.957-2.231-4.957-4.957V434.884z"/> </g> <g> <path class="st3" d="M628.959,434.884c0-2.726,2.231-4.957,4.957-4.957h31.133c2.726,0,4.957,2.231,4.957,4.957v15.777 c0,2.726-2.231,4.957-4.957,4.957h-31.133c-2.726,0-4.957-2.231-4.957-4.957V434.884z"/> </g> <g> <path class="st3" d="M1212.129,467.948c-2.726,0-7.187,0-9.914,0h-9.134c-2.726,0-7.187,0-9.913,0h-46.003 c-2.726,0-4.957,2.231-4.957,4.957v23.439c0,2.726,2.231,4.957,4.957,4.957h46.003c2.726,0,7.187,0,9.913,0h9.134 c2.726,0,7.187,0,9.914,0h12.086c2.726,0,4.957-2.231,4.957-4.957v-23.439c0-2.726-2.231-4.957-4.957-4.957H1212.129z"/> </g> <g> <path class="st3" d="M1076.292,472.905c0-2.726,2.231-4.957,4.957-4.957h31.133c2.726,0,4.957,2.231,4.957,4.957v23.439 c0,2.726-2.231,4.957-4.957,4.957h-31.133c-2.726,0-4.957-2.231-4.957-4.957V472.905z"/> </g> <g> <path class="st3" d="M1020.375,472.905c0-2.726,2.231-4.957,4.957-4.957h31.133c2.726,0,4.957,2.231,4.957,4.957v23.439 c0,2.726-2.231,4.957-4.957,4.957h-31.133c-2.726,0-4.957-2.231-4.957-4.957V472.905z"/> </g> <g> <path class="st3" d="M964.459,472.905c0-2.726,2.231-4.957,4.957-4.957h31.133c2.726,0,4.957,2.231,4.957,4.957v23.439 c0,2.726-2.231,4.957-4.957,4.957h-31.133c-2.726,0-4.957-2.231-4.957-4.957V472.905z"/> </g> <g> <path class="st3" d="M908.542,472.905c0-2.726,2.231-4.957,4.957-4.957h31.133c2.726,0,4.957,2.231,4.957,4.957v23.439 c0,2.726-2.231,4.957-4.957,4.957h-31.133c-2.726,0-4.957-2.231-4.957-4.957V472.905z"/> </g> <g> <path class="st3" d="M852.625,472.905c0-2.726,2.231-4.957,4.957-4.957h31.133c2.726,0,4.957,2.231,4.957,4.957v23.439 c0,2.726-2.231,4.957-4.957,4.957h-31.133c-2.726,0-4.957-2.231-4.957-4.957V472.905z"/> </g> <g> <path class="st3" d="M796.709,472.905c0-2.726,2.231-4.957,4.957-4.957h31.133c2.726,0,4.957,2.231,4.957,4.957v23.439 c0,2.726-2.231,4.957-4.957,4.957h-31.133c-2.726,0-4.957-2.231-4.957-4.957V472.905z"/> </g> <g> <path class="st3" d="M740.792,472.905c0-2.726,2.231-4.957,4.957-4.957h31.133c2.726,0,4.957,2.231,4.957,4.957v23.439 c0,2.726-2.231,4.957-4.957,4.957h-31.133c-2.726,0-4.957-2.231-4.957-4.957V472.905z"/> </g> <g> <path class="st3" d="M684.875,472.905c0-2.726,2.231-4.957,4.957-4.957h31.133c2.726,0,4.957,2.231,4.957,4.957v23.439 c0,2.726-2.231,4.957-4.957,4.957h-31.133c-2.726,0-4.957-2.231-4.957-4.957V472.905z"/> </g> <g> <path class="st3" d="M628.959,472.905c0-2.726,2.231-4.957,4.957-4.957h31.133c2.726,0,4.957,2.231,4.957,4.957v23.439 c0,2.726-2.231,4.957-4.957,4.957h-31.133c-2.726,0-4.957-2.231-4.957-4.957V472.905z"/> </g> <g> <path class="st3" d="M1202.693,512.613c-2.726,0-7.119,0-9.762,0c-2.643,0-7.036,0-9.762,0h-14.728 c-2.726,0-4.957,2.231-4.957,4.957v23.439c0,2.726,2.23,4.957,4.957,4.957h14.728c2.726,0,7.119,0,9.762,0c2.643,0,7.036,0,9.762,0 h21.522c2.726,0,4.957-2.231,4.957-4.957V517.57c0-2.726-2.231-4.957-4.957-4.957H1202.693z"/> </g> <g> <path class="st3" d="M1100.773,517.57c0-2.726,2.23-4.957,4.957-4.957h31.133c2.726,0,4.957,2.231,4.957,4.957v23.439 c0,2.726-2.231,4.957-4.957,4.957h-31.133c-2.726,0-4.957-2.231-4.957-4.957V517.57z"/> </g> <g> <path class="st3" d="M1044.856,517.57c0-2.726,2.231-4.957,4.957-4.957h31.133c2.726,0,4.957,2.231,4.957,4.957v23.439 c0,2.726-2.23,4.957-4.957,4.957h-31.133c-2.726,0-4.957-2.231-4.957-4.957V517.57z"/> </g> <g> <path class="st3" d="M988.94,517.57c0-2.726,2.231-4.957,4.957-4.957h31.133c2.726,0,4.957,2.231,4.957,4.957v23.439 c0,2.726-2.231,4.957-4.957,4.957h-31.133c-2.726,0-4.957-2.231-4.957-4.957V517.57z"/> </g> <g> <path class="st3" d="M933.023,517.57c0-2.726,2.231-4.957,4.957-4.957h31.133c2.726,0,4.957,2.231,4.957,4.957v23.439 c0,2.726-2.231,4.957-4.957,4.957H937.98c-2.726,0-4.957-2.231-4.957-4.957V517.57z"/> </g> <g> <path class="st3" d="M877.107,517.57c0-2.726,2.231-4.957,4.957-4.957h31.133c2.726,0,4.957,2.231,4.957,4.957v23.439 c0,2.726-2.231,4.957-4.957,4.957h-31.133c-2.726,0-4.957-2.231-4.957-4.957V517.57z"/> </g> <g> <path class="st3" d="M821.19,517.57c0-2.726,2.231-4.957,4.957-4.957h31.133c2.726,0,4.957,2.231,4.957,4.957v23.439 c0,2.726-2.231,4.957-4.957,4.957h-31.133c-2.726,0-4.957-2.231-4.957-4.957V517.57z"/> </g> <g> <path class="st3" d="M765.273,517.57c0-2.726,2.231-4.957,4.957-4.957h31.133c2.726,0,4.957,2.231,4.957,4.957v23.439 c0,2.726-2.231,4.957-4.957,4.957H770.23c-2.726,0-4.957-2.231-4.957-4.957V517.57z"/> </g> <g> <path class="st3" d="M709.357,517.57c0-2.726,2.231-4.957,4.957-4.957h31.133c2.726,0,4.957,2.231,4.957,4.957v23.439 c0,2.726-2.231,4.957-4.957,4.957h-31.133c-2.726,0-4.957-2.231-4.957-4.957V517.57z"/> </g> <g> <path class="st3" d="M628.959,517.57c0-2.726,2.231-4.957,4.957-4.957h47.548c2.726,0,4.957,2.231,4.957,4.957v23.439 c0,2.726-2.231,4.957-4.957,4.957h-47.548c-2.726,0-4.957-2.231-4.957-4.957V517.57z"/> </g> <g> <path class="st3" d="M1211.739,558.502c-2.726,0-7.187,0-9.913,0h-8.744c-2.726,0-7.187,0-9.913,0h-46.003 c-2.726,0-4.957,2.231-4.957,4.957v23.439c0,2.726,2.231,4.957,4.957,4.957h46.003c2.726,0,7.187,0,9.913,0h8.744 c2.726,0,7.187,0,9.913,0h12.476c2.726,0,4.957-2.231,4.957-4.957v-23.439c0-2.726-2.231-4.957-4.957-4.957H1211.739z"/> </g> <g> <path class="st3" d="M1076.292,563.459c0-2.726,2.231-4.957,4.957-4.957h31.133c2.726,0,4.957,2.231,4.957,4.957v23.439 c0,2.726-2.231,4.957-4.957,4.957h-31.133c-2.726,0-4.957-2.231-4.957-4.957V563.459z"/> </g> <g> <path class="st3" d="M1020.375,563.459c0-2.726,2.231-4.957,4.957-4.957h31.133c2.726,0,4.957,2.231,4.957,4.957v23.439 c0,2.726-2.231,4.957-4.957,4.957h-31.133c-2.726,0-4.957-2.231-4.957-4.957V563.459z"/> </g> <g> <path class="st3" d="M964.459,563.459c0-2.726,2.231-4.957,4.957-4.957h31.133c2.726,0,4.957,2.231,4.957,4.957v23.439 c0,2.726-2.231,4.957-4.957,4.957h-31.133c-2.726,0-4.957-2.231-4.957-4.957V563.459z"/> </g> <g> <path class="st3" d="M908.542,563.459c0-2.726,2.231-4.957,4.957-4.957h31.133c2.726,0,4.957,2.231,4.957,4.957v23.439 c0,2.726-2.231,4.957-4.957,4.957h-31.133c-2.726,0-4.957-2.231-4.957-4.957V563.459z"/> </g> <g> <path class="st3" d="M852.625,563.459c0-2.726,2.231-4.957,4.957-4.957h31.133c2.726,0,4.957,2.231,4.957,4.957v23.439 c0,2.726-2.231,4.957-4.957,4.957h-31.133c-2.726,0-4.957-2.231-4.957-4.957V563.459z"/> </g> <g> <path class="st3" d="M796.709,563.459c0-2.726,2.231-4.957,4.957-4.957h31.133c2.726,0,4.957,2.231,4.957,4.957v23.439 c0,2.726-2.231,4.957-4.957,4.957h-31.133c-2.726,0-4.957-2.231-4.957-4.957V563.459z"/> </g> <g> <path class="st3" d="M740.792,563.459c0-2.726,2.231-4.957,4.957-4.957h31.133c2.726,0,4.957,2.231,4.957,4.957v23.439 c0,2.726-2.231,4.957-4.957,4.957h-31.133c-2.726,0-4.957-2.231-4.957-4.957V563.459z"/> </g> <g> <path class="st3" d="M704.64,558.502c-2.726,0-7.187,0-9.914,0h-4.894c-2.726,0-7.187,0-9.914,0h-46.003 c-2.726,0-4.957,2.231-4.957,4.957v23.439c0,2.726,2.231,4.957,4.957,4.957h46.003c2.726,0,7.187,0,9.914,0h4.894 c2.726,0,7.187,0,9.914,0h16.325c2.726,0,4.957-2.231,4.957-4.957v-23.439c0-2.726-2.231-4.957-4.957-4.957H704.64z"/> </g> <g> <path class="st3" d="M1188.125,607.949c0-2.726,2.23-4.957,4.957-4.957h31.133c2.726,0,4.957,2.231,4.957,4.957v23.439 c0,2.726-2.231,4.957-4.957,4.957h-31.133c-2.726,0-4.957-2.231-4.957-4.957V607.949z"/> </g> <g> <path class="st3" d="M1132.209,607.949c0-2.726,2.231-4.957,4.957-4.957h31.133c2.726,0,4.957,2.231,4.957,4.957v23.439 c0,2.726-2.23,4.957-4.957,4.957h-31.133c-2.726,0-4.957-2.231-4.957-4.957V607.949z"/> </g> <g> <path class="st3" d="M1076.292,607.949c0-2.726,2.231-4.957,4.957-4.957h31.133c2.726,0,4.957,2.231,4.957,4.957v23.439 c0,2.726-2.231,4.957-4.957,4.957h-31.133c-2.726,0-4.957-2.231-4.957-4.957V607.949z"/> </g> <g> <path class="st3" d="M1041.666,602.992c-2.726,0-7.187,0-9.913,0h-6.42c-2.726,0-7.187,0-9.914,0h-4.957c-2.726,0-7.187,0-9.914,0 h-31.133c-2.726,0-7.187,0-9.914,0h-4.957c-2.726,0-7.187,0-9.914,0h-31.133c-2.726,0-7.187,0-9.914,0h-4.957 c-2.726,0-7.187,0-9.914,0h-31.133c-2.726,0-7.187,0-9.914,0h-46.003c-2.726,0-4.957,2.231-4.957,4.957v23.439 c0,2.726,2.231,4.957,4.957,4.957h46.003c2.726,0,7.187,0,9.914,0h31.133c2.726,0,7.187,0,9.914,0h4.957c2.726,0,7.187,0,9.914,0 h31.133c2.726,0,7.187,0,9.914,0h4.957c2.726,0,7.187,0,9.914,0h31.133c2.726,0,7.187,0,9.914,0h4.957c2.726,0,7.187,0,9.914,0 h6.42c2.726,0,7.187,0,9.913,0h14.799c2.726,0,4.957-2.231,4.957-4.957v-23.439c0-2.726-2.231-4.957-4.957-4.957H1041.666z"/> </g> <g> <path class="st3" d="M740.792,607.949c0-2.726,2.231-4.957,4.957-4.957h31.133c2.726,0,4.957,2.231,4.957,4.957v23.439 c0,2.726-2.231,4.957-4.957,4.957h-31.133c-2.726,0-4.957-2.231-4.957-4.957V607.949z"/> </g> <g> <path class="st3" d="M684.875,607.949c0-2.726,2.231-4.957,4.957-4.957h31.133c2.726,0,4.957,2.231,4.957,4.957v23.439 c0,2.726-2.231,4.957-4.957,4.957h-31.133c-2.726,0-4.957-2.231-4.957-4.957V607.949z"/> </g> <g> <path class="st3" d="M628.959,607.949c0-2.726,2.231-4.957,4.957-4.957h31.133c2.726,0,4.957,2.231,4.957,4.957v23.439 c0,2.726-2.231,4.957-4.957,4.957h-31.133c-2.726,0-4.957-2.231-4.957-4.957V607.949z"/> </g> <g> <path class="st3" d="M1053.873,822.404c0,2.726-2.231,4.957-4.957,4.957H807.23c-2.726,0-4.957-2.231-4.957-4.957V670.046 c0-2.726,2.231-4.957,4.957-4.957h241.686c2.726,0,4.957,2.231,4.957,4.957V822.404z"/> </g> <path class="st4" d="M99.065,247.489c-8.213,0-14.87,6.658-14.87,14.87v363.718c0,8.213,6.658,14.87,14.87,14.87h122.13V247.489 H99.065z"/> <path class="st5" d="M343.325,247.489h-122.13v393.458h122.13c8.213,0,14.87-6.658,14.87-14.87V262.359 C358.196,254.146,351.538,247.489,343.325,247.489z"/> <rect x="107.794" y="274.221" class="st3" width="226.802" height="340.412"/> <rect x="121.578" y="289.257" class="st6" width="199.235" height="12.531"/> <rect x="121.578" y="318.757" class="st6" width="199.235" height="12.531"/> <rect x="121.578" y="348.258" class="st6" width="199.235" height="12.531"/> <rect x="121.578" y="377.758" class="st6" width="199.235" height="12.531"/> <rect x="121.578" y="407.258" class="st6" width="199.235" height="12.531"/> <rect x="121.578" y="436.758" class="st6" width="199.235" height="12.531"/> <rect x="121.578" y="466.258" class="st6" width="199.235" height="12.531"/> <rect x="121.578" y="495.758" class="st6" width="199.235" height="12.531"/> <rect x="121.578" y="525.259" class="st6" width="199.235" height="12.531"/> <rect x="121.578" y="554.759" class="st6" width="199.235" height="12.531"/> <rect x="121.578" y="584.259" class="st6" width="199.235" height="12.531"/> <path class="st7" d="M276.441,241.224h-25.367c-5.674-11.097-16.918-18.664-29.878-18.664c-12.961,0-24.205,7.567-29.878,18.664 H165.95c-5.475,0-9.914,4.438-9.914,9.913v20.271c0,5.475,4.439,9.914,9.914,9.914h110.49c5.475,0,9.913-4.439,9.913-9.914v-20.271 C286.354,245.662,281.916,241.224,276.441,241.224z M199.473,241.224c4.875-7.054,12.784-11.669,21.722-11.669 c8.938,0,16.847,4.616,21.722,11.669H199.473z"/> <polygon class="st3" points="1362.194,438.957 1350.653,472.181 1373.51,472.181 "/> <rect x="1350.653" y="472.181" class="st8" width="11.428" height="291.585"/> <rect x="1362.081" y="472.181" class="st9" width="11.428" height="291.585"/> <polygon class="st10" points="1366.015,450.177 1362.194,438.957 1358.296,450.177 "/> <circle class="st11" cx="1532.943" cy="295.852" r="53.116"/> <path class="st12" d="M1532.943,242.737c-15.39,0-29.266,6.586-38.976,17.08c6.914-3.301,14.647-5.154,22.806-5.154 c29.288,0,53.116,23.828,53.116,53.116c0,13.898-5.372,26.56-14.14,36.036c17.906-8.549,30.31-26.832,30.31-47.961 C1586.059,266.564,1562.231,242.737,1532.943,242.737z"/> <g> <path class="st3" d="M1532.943,220.005c-41.89,0-75.848,33.958-75.848,75.848c0,41.89,33.958,75.848,75.848,75.848 c20.066,0,38.298-7.806,51.863-20.529l20.576,18.065c1.882,1.652,4.214,2.464,6.536,2.464c2.754,0,5.494-1.141,7.454-3.373 l2.521-2.872c3.612-4.114,3.205-10.378-0.909-13.99l-21.622-18.983c6.002-10.86,9.428-23.343,9.428-36.629 C1608.791,253.963,1574.833,220.005,1532.943,220.005L1532.943,220.005z M1532.943,348.968c-29.288,0-53.116-23.828-53.116-53.116 s23.828-53.116,53.116-53.116c29.288,0,53.116,23.828,53.116,53.116S1562.231,348.968,1532.943,348.968L1532.943,348.968z"/> </g> <path class="st4" d="M1549.509,462.38h54.381v255.802h-54.381c-5.475,0-9.914-4.438-9.914-9.914V472.293 C1539.596,466.818,1544.034,462.38,1549.509,462.38z"/> <path class="st13" d="M1603.89,462.38h54.381c5.475,0,9.913,4.438,9.913,9.914v235.975c0,5.475-4.438,9.914-9.913,9.914h-54.381 V462.38z"/> <rect x="1551.457" y="491.26" class="st14" width="104.865" height="194.946"/> <rect x="1592.2" y="477.852" class="st14" width="23.38" height="5.845"/> <rect x="1601.582" y="469.995" class="st14" width="4.616" height="4.616"/> <circle class="st14" cx="1603.89" cy="702.366" r="11.69"/> <path class="st15" d="M1780.707,487.874h7.229v174.037h-7.229c-20.819,0-37.697-16.878-37.697-37.697v-98.643 C1743.01,504.752,1759.888,487.874,1780.707,487.874z"/> <path class="st14" d="M1795.166,487.874h-7.229v174.037h7.229c20.82,0,37.697-16.878,37.697-37.697v-98.643 C1832.863,504.752,1815.985,487.874,1795.166,487.874z"/> <circle class="st13" cx="1787.936" cy="519.288" r="13.193"/> </svg>