<?xml version="1.0" encoding="utf-8"?>
<!-- Generator: Adobe Illustrator 16.0.0, SVG Export Plug-In . SVG Version: 6.00 Build 0)  -->
<!DOCTYPE svg PUBLIC "-//W3C//DTD SVG 1.0//EN" "http://www.w3.org/TR/2001/REC-SVG-20010904/DTD/svg10.dtd" [
	<!ENTITY ns_flows "http://ns.adobe.com/Flows/1.0/">
	<!ENTITY ns_extend "http://ns.adobe.com/Extensibility/1.0/">
	<!ENTITY ns_ai "http://ns.adobe.com/AdobeIllustrator/10.0/">
	<!ENTITY ns_graphs "http://ns.adobe.com/Graphs/1.0/">
]>
<svg version="1.0" xmlns:x="&ns_extend;" xmlns:i="&ns_ai;" xmlns:graph="&ns_graphs;"
	 xmlns="http://www.w3.org/2000/svg" xmlns:xlink="http://www.w3.org/1999/xlink" xmlns:a="http://ns.adobe.com/AdobeSVGViewerExtensions/3.0/"
	 x="0px" y="0px" width="1400px" height="980px" viewBox="0 0 1400 980" enable-background="new 0 0 1400 980" xml:space="preserve"
	>
<g id="Background">
<!-- fill="fill="#FFFEFD" " -->
	<rect fill="none" width="1400" height="980"/>
</g>
<g id="Elements">
	<g>
		<g>
			<g>
				<g>
					<g>
						<g>
							<g>
								<path fill="#F5F6F7" d="M1228.6,884.4c0-59.8-7.2-119.4-21.6-177.6c-5.5-22.1-17.8-45.9-19.9-68.2
									c-2.3-24.4,11.7-46.9,13.3-70.9c4.1-60.3-14.7-125.9-62.4-169.2c-19-17.2-41.4-31.3-67.7-36.4c-27.8-5.3-66.6,6.9-92-2.8
									c-24.1-9.2-41.7-29.5-63.7-41.9c-25.9-14.5-56.9-24.6-86-32.1c-38.9-10-79.9-5.3-119.2-12.8c-35.6-6.8-64.4-30.6-101.6-30.6
									c-55.5,0-102.9,42.1-121.7,101.4c-9.5,29.7-61.1,55.7-88.5,70.1c-38.8,20.5-89.4,15.1-124.5,41.9
									c-47.3,36.2-68.9,93.3-68.9,148.9c0,44.1,29.6,83.7,28.1,128.3c-1.7,50.6-14.9,100.5-14.9,151.8
									C217.5,884.4,1228.6,884.4,1228.6,884.4z"/>
								<ellipse fill="#E5E9EA" cx="712.7" cy="888.6" rx="512.5" ry="26.8"/>
							</g>
						</g>
					</g>
					<g>
						<g>
							<path fill="#B0D3D5" d="M1279.3,632.7c-6.3-2.9-14-0.2-19.5,3.3c-8.6,5.5-15.1,14.4-20.1,23.2c-3.5,6-6.2,12.3-7.3,19.3
								c-1.1,1.5-2.2,3.2-3,5l0.2,0.1c-0.3,0.7-1.8,3.9-4.3,9c-0.8-2-1.3-5.4-0.8-11.3c2.9-6.9,8.1-12.9,11.8-19.5
								c5.7-9.9,12.3-21.3,10.5-33.1c-0.6-5.2-3.7-10.2-9.6-9.2c-6.9,1-11.9,7.3-14.7,13.3c-4.3,9.3-5,20.2-4.5,30.4
								c0.3,6.9,1.5,13.8,4.2,20.3c-0.2,4.8,0.2,8.7,1.6,11.1l0.7-0.4c-5.7,11.7-15.9,32-29.1,55.4c-0.7-2-1.1-5.4-0.6-10.8
								c2.9-6.9,8.1-12.9,11.8-19.5c5.7-9.9,12.3-21.3,10.5-33.1c-0.6-5.2-3.7-10.2-9.6-9.2c-6.9,1-11.9,7.3-14.7,13.3
								c-4.3,9.3-5,20.2-4.5,30.4c0.3,6.9,1.5,13.8,4.2,20.3c-0.2,4.7,0.2,8.6,1.6,11c-4.2,7.5-8.7,15.2-13.5,23.1
								c-3.5,5.8-7.2,11.9-11.2,18.1c3-7.8,5.5-16.2,7.7-25.1c5.5-9.5,11.2-20.2,9.5-31.3c-0.3-2.4-1.2-4.8-2.6-6.6
								c3.1-23.6,4.4-48.2,4.8-70.4c2.5-1.1,5.2-3.9,7.8-7.8c6.1-3.5,11.2-8.2,15.6-13.6c6.5-7.8,12.6-16.9,14.8-26.9
								c1.4-6.4,1.2-14.5-3.7-19.4c-4.1-4.3-9.6-2.2-13.2,1.5c-8.6,8.3-10.2,21.3-11.6,32.7c-1,7.5-0.5,15.4-2.3,22.7
								c-3.1,4.8-5.5,7.3-7.3,8.4c0.1-4.1,0.1-8.2,0.1-12.2c0-18.6-0.5-36.3-1.3-51.6c1.9-1.8,3.6-4.9,5.1-8.8
								c5.1-4.8,9-10.6,12-16.8c4.5-9.1,8.4-19.4,8.2-29.6c-0.2-6.5-2.2-14.3-8.1-18c-5-3.2-9.9,0.1-12.5,4.6
								c-6.5,10-5,23.1-3.7,34.5c0.7,7.5,3.1,15.1,3,22.6c-1.4,4.2-2.8,6.9-4.1,8.6c-1.5-29.2-3.6-49-3.7-49.4l-0.2,0
								c-0.2-2.5,0-5.1,0.3-7.5c3.1-6.8,8.5-12.7,12.4-19.1c6-9.7,12.9-20.9,11.4-32.8c-0.5-5.2-3.4-10.3-9.4-9.5
								c-6.9,0.8-12.1,7-15,12.8c-4.5,9.1-5.5,20.1-5.3,30.2c0.1,6.9,1.1,13.7,3.6,20.3c-0.1,1.9-0.2,3.9,0,5.9l0.2,0
								c0.1,0.8,0.5,4.3,0.9,9.9c-1.7-1.3-3.9-4-6.5-9.2c-1-7.4,0.3-15.2,0.1-22.8c-0.2-11.4-0.4-24.6-8-33.7c-3.2-4.1-8.4-6.8-13-3
								c-5.4,4.4-6.4,12.4-5.8,18.9c1.1,10.1,6.2,19.9,11.8,28.3c3.8,5.8,8.3,11,14.1,15.2c2.3,4.2,4.7,7.3,7.1,8.7l0.4-0.7
								c1.1,13,2.8,35.6,3.5,62.5c-1.6-1.4-3.7-4-6.1-9c-1-7.4,0.3-15.2,0.1-22.8c-0.2-11.4-0.4-24.6-8-33.7c-3.2-4.1-8.4-6.8-13-3
								c-5.4,4.4-6.4,12.4-5.8,18.9c1.1,10.1,6.2,19.9,11.8,28.3c3.8,5.8,8.3,11,14.1,15.2c2.2,4.2,4.6,7.3,7,8.6
								c0.2,8.6,0.4,17.6,0.3,26.8c0,9.4-0.2,19.3-0.5,29.6c-1.7-1.4-3.7-4-6.1-9c-1-7.4,0.3-15.2,0.1-22.8
								c-0.2-11.4-0.4-24.6-8-33.7c-3.2-4.1-8.4-6.8-13-3c-5.4,4.4-6.4,12.4-5.7,18.9c1.1,10.1,6.2,19.9,11.8,28.3
								c3.8,5.8,8.3,11,14.1,15.2c2.2,4.1,4.5,7.1,6.9,8.5c-0.5,11.7-1.2,23.7-2.4,35.6c-2-0.7-4.8-2.9-8.8-7.9
								c-2.6-7-2.9-14.9-4.7-22.3c-2.6-11.1-5.6-24-15-31.3c-4-3.3-9.7-4.9-13.3-0.1c-4.3,5.4-3.6,13.5-1.6,19.7
								c3.2,9.7,10.2,18.1,17.5,25.2c4.9,4.9,10.5,9,16.9,11.9c3.1,3.6,6.1,6.2,8.7,7c-0.4,4.5-0.9,8.9-1.5,13.3
								c-1.4-0.8-3.1-1.2-5.1-0.9c-6.9,1-11.9,7.3-14.7,13.3c-4.3,9.3-5,20.2-4.5,30.4c0.3,6.9,1.5,13.8,4.2,20.3
								c-0.2,4.4,0.2,8.1,1.3,10.5c-0.3,0.7-0.6,1.3-1,2c-11.1,16.8-23.4,34-36.4,49.6c-0.7-2-1.2-5.4-0.7-11
								c2.9-6.9,8.1-12.9,11.8-19.5c5.7-9.9,12.3-21.3,10.5-33.1c-0.6-5.2-3.7-10.2-9.6-9.2c-6.9,1-11.9,7.3-14.7,13.3
								c-4.3,9.3-5,20.2-4.5,30.4c0.3,6.9,1.5,13.8,4.2,20.3c-0.2,4.6,0.2,8.3,1.4,10.7c-6.3,7.4-12.7,14.4-19.1,20.8
								c0.7,0.3,1.4,0.6,2.2,0.8c11.5-11.4,22.8-24.8,33.4-38.8c0.7,0,1.5,0,2.3-0.1c2.3-0.3,5-1.2,8-2.6c7.1,0.1,13.9-1.3,20.4-3.6
								c9.6-3.3,19.5-8,26.5-15.4c4.5-4.8,8.5-11.8,6.8-18.5c-1.3-5.8-7.1-6.8-12.1-5.5c-11.6,2.7-19.8,13-26.8,22
								c-4.7,5.9-8.4,12.9-13.7,18.2c-4.6,2.3-7.7,3.2-9.8,3.4c6.9-9.3,13.6-18.8,19.9-28.2l0.3,0.2c0.5-1,1-2,1.5-3
								c3.7-5.6,7.2-11.1,10.6-16.5c0.8,0.1,1.8,0.1,2.8-0.1c2.3-0.3,5-1.2,7.9-2.6c7.1,0.1,13.9-1.3,20.4-3.6
								c9.6-3.3,19.5-8,26.5-15.4c4.5-4.8,8.5-11.8,6.8-18.5c-1.3-5.8-7.1-6.8-12.1-5.5c-11.6,2.7-19.8,13-26.8,22
								c-4.7,5.9-8.4,12.9-13.7,18.2c-5.1,2.6-8.4,3.4-10.6,3.5c2.2-3.5,4.3-7,6.3-10.4c9.6-16,18.2-31.4,25.5-44.9
								c2.5-0.6,5.6-2.3,8.9-4.9c6.9-1.5,13.2-4.5,19-8.2c8.6-5.4,17.1-12.3,22.2-21.2c3.2-5.7,5.5-13.4,2.4-19.6
								c-2.6-5.3-8.5-5-13.1-2.5c-10.7,5.3-16.2,17.3-21,27.6c-3.2,6.8-5.1,14.5-9.1,20.9c-3.4,2.9-6,4.5-7.9,5.3
								c13.7-25.8,22.1-43.9,22.3-44.2l-0.2-0.1c1.1-2.3,2.6-4.4,4.1-6.3c6.2-4.2,13.8-6.5,20.4-10c10.1-5.2,21.8-11.3,26.6-22.2
								C1284.7,641,1284.8,635.1,1279.3,632.7z M1164.2,789.2c2.2-5.3,5.8-10,9-14.9c-2.4,8.9-5.3,17.3-8.6,24.8
								C1164,797.1,1163.8,793.9,1164.2,789.2z"/>
							<g>
								<path fill="#FEB238" d="M1126.7,879.8h6.3c2.1-3.7,3.9-7.8,5.9-11.4c3.4-5.9,7-11.7,10.7-17.4c8.2-12.4,17.5-21.9,32.3-25.7
									c2.2-0.6,4.3-1.3,6-2.9c1.7-1.6,3-4.2,2.6-6.6c-0.3-1.8-2.4-2.1-4.1-1.9c-0.2-0.1-0.5-0.1-0.7-0.1c-0.3,0.1-0.6,0.2-0.8,0.4
									c-1,0.4-2,0.9-2.9,1.4c-1.3,0.7-2.6,1.4-3.9,2.3c-5.8,3.9-10.8,8.5-15.6,13.6c-2.5,2.7-5,5.4-7.3,8.3
									c2.1-3.7,4.2-7.4,5.9-11.2c2.2-4.8,4-9.8,5.7-14.8c2.2-6.6,4-13.2,4.6-20.2c0.1-1.5,0.2-3,0.2-4.5c0-1.1,0-2.2-0.1-3.2
									c0-0.3,0-0.6,0-0.9c0-0.2-0.2-0.4-0.4-0.6c-0.6-1.6-1.9-3.3-3.7-2.7c-2.3,0.8-4,3.1-4.6,5.4c-0.6,2.2-0.2,4.5,0.3,6.7
									c3.7,14.8-0.3,27.5-7.4,40.6c-1.7,3.1-3.6,6.2-5.3,9.3c-0.6,1-1.2,2.1-1.7,3.1c0.4-1.2,0.8-2.4,1.3-3.6
									c2.2-6.6,4-13.2,4.6-20.2c0.1-1.5,0.2-3,0.2-4.5c0-1.1,0-2.2-0.1-3.2c0-0.3,0-0.6,0-0.9c0-0.2-0.2-0.4-0.4-0.6
									c-0.6-1.6-1.9-3.3-3.7-2.7c-2.3,0.8-4,3.1-4.6,5.4c-0.6,2.2-0.2,4.5,0.3,6.7c3.6,14.6-0.2,27.2-7.1,40.1
									c-1.7,2.6-3.4,5.3-5.1,7.9c-1.4,2.1-2.7,4.3-3.9,6.5c-0.1,0.2-0.2,0.4-0.4,0.6c0.1-0.2,0.1-0.4,0.2-0.6
									c2.2-6.6,4-13.2,4.6-20.2c0.1-1.5,0.2-3,0.2-4.5c0-1.1,0-2.2-0.1-3.2c0-0.3,0-0.6,0-0.9c0-0.2-0.2-0.4-0.4-0.6
									c-0.6-1.6-1.9-3.3-3.7-2.7c-2.3,0.8-4,3.1-4.6,5.4c-0.6,2.2-0.2,4.5,0.3,6.7C1128.6,865.4,1128.4,872.7,1126.7,879.8z"/>
								<path fill="#FEB238" d="M1159.5,866.3c2.2-0.6,4.3-1.3,6-2.9c1.7-1.6,3-4.2,2.6-6.6c-0.3-1.8-2.4-2.1-4.1-1.9
									c-0.2-0.1-0.5-0.1-0.7-0.1c-0.3,0.1-0.6,0.2-0.8,0.4c-1,0.4-2,0.9-2.9,1.4c-1.3,0.7-2.6,1.5-3.9,2.3
									c-5.8,3.9-10.8,8.5-15.6,13.6c-2.2,2.3-4.3,4.7-6.4,7.2h3C1142.8,873.5,1150,868.7,1159.5,866.3z"/>
								<path fill="#FEB238" d="M1166.7,802.1c0-0.1,0-0.2-0.1-0.3c0,0,0.1,0,0.1,0C1166.7,802,1166.7,802,1166.7,802.1z"/>
								<path fill="#FEB238" d="M1173,826.3c0.1-0.1,0.1-0.1,0.2-0.2c0,0,0,0.1,0,0.1C1173.1,826.2,1173,826.2,1173,826.3z"/>
								<path fill="#FEB238" d="M1150.5,867.2c0.1-0.1,0.1-0.1,0.2-0.2c0,0,0,0.1,0.1,0.1C1150.7,867.1,1150.6,867.2,1150.5,867.2z"
									/>
								<path fill="#FEB238" d="M1149.9,831.4c0-0.1,0-0.2-0.1-0.2c0,0,0.1,0,0.1,0C1150,831.2,1150,831.3,1149.9,831.4z"/>
								<path fill="#FEB238" d="M1130.1,865.8c0-0.1,0-0.2,0-0.2c0,0,0.1,0,0.1,0C1130.2,865.6,1130.2,865.7,1130.1,865.8z"/>
								<path fill="#FEB238" d="M1199.8,872.2c-0.1-0.2-0.4-0.3-0.6-0.4c-0.3-0.1-0.6-0.1-0.9,0c-1.1-0.2-2.2-0.2-3.2-0.2
									c-1.5,0-3,0-4.5,0.1c-7,0.6-13.6,2.3-20.2,4.4c-3.5,1.1-6.9,2.3-10.3,3.7h7.6c7.3-1.7,14.7-1.9,22.8,0.2
									c2.2,0.6,4.4,1,6.7,0.4c2.3-0.6,4.6-2.2,5.4-4.5C1203.1,874.2,1201.4,872.9,1199.8,872.2z"/>
								<path fill="#FEB238" d="M1239.2,847.2c-0.1-0.2-0.4-0.3-0.6-0.4c-0.3-0.1-0.6-0.1-0.9,0c-1.1-0.2-2.2-0.2-3.2-0.2
									c-1.5,0-3,0-4.5,0.1c-7,0.6-13.6,2.3-20.2,4.4c-3.5,1.1-7,2.4-10.4,3.7c3.6-2.2,7.2-4.4,10.6-7c4.2-3.2,8.3-6.6,12.2-10.2
									c5.1-4.7,9.9-9.7,13.8-15.4c0.9-1.2,1.6-2.5,2.3-3.8c0.5-0.9,1.1-1.9,1.5-2.9c0.2-0.3,0.3-0.5,0.4-0.8
									c0.1-0.2,0-0.5-0.1-0.7c0.2-1.7-0.1-3.8-1.9-4.2c-2.4-0.4-5,0.8-6.6,2.5c-1.6,1.7-2.3,3.8-2.9,6c-3.9,14.8-13.6,24-26.1,32
									c-3,1.9-6.1,3.7-9.1,5.6c-1,0.6-2,1.3-3,1.9c1-0.8,1.9-1.7,2.8-2.6c5.1-4.7,9.9-9.7,13.8-15.4c0.9-1.2,1.6-2.5,2.3-3.8
									c0.5-0.9,1.1-1.9,1.5-2.9c0.2-0.3,0.3-0.5,0.4-0.8c0.1-0.2,0-0.5,0-0.7c0.2-1.7-0.1-3.8-1.9-4.2c-2.4-0.4-5,0.8-6.6,2.5
									c-1.6,1.7-2.3,3.8-2.9,6c-3.9,14.5-13.3,23.7-25.6,31.7c-2.8,1.5-5.6,2.9-8.3,4.5c-2.2,1.2-4.4,2.5-6.6,3.9
									c-0.2,0.1-0.4,0.3-0.6,0.4c0.2-0.2,0.3-0.3,0.5-0.5c5.1-4.7,9.9-9.7,13.8-15.4c0.9-1.2,1.6-2.5,2.3-3.8
									c0.5-0.9,1.1-1.9,1.5-2.9c0.2-0.3,0.3-0.5,0.4-0.8c0.1-0.2,0-0.5,0-0.7c0.2-1.7-0.1-3.8-1.9-4.2c-2.4-0.4-5,0.8-6.6,2.5
									c-1.6,1.7-2.3,3.8-2.9,6c-2.6,9.8-7.8,17.2-14.7,23.4h8c4.1-2.3,8.1-5.5,12-7.9c5.8-3.5,11.7-6.9,17.8-10
									c13.2-6.9,25.9-10.7,40.7-6.9c2.2,0.6,4.4,1,6.7,0.4c2.3-0.6,4.6-2.2,5.4-4.5C1242.5,849.2,1240.8,847.9,1239.2,847.2z"/>
								<path fill="#FEB238" d="M1227.7,827.3c0-0.1,0.1-0.2,0.1-0.2c0,0,0.1,0,0.1,0C1227.9,827.2,1227.8,827.2,1227.7,827.3z"/>
								<path fill="#FEB238" d="M1221.6,851.5c0.1,0,0.2,0,0.3-0.1c0,0,0,0.1,0,0.1C1221.7,851.5,1221.6,851.5,1221.6,851.5z"/>
								<path fill="#FEB238" d="M1198.9,844.8c0-0.1,0-0.2,0.1-0.2c0,0,0.1,0,0.1,0.1C1199,844.7,1199,844.8,1198.9,844.8z"/>
								<path fill="#FEB238" d="M1165,865.4c0-0.1,0.1-0.2,0.1-0.2c0,0,0.1,0,0.1,0.1C1165.1,865.2,1165,865.3,1165,865.4z"/>
							</g>
						</g>
						<g>
							<path fill="#CFE4E5" d="M256.2,816.6c3.2,0.8,6,1.2,8.3,1.1c1,0,1.9-0.2,2.7-0.4c4.3,4.7,8.8,9.5,13.4,14.3
								c0.7,0.9,1.4,1.8,2.1,2.7l0.3-0.2c7.9,8.1,16.2,16.3,24.7,24.1c-2.1,0.2-5.4-0.2-10.3-1.6c-6.2-4.2-11-10.5-16.8-15.4
								c-8.5-7.6-18.4-16.3-30.3-16.8c-5.2-0.4-10.7,1.7-10.9,7.6c-0.4,6.9,4.8,13.1,10.1,17c8.2,6,18.9,8.9,28.9,10.4
								c6.8,1.1,13.8,1.3,20.7-0.1c3.2,0.8,6,1.2,8.3,1.1c0.8,0,1.6-0.1,2.3-0.3c12.4,11.3,25.3,22,38.2,30.9l4.2,0.3
								c-7.7-5.2-15.4-11-23.1-17.3c0.8-2.6,0.5-6.3-0.6-10.8c1.5-6.9,1.5-13.8,0.5-20.7c-1.4-10.1-4-20.7-9.9-29.1
								c-3.8-5.3-9.9-10.6-16.8-10.4c-6,0.2-8.1,5.6-7.8,10.8c0.3,11.9,8.9,21.9,16.3,30.6c4.9,5.8,11,10.7,15.2,17
								c1.5,5.5,1.7,8.9,1.3,11c-15.6-13-30.9-27.6-44.8-42.1c-0.4-0.6-0.9-1.2-1.3-1.8c0.7-2.6,0.4-6.3-0.6-10.6
								c1.5-6.9,1.5-13.8,0.5-20.7c-1.4-10.1-4-20.7-9.9-29.1c-3.8-5.3-9.9-10.6-16.8-10.4c-2.1,0.1-3.6,0.7-4.8,1.8
								c-1.4-4.2-2.7-8.5-3.9-12.8c2.5-1.2,4.9-4.3,7.3-8.4c5.8-4,10.5-9.1,14.5-14.8c5.9-8.3,11.3-17.9,12.7-28
								c0.8-6.5,0.1-14.5-5.2-19.1c-4.5-4-9.8-1.4-13.1,2.6c-7.9,8.9-8.5,22.1-9,33.5c-0.4,7.6,0.7,15.4-0.6,22.8
								c-3,5.7-5.4,8.3-7.2,9.4c-3.3-11.6-6.2-23.3-8.8-34.6c2-1.8,3.8-5.2,5.2-9.6c4.9-5.1,8.4-11.1,11.1-17.5
								c4-9.3,7.2-19.8,6.5-30c-0.5-6.5-3-14.2-9.1-17.5c-5.2-2.9-9.8,0.6-12.2,5.3c-5.9,10.4-3.7,23.4-1.8,34.6
								c1.2,7.5,3.9,14.9,4.3,22.4c-1.5,5.3-3,8.3-4.4,10c-2.2-10-4.2-19.8-5.9-29c-1.7-9.1-3.2-17.9-4.5-26.4
								c2.1-1.8,3.9-5.2,5.3-9.7c4.9-5.1,8.4-11.1,11.1-17.5c4-9.3,7.2-19.8,6.5-30c-0.5-6.5-3-14.2-9.1-17.5
								c-5.2-2.9-9.8,0.6-12.2,5.3c-5.9,10.4-3.7,23.4-1.8,34.6c1.2,7.5,3.9,14.9,4.3,22.4c-1.5,5.3-3,8.3-4.4,9.9
								c-4.1-26.6-6.6-49.1-7.9-62.1l0.5,0.6c2.1-1.7,3.9-5.2,5.4-9.8c4.9-5.1,8.4-11.1,11.1-17.5c4-9.3,7.2-19.8,6.5-30
								c-0.5-6.5-3-14.2-9.1-17.6c-5.2-2.9-9.8,0.6-12.2,5.3c-5.9,10.4-3.7,23.4-1.8,34.6c1.2,7.5,3.9,14.9,4.3,22.4
								c-1.6,5.7-3.2,8.7-4.7,10.3c-0.5-5.6-0.8-9.1-0.9-9.9l0.2,0c-0.2-2-0.6-3.9-1.1-5.8c1.3-6.9,1-13.8-0.1-20.6
								c-1.6-10-4.6-20.6-10.7-28.8c-4-5.2-10.2-10.3-17.1-9.9c-6,0.3-7.9,5.8-7.5,11c0.6,11.9,9.5,21.7,17.2,30.1
								c5,5.7,11.3,10.4,15.6,16.6c0.7,2.3,1.3,4.8,1.6,7.3l-0.2,0c0,0.3,1.5,20.2,5.4,49.2c-1.5-1.5-3.4-3.9-5.6-7.7
								c-1.5-7.4-0.6-15.2-1.2-22.7c-0.8-11.4-1.8-24.5-10-33.2c-3.4-3.9-8.8-6.3-13.1-2.2c-5.1,4.7-5.7,12.7-4.7,19.2
								c1.7,10.1,7.3,19.5,13.4,27.6c4.1,5.6,9,10.5,14.9,14.4c2.2,3.6,4.4,6.3,6.6,7.7c2.1,15.2,4.7,32.6,8.1,51
								c0.7,3.9,1.5,7.9,2.3,11.9c-2-0.8-4.8-2.7-8.7-6.9c-3.1-6.8-4.1-14.7-6.4-21.9c-3.4-10.9-7.4-23.4-17.4-30
								c-4.2-3-10-4.1-13.3,0.9c-3.9,5.8-2.6,13.7-0.1,19.8c4,9.4,11.6,17.3,19.4,23.8c5.3,4.5,11.2,8.2,17.8,10.5
								c3.3,3.3,6.4,5.6,9.1,6.2c4.4,21.8,10.2,45.7,17.5,68.4c-1.1,2-1.5,4.5-1.4,7c0.3,11.2,7.9,20.8,15,29.1
								c3.7,8.3,7.8,16.2,12.1,23.2c-5-5.4-9.8-10.7-14.3-15.7c-6.1-6.9-12-13.7-17.5-20.3c0.9-2.6,0.6-6.5-0.5-11.1
								c1.5-6.9,1.5-13.8,0.5-20.7c-1.4-10.1-4-20.7-9.9-29.1c-3.8-5.3-9.9-10.6-16.8-10.4c-6,0.2-8.1,5.6-7.8,10.8
								c0.3,11.9,8.9,21.9,16.3,30.6c4.9,5.8,11,10.7,15.2,17c1.4,5.3,1.7,8.6,1.4,10.8c-17.2-20.7-31-38.7-38.7-49.2l0.7,0.3
								c0.9-2.6,0.6-6.5-0.4-11.2c1.5-6.9,1.5-13.8,0.5-20.7c-1.4-10.1-4-20.7-9.9-29.1c-3.8-5.3-9.9-10.6-16.8-10.4
								c-6,0.2-8.1,5.6-7.8,10.8c0.3,11.9,8.9,21.9,16.3,30.6c4.9,5.8,11,10.7,15.2,17c1.5,5.7,1.7,9.1,1.3,11.2
								c-3.3-4.5-5.4-7.4-5.9-8.1l0.1-0.1c-1.2-1.6-2.5-3-3.9-4.4c-2.4-6.6-6.2-12.4-10.7-17.6c-6.6-7.8-14.5-15.3-24-19.2
								c-6.1-2.4-14-3.6-19.8,0.3c-4.9,3.3-3.8,9.1-0.7,13.3c6.7,9.9,19.3,13.7,30.2,17c7.2,2.3,15.1,3.1,21.9,6.2
								c1.8,1.6,3.6,3.4,5.1,5.4l-0.1,0.1c0.2,0.2,11.7,16.6,29.9,39.4c-2.1-0.5-4.9-1.6-8.8-3.8c-5.1-5.6-8.3-12.8-12.7-18.9
								c-6.6-9.3-14.2-20.1-25.6-23.4c-5-1.6-10.8-0.9-12.4,4.9c-2,6.7,1.7,13.9,5.9,18.9c6.6,7.8,16.3,13,25.7,16.8
								c6.4,2.7,13.1,4.4,20.2,4.7c3.7,1.9,7.1,3.1,9.7,3.2c9.6,12,20.8,25.5,33.2,39.5c2.6,3,5.3,6,8.1,9c-2.1,0.4-5.5,0.1-11-1.5
								c-6.2-4.2-11-10.5-16.8-15.4c-8.5-7.6-18.4-16.3-30.3-16.8c-5.2-0.4-10.7,1.7-10.9,7.6c-0.4,6.9,4.9,13.1,10.1,17
								c8.2,6,18.9,8.9,28.9,10.4C242.4,817.8,249.3,818,256.2,816.6z M266.2,803c4,4.2,8.4,8.2,11.6,13c1.2,4.6,1.6,7.7,1.5,9.8
								C274.6,819.1,270.2,811.4,266.2,803z"/>
							<path fill="#FFDCD8" d="M268.1,880c10.3-20.1,9.8-44.1,7.8-66.7c-3.5-38.8-12.1-80.2-40.9-106.4c-3.6-3.3-8.8-6.5-13.2-4.1
								c-1.4,0.8-2.4,2-3.4,3.3c-6.6,9.1-8.1,21.1-6.4,32.2c1.6,11.1,6.1,21.6,10.5,31.9c12.5,29.2,24.9,58.5,37.4,87.7
								c1.1,2.6,2.1,5.5,3.1,8.4c-13.2-29.3-30.5-56.7-51.2-81.3c-20.1-23.9-45.4-46.1-76.3-51.2c-6.6-1.1-14.6-0.7-18.1,5.1
								c-3.7,6.2,0.7,14.1,5.3,19.6c14,17,31.4,30.9,48.6,44.7c25.5,20.4,50.2,40.2,75.3,60.3c-34.4-22.1-73.2-43.5-112.1-46.2
								c-5.2-0.4-11-0.1-14.5,3.7c-3.9,4.2-3,11.1,0.4,15.7c3.4,4.5,8.7,7.2,13.9,9.5c38.5,17.2,80.2,25.6,121.7,33.2L268.1,880z"/>
						</g>
					</g>
				</g>
			</g>
			<g>
				<g>
					<path fill="#FFFFFF" d="M260.3,862.5c4.9,0.1,9.8,0.3,14.7,0.3c6.5,0.1,6.4-9.9,0-10c-4.9-0.1-9.8-0.2-14.7-0.3
						C253.9,852.3,253.9,862.3,260.3,862.5L260.3,862.5z"/>
				</g>
			</g>
		</g>
		<g>
			<g>
				<path fill="#3A3E54" d="M1064.5,245.3c0-12.1-9.8-21.9-21.9-21.9H615.7c-12.1,0-21.9,9.8-21.9,21.9v604.9
					c0,12.1,9.8,21.9,21.9,21.9h426.9c12.1,0,21.9-9.8,21.9-21.9V245.3z"/>
				<rect x="615.4" y="274.9" fill="#FFFFFF" width="427.1" height="546.9"/>
				<g>
					<g>
						<g>
							<rect x="613.3" y="280.2" fill="#F7CBC9" width="429.2" height="25.3"/>
							<g>
								<circle fill="#FFDCD8" cx="676.1" cy="292.3" r="6.4"/>
								<circle fill="#FFDCD8" cx="655.9" cy="292.3" r="6.4"/>
								<circle fill="#FFDCD8" cx="633.7" cy="292.3" r="6.4"/>
							</g>
							<path fill="#FFDCD8" d="M934.2,292.1c0-3-2.4-5.4-5.4-5.4H701.4c-3,0-5.4,2.4-5.4,5.4l0,0c0,3,2.4,5.4,5.4,5.4h227.5
								C931.8,297.5,934.2,295.1,934.2,292.1L934.2,292.1z"/>
						</g>
					</g>
				</g>
				<rect x="612.3" y="276.6" fill="none" stroke="#222244" stroke-width="5" stroke-miterlimit="10" width="429.5" height="549"/>
				<g>
					<circle fill="#161633" cx="829" cy="248.4" r="9.1"/>
					<path fill="#222244" d="M892.2,843.7c0-3-2.4-5.4-5.4-5.4H771.4c-3,0-5.4,2.4-5.4,5.4l0,0c0,3,2.4,5.4,5.4,5.4h115.4
						C889.8,849.1,892.2,846.7,892.2,843.7L892.2,843.7z"/>
				</g>
				<g>
					<g>
						<g>
							<g>
								<path fill="#D4DADC" d="M952.9,361.8c15.8,0,31.7,0,47.5,0c6.4,0,6.4-10,0-10c-15.8,0-31.7,0-47.5,0
									C946.5,351.8,946.5,361.8,952.9,361.8L952.9,361.8z"/>
							</g>
						</g>
						<g>
							<g>
								<path fill="#D4DADC" d="M882.6,361.8c18.4,0,36.8,0,55.3,0c6.4,0,6.4-10,0-10c-18.4,0-36.8,0-55.3,0
									C876.1,351.8,876.1,361.8,882.6,361.8L882.6,361.8z"/>
							</g>
						</g>
						<g>
							<g>
								<path fill="#D4DADC" d="M985,384.7c11.5,0,23,0,34.5,0c6.4,0,6.4-10,0-10c-11.5,0-23,0-34.5,0
									C978.6,374.7,978.6,384.7,985,384.7L985,384.7z"/>
							</g>
						</g>
						<g>
							<g>
								<path fill="#D4DADC" d="M917.5,384.7c17.4,0,34.7,0,52.1,0c6.4,0,6.4-10,0-10c-17.4,0-34.7,0-52.1,0
									C911.1,374.7,911.1,384.7,917.5,384.7L917.5,384.7z"/>
							</g>
						</g>
						<g>
							<g>
								<path fill="#D4DADC" d="M882.6,384.7c6.6,0,13.3,0,19.9,0c6.4,0,6.4-10,0-10c-6.6,0-13.3,0-19.9,0
									C876.1,374.7,876.1,384.7,882.6,384.7L882.6,384.7z"/>
							</g>
						</g>
						<g>
							<g>
								<path fill="#D4DADC" d="M951.7,407.5c22.6,0,45.2,0,67.8,0c6.4,0,6.4-10,0-10c-22.6,0-45.2,0-67.8,0
									C945.3,397.5,945.3,407.5,951.7,407.5L951.7,407.5z"/>
							</g>
						</g>
						<g>
							<g>
								<path fill="#D4DADC" d="M909.6,407.5c9,0,18,0,27,0c6.4,0,6.4-10,0-10c-9,0-18,0-27,0C903.2,397.5,903.2,407.5,909.6,407.5
									L909.6,407.5z"/>
							</g>
						</g>
						<g>
							<g>
								<path fill="#D4DADC" d="M995.1,430.3c8.1,0,16.3,0,24.4,0c6.4,0,6.4-10,0-10c-8.1,0-16.3,0-24.4,0
									C988.6,420.3,988.6,430.3,995.1,430.3L995.1,430.3z"/>
							</g>
						</g>
						<g>
							<g>
								<path fill="#D4DADC" d="M882.6,430.3c32.5,0,65,0,97.5,0c6.4,0,6.4-10,0-10c-32.5,0-65,0-97.5,0
									C876.1,420.3,876.1,430.3,882.6,430.3L882.6,430.3z"/>
							</g>
						</g>
					</g>
					<g>
						<g>
							<g>
								<path fill="#E8ECED" d="M952.9,589.8c15.8,0,31.7,0,47.5,0c6.4,0,6.4-10,0-10c-15.8,0-31.7,0-47.5,0
									C946.5,579.8,946.5,589.8,952.9,589.8L952.9,589.8z"/>
							</g>
						</g>
						<g>
							<g>
								<path fill="#E8ECED" d="M882.6,589.8c18.4,0,36.8,0,55.3,0c6.4,0,6.4-10,0-10c-18.4,0-36.8,0-55.3,0
									C876.1,579.8,876.1,589.8,882.6,589.8L882.6,589.8z"/>
							</g>
						</g>
						<g>
							<g>
								<path fill="#E8ECED" d="M985,612.7c11.5,0,23,0,34.5,0c6.4,0,6.4-10,0-10c-11.5,0-23,0-34.5,0
									C978.6,602.7,978.6,612.7,985,612.7L985,612.7z"/>
							</g>
						</g>
						<g>
							<g>
								<path fill="#E8ECED" d="M917.5,612.7c17.4,0,34.7,0,52.1,0c6.4,0,6.4-10,0-10c-17.4,0-34.7,0-52.1,0
									C911.1,602.7,911.1,612.7,917.5,612.7L917.5,612.7z"/>
							</g>
						</g>
						<g>
							<g>
								<path fill="#E8ECED" d="M882.6,612.7c6.6,0,13.3,0,19.9,0c6.4,0,6.4-10,0-10c-6.6,0-13.3,0-19.9,0
									C876.1,602.7,876.1,612.7,882.6,612.7L882.6,612.7z"/>
							</g>
						</g>
						<g>
							<g>
								<path fill="#E8ECED" d="M951.7,635.5c22.6,0,45.2,0,67.8,0c6.4,0,6.4-10,0-10c-22.6,0-45.2,0-67.8,0
									C945.3,625.5,945.3,635.5,951.7,635.5L951.7,635.5z"/>
							</g>
						</g>
						<g>
							<g>
								<path fill="#E8ECED" d="M909.6,635.5c9,0,18,0,27,0c6.4,0,6.4-10,0-10c-9,0-18,0-27,0C903.2,625.5,903.2,635.5,909.6,635.5
									L909.6,635.5z"/>
							</g>
						</g>
						<g>
							<g>
								<path fill="#E8ECED" d="M995.1,658.4c8.1,0,16.3,0,24.4,0c6.4,0,6.4-10,0-10c-8.1,0-16.3,0-24.4,0
									C988.6,648.4,988.6,658.4,995.1,658.4L995.1,658.4z"/>
							</g>
						</g>
						<g>
							<g>
								<path fill="#E8ECED" d="M882.6,658.4c32.5,0,65,0,97.5,0c6.4,0,6.4-10,0-10c-32.5,0-65,0-97.5,0
									C876.1,648.4,876.1,658.4,882.6,658.4L882.6,658.4z"/>
							</g>
						</g>
					</g>
					<g>
						<g>
							<g>
								<path fill="#E8ECED" d="M952.9,679.9c15.8,0,31.7,0,47.5,0c6.4,0,6.4-10,0-10c-15.8,0-31.7,0-47.5,0
									C946.5,669.9,946.5,679.9,952.9,679.9L952.9,679.9z"/>
							</g>
						</g>
						<g>
							<g>
								<path fill="#E8ECED" d="M882.6,679.9c18.4,0,36.8,0,55.3,0c6.4,0,6.4-10,0-10c-18.4,0-36.8,0-55.3,0
									C876.1,669.9,876.1,679.9,882.6,679.9L882.6,679.9z"/>
							</g>
						</g>
						<g>
							<g>
								<path fill="#E8ECED" d="M985,702.7c11.5,0,23,0,34.5,0c6.4,0,6.4-10,0-10c-11.5,0-23,0-34.5,0
									C978.6,692.7,978.6,702.7,985,702.7L985,702.7z"/>
							</g>
						</g>
						<g>
							<g>
								<path fill="#E8ECED" d="M917.5,702.7c17.4,0,34.7,0,52.1,0c6.4,0,6.4-10,0-10c-17.4,0-34.7,0-52.1,0
									C911.1,692.7,911.1,702.7,917.5,702.7L917.5,702.7z"/>
							</g>
						</g>
						<g>
							<g>
								<path fill="#E8ECED" d="M882.6,702.7c6.6,0,13.3,0,19.9,0c6.4,0,6.4-10,0-10c-6.6,0-13.3,0-19.9,0
									C876.1,692.7,876.1,702.7,882.6,702.7L882.6,702.7z"/>
							</g>
						</g>
						<g>
							<g>
								<path fill="#E8ECED" d="M951.7,725.5c22.6,0,45.2,0,67.8,0c6.4,0,6.4-10,0-10c-22.6,0-45.2,0-67.8,0
									C945.3,715.5,945.3,725.5,951.7,725.5L951.7,725.5z"/>
							</g>
						</g>
						<g>
							<g>
								<path fill="#E8ECED" d="M909.6,725.5c9,0,18,0,27,0c6.4,0,6.4-10,0-10c-9,0-18,0-27,0C903.2,715.5,903.2,725.5,909.6,725.5
									L909.6,725.5z"/>
							</g>
						</g>
						<g>
							<g>
								<path fill="#E8ECED" d="M995.1,748.4c8.1,0,16.3,0,24.4,0c6.4,0,6.4-10,0-10c-8.1,0-16.3,0-24.4,0
									C988.6,738.4,988.6,748.4,995.1,748.4L995.1,748.4z"/>
							</g>
						</g>
						<g>
							<g>
								<path fill="#E8ECED" d="M882.6,748.4c32.5,0,65,0,97.5,0c6.4,0,6.4-10,0-10c-32.5,0-65,0-97.5,0
									C876.1,738.4,876.1,748.4,882.6,748.4L882.6,748.4z"/>
							</g>
						</g>
					</g>
					<g>
						<g>
							<g>
								<path fill="#D4DADC" d="M952.9,454.8c15.8,0,31.7,0,47.5,0c6.4,0,6.4-10,0-10c-15.8,0-31.7,0-47.5,0
									C946.5,444.8,946.5,454.8,952.9,454.8L952.9,454.8z"/>
							</g>
						</g>
						<g>
							<g>
								<path fill="#D4DADC" d="M882.6,454.8c18.4,0,36.8,0,55.3,0c6.4,0,6.4-10,0-10c-18.4,0-36.8,0-55.3,0
									C876.1,444.8,876.1,454.8,882.6,454.8L882.6,454.8z"/>
							</g>
						</g>
						<g>
							<g>
								<path fill="#D4DADC" d="M985,477.7c11.5,0,23,0,34.5,0c6.4,0,6.4-10,0-10c-11.5,0-23,0-34.5,0
									C978.6,467.7,978.6,477.7,985,477.7L985,477.7z"/>
							</g>
						</g>
						<g>
							<g>
								<path fill="#D4DADC" d="M917.5,477.7c17.4,0,34.7,0,52.1,0c6.4,0,6.4-10,0-10c-17.4,0-34.7,0-52.1,0
									C911.1,467.7,911.1,477.7,917.5,477.7L917.5,477.7z"/>
							</g>
						</g>
						<g>
							<g>
								<path fill="#D4DADC" d="M882.6,477.7c6.6,0,13.3,0,19.9,0c6.4,0,6.4-10,0-10c-6.6,0-13.3,0-19.9,0
									C876.1,467.7,876.1,477.7,882.6,477.7L882.6,477.7z"/>
							</g>
						</g>
						<g>
							<g>
								<path fill="#D4DADC" d="M951.7,500.5c22.6,0,45.2,0,67.8,0c6.4,0,6.4-10,0-10c-22.6,0-45.2,0-67.8,0
									C945.3,490.5,945.3,500.5,951.7,500.5L951.7,500.5z"/>
							</g>
						</g>
						<g>
							<g>
								<path fill="#D4DADC" d="M909.6,500.5c9,0,18,0,27,0c6.4,0,6.4-10,0-10c-9,0-18,0-27,0C903.2,490.5,903.2,500.5,909.6,500.5
									L909.6,500.5z"/>
							</g>
						</g>
						<g>
							<g>
								<path fill="#D4DADC" d="M995.1,523.3c8.1,0,16.3,0,24.4,0c6.4,0,6.4-10,0-10c-8.1,0-16.3,0-24.4,0
									C988.6,513.3,988.6,523.3,995.1,523.3L995.1,523.3z"/>
							</g>
						</g>
						<g>
							<g>
								<path fill="#D4DADC" d="M882.6,523.3c32.5,0,65,0,97.5,0c6.4,0,6.4-10,0-10c-32.5,0-65,0-97.5,0
									C876.1,513.3,876.1,523.3,882.6,523.3L882.6,523.3z"/>
							</g>
						</g>
					</g>
					<path fill="none" stroke="#D4DADC" stroke-width="2" stroke-miterlimit="10" d="M851.5,368.2c0-14.4-12.8-26.1-28.6-26.1H675.6
						c-15.8,0-28.6,11.7-28.6,26.1v134.4c0,14.4,12.8,26.1,28.6,26.1h147.3c15.8,0,28.6-11.7,28.6-26.1V368.2z"/>
				</g>
				<g>
					<path fill="#DFEDEE" d="M810.7,422.2c-6.5,2.5-13.7,2.1-20.5,2c7.8-5.5,14.7-11.8,19.7-20c-11.7,9.4-23.2,20.9-39.2,21.6
						c3.1-1.6,6.5-3.4,8.5-6.4c-4-1.2-7.3,1.7-10.4,3.8c-2.5,1.6-5.7,3.5-8.7,3.8c-5.9,0.6-8.2-5.8-4.5-9.9c3-3.3,8.5-4.6,12.6-5.8
						c8.5-2.4,21-1.7,27.8-8.3c4.1-4,7-9.4,8.4-15c-6.3,8.6-12.6,16.3-23.5,18.5c-5.3,0.8-10.1,2.7-15.1,4.4c3.7-2.5,7.5-4.9,10.8-8
						c2.7-2.5,4.3-7,7-9.2c5.4-4.3,14.5-4.2,14.2-14.1c-4.1,3.9-8.5,7.4-12.7,11.2c3-7.6,4-15.7,4.1-23.9
						c-0.3,9.3-3.2,23.8-11.5,28.7c-1.1-7-1.8-14.7-2.1-21.9c-0.3-7.8,1.7-14.9,3.8-22.3c-5.9,6-7.3,14.9-7.7,22.9
						c-3.9-6.2-6.9-13-10.2-19.5c-1.9,7.6,1.7,13.7,6.6,19.1c4.7,5.3,10.1,19.1,5.8,25.7c-4.3,6.6-13.4,9.9-18.7,16
						c2.1-4.8,3.8-10.4,3.4-15.7c-5.6,5.6-4.7,11.9-6,18.8c-0.9,5-7.5,7.7-7.1,0.7c0.5-9.4,6.6-19.2,8.5-28.5
						c5.6-0.9,8.7-8.4,8.4-13.5c-3.6,2.7-5.5,6.8-7.8,10.5c0.8-6.6,0.6-12.9-0.6-19.4c-1.1-5.9-4-13.2-2.6-19.2
						c-3.8,7.6,0,18.8,0.2,26.9c0.1,5.2-0.3,10.7-1.8,15.7c-2.3-12.5-6-24.6-6.5-37.4c-2.4,6.5-2.1,13.6-1,20.4
						c-3.8-6-8.2-12.4-12.8-17.8c0.1,5.9,2.3,10.2,6.2,14.5c2.6,2.9,5.8,4.1,7.5,7.4c7.7,14.8,1.6,29.3,0.7,44.8
						c-2.5-1.1-3.3-5.6-3.3-7.9c0-6.3,1.2-11.9-2-17.9c-2,5.6-1.6,12.6,0,18.3c-4.8-5.6-7.9-9.3-8.6-16.9c-0.4-4.5,0-3.5,2.7-6.9
						c2.9-3.6,3.8-8.6,2.6-13.1c-2.9,3.7-3.8,8.6-6.1,12.6c-0.4-4.6-0.2-9.2-0.6-13.7c-1.4,4-1.9,8.3-2.4,12.5
						c-2.2-8.2-3.3-17-7.5-24.5c-1.6,7.8,1.2,17,5,23.7c1.7,3,2,2.8,2.5,6.1c0.5,4.1,0.1,8,1.6,12c-9.9-5.1-13.8-16.3-16.3-26.3
						c-0.6,2.8-0.7,5.7-0.4,8.5c-2.4-3.2-5.3-6.7-9-8.4c0.8,7.5,8.3,10.4,11.3,16.2c2.8,5.4,7,9.4,12.5,12c4.7,2.2,7.5,5.1,11.2,8.9
						c2.4,2.4,5.5,5.7,4.7,9.3c-1.8,0-3.5-0.5-5.3-1.1l-1.7-0.6l-1.7-0.6c-0.6-0.2-1.1-0.4-1.7-0.6l-1.7-0.6l-0.9-0.3l-0.4-0.1
						l-0.2-0.1l-0.1,0l0,0l0,0l-0.1,0l-0.1,0l-1.7-0.5c0,0,0,0,0,0c0.1-0.3,0.1-0.7,0.1-1.1c0-0.4,0-0.8,0-1.2
						c0-0.4-0.1-0.8-0.2-1.2c-0.1-0.4-0.2-0.8-0.4-1.2c-0.1-0.4-0.3-0.8-0.5-1.1c-0.2-0.4-0.4-0.7-0.6-1c-0.4-0.6-0.9-1.2-1.4-1.6
						c-0.2-0.2-0.5-0.4-0.7-0.6c-0.2-0.2-0.4-0.3-0.6-0.4c-0.2-0.1-0.3-0.2-0.4-0.3c-0.1-0.1-0.2-0.1-0.2-0.1s0,0.1,0,0.2
						c0,0.1-0.1,0.3-0.1,0.5c0,0.2-0.1,0.4-0.1,0.7c0,0.3,0,0.6,0,0.9c0,0.6,0.1,1.3,0.3,2.1c0.1,0.4,0.2,0.7,0.3,1.1
						c0.1,0.4,0.2,0.7,0.4,1.1c0.1,0.4,0.3,0.7,0.4,1c0.2,0.3,0.3,0.7,0.5,1c0.1,0.1,0.1,0.3,0.2,0.4c-0.6-0.2-1.3-0.5-1.9-0.7
						c-1-0.4-2-0.9-2.8-1.5c-0.9-0.6-1.7-1.3-2.4-2c-0.2-0.2-0.3-0.4-0.5-0.6c-0.2-0.2-0.3-0.4-0.5-0.6c-0.2-0.2-0.3-0.4-0.4-0.7
						l-0.2-0.3l0,0l-0.3-0.6c-0.1-0.1-0.1-0.3-0.2-0.4c-0.1-0.2-0.2-0.5-0.3-0.7c-0.1-0.2-0.2-0.5-0.3-0.8c-0.1-0.3-0.2-0.5-0.3-0.8
						c-0.4-1.1-0.8-2.3-1.4-3.4c-0.1-0.1-0.1-0.3-0.2-0.4l-0.4-0.9l-0.1-0.2l0-0.1l0,0l-0.1-0.1c-0.2-0.3-0.3-0.5-0.5-0.8
						c-0.2-0.3-0.4-0.6-0.5-0.8c-0.7-1-1.5-2-2.4-2.9c-0.4-0.5-0.8-0.9-1.3-1.3c-0.4-0.4-0.9-0.9-1.3-1.3c-0.9-0.8-1.8-1.6-2.7-2.4
						c-0.9-0.8-1.8-1.6-2.7-2.4c0.6,1.1,1.2,2.1,1.9,3.1c0.7,1,1.4,2,2.1,2.9l1,1.5c0.2,0.2,0.3,0.5,0.5,0.7
						c0.2,0.2,0.3,0.5,0.5,0.7c0.6,1,1.3,2,1.8,3c0.1,0.2,0.2,0.5,0.4,0.7c0.1,0.3,0.3,0.5,0.4,0.8l0,0.1l0,0.1c0,0,0,0,0,0l0,0l0,0
						l0.1,0.2l0.2,0.4l0.2,0.4l0.1,0.4c0.1,0.3,0.2,0.5,0.3,0.8l0.3,0.8c0.1,0.4,0.3,0.9,0.4,1.3c-0.2-0.1-0.4-0.2-0.5-0.3
						c-0.1,0-0.1-0.1-0.2-0.1l-0.2-0.1c-0.1-0.1-0.2-0.2-0.3-0.2l-0.2-0.1c-1-0.5-2-1-3-1.4c-0.3-0.1-0.5-0.2-0.8-0.3
						c-0.3-0.1-0.5-0.2-0.8-0.3c-0.5-0.2-1-0.4-1.6-0.5l-0.8-0.2c-0.3-0.1-0.5-0.2-0.8-0.2c-0.3-0.1-0.5-0.1-0.8-0.2
						c-0.3-0.1-0.6-0.1-0.8-0.2c-0.3-0.1-0.6-0.1-0.8-0.2c-0.3,0-0.6-0.1-0.9-0.1c-0.6-0.1-1.2-0.1-1.8-0.1c0.4,0.5,0.8,0.9,1.2,1.4
						c0.2,0.2,0.4,0.4,0.6,0.6c0.2,0.2,0.4,0.4,0.7,0.6c0.2,0.2,0.5,0.4,0.7,0.5c0.2,0.2,0.5,0.3,0.7,0.5c0.2,0.2,0.5,0.3,0.7,0.5
						c0.2,0.1,0.5,0.3,0.7,0.4c1,0.5,2.1,1,3.1,1.4c1.1,0.4,2.2,0.7,3.3,0.9l-0.2-0.1c0.2,0.1,0.4,0.1,0.6,0.2l0.3,0.1
						c0.1,0,0.2,0.1,0.3,0.1c0.4,0.1,0.7,0.1,1.1,0.1l0.5,0c0.2,0,0.3,0,0.5,0c0.1,0,0.2,0,0.2,0l0.1,0c0,0.1,0.1,0.3,0.1,0.4
						c0.1,0.2,0.1,0.3,0.2,0.4l0.2,0.4l0.1,0.2l0,0.1l0,0.1l0,0c0,0.1,0.1,0.2,0.1,0.2l0,0l0.3,0.4c0.2,0.3,0.3,0.6,0.5,0.8
						c0.2,0.3,0.4,0.5,0.6,0.8c0.2,0.3,0.4,0.5,0.7,0.8c0.9,1,1.9,1.9,3.1,2.7c1.1,0.7,2.3,1.3,3.5,1.8c1.2,0.5,2.4,0.8,3.6,1.1
						c0.8,0.2,1.6,0.4,2.4,0.5c-0.4,0-0.8,0-1.3,0c-0.8,0-1.6,0.1-2.4,0.2c-0.8,0.1-1.5,0.3-2.2,0.6c-0.3,0.1-0.6,0.2-0.9,0.4
						c-0.3,0.1-0.5,0.3-0.7,0.4c-0.2,0.1-0.3,0.2-0.4,0.3c-0.1,0.1-0.1,0.1-0.1,0.1s0.1,0,0.2,0.1c0.1,0.1,0.3,0.1,0.4,0.2
						c0.2,0.1,0.4,0.2,0.6,0.3c0.2,0.1,0.5,0.2,0.8,0.4c0.6,0.2,1.3,0.5,2.1,0.6c0.8,0.2,1.6,0.2,2.5,0.2c0.9,0,1.8-0.2,2.6-0.4
						c0.4-0.1,0.8-0.3,1.2-0.5c0.4-0.2,0.7-0.4,1-0.7c0.3-0.2,0.5-0.5,0.7-0.8c0.1-0.1,0.2-0.2,0.2-0.3c1.1,0.3,2.3,0.5,3.5,0.8
						l1.8,0.3c0.6,0.1,1.2,0.2,1.8,0.2c0.6,0.1,1.2,0.1,1.8,0.2c9.8,0.8,3.8,30.8,3.1,36.3c-1.2,9.6-2.5,19.6-4.9,29
						c-0.9,3.4-2.1,9.8-3.9,15.9h27.9c-2.8-10.2-3.4-22.6-4.5-30.2c-1.2-8.4-1.8-16.9-2.2-25.4c-0.2-5.5-5.2-21.3-0.6-25.4
						c3.4-3,6.7,1.2,9.8,2.8c4,2,9.7,2.7,13.9,0.9c-4.3-2.7-9.8-3.3-14.6-4.9c9.8-0.3,19.2-2.5,29.1-1.7c7.3,0.6,14.7,1.2,19.1-5.6
						C811.5,421.9,811.1,422.1,810.7,422.2z"/>
					<path fill="#DFEDEE" d="M711.8,392.5C711.8,392.5,711.8,392.5,711.8,392.5C711.8,392.5,711.8,392.5,711.8,392.5L711.8,392.5z"
						/>
				</g>
			</g>
			<g>
				<path fill="#B0D3D5" d="M891.3,862.8c0,7.3-5.9,13.2-13.2,13.2H550.5c-7.3,0-13.2-5.9-13.2-13.2V475.2c0-7.3,5.9-13.2,13.2-13.2
					h327.6c7.3,0,13.2,5.9,13.2,13.2V862.8z"/>
				<path fill="#7CB6B9" d="M890.3,474.7V499h-353v-24.3c0-7.3,5.8-12.7,13.1-12.7h327.3C885,462,890.3,467.4,890.3,474.7z"/>
				<g>
					<ellipse fill="#DFEDEE" cx="618.5" cy="481.3" rx="8.7" ry="7.9"/>
					<ellipse fill="#DFEDEE" cx="590.8" cy="481.3" rx="8.7" ry="7.9"/>
					<ellipse fill="#DFEDEE" cx="560.4" cy="481.3" rx="8.7" ry="7.9"/>
				</g>
				<path fill="#DFEDEE" d="M872.6,481.1c0-3.7-2.3-6.7-5.1-6.7H650.8c-2.8,0-5.1,3-5.1,6.7l0,0c0,3.7,2.3,6.7,5.1,6.7h216.7
					C870.3,487.8,872.6,484.8,872.6,481.1L872.6,481.1z"/>
				<rect x="568.3" y="524" fill="#DFEDEE" width="292" height="123"/>
				<g>
					<g>
						<g>
							<path fill="#F2F2F2" d="M719.1,677.2c32.8,0,65.5,0,98.3,0c6.4,0,6.4-10,0-10c-32.8,0-65.5,0-98.3,0
								C712.6,667.2,712.6,677.2,719.1,677.2L719.1,677.2z"/>
						</g>
					</g>
					<g>
						<g>
							<path fill="#F2F2F2" d="M573.4,677.2c38.1,0,76.3,0,114.4,0c6.4,0,6.4-10,0-10c-38.1,0-76.3,0-114.4,0
								C567,667.2,567,677.2,573.4,677.2L573.4,677.2z"/>
						</g>
					</g>
					<g>
						<g>
							<path fill="#F2F2F2" d="M785.5,698.8c23.8,0,47.6,0,71.3,0c6.4,0,6.4-10,0-10c-23.8,0-47.6,0-71.3,0
								C779,688.8,779,698.8,785.5,698.8L785.5,698.8z"/>
						</g>
					</g>
					<g>
						<g>
							<path fill="#F2F2F2" d="M645.8,698.8c35.9,0,71.9,0,107.8,0c6.4,0,6.4-10,0-10c-35.9,0-71.9,0-107.8,0
								C639.4,688.8,639.4,698.8,645.8,698.8L645.8,698.8z"/>
						</g>
					</g>
					<g>
						<g>
							<path fill="#F2F2F2" d="M573.4,698.8c13.7,0,27.4,0,41.1,0c6.4,0,6.4-10,0-10c-13.7,0-27.4,0-41.1,0
								C567,688.8,567,698.8,573.4,698.8L573.4,698.8z"/>
						</g>
					</g>
					<g>
						<g>
							<path fill="#F2F2F2" d="M716.6,720.3c46.8,0,93.5,0,140.3,0c6.4,0,6.4-10,0-10c-46.8,0-93.5,0-140.3,0
								C710.1,710.3,710.1,720.3,716.6,720.3L716.6,720.3z"/>
						</g>
					</g>
					<g>
						<g>
							<path fill="#F2F2F2" d="M629.5,720.3c18.6,0,37.3,0,55.9,0c6.4,0,6.4-10,0-10c-18.6,0-37.3,0-55.9,0
								C623,710.3,623,720.3,629.5,720.3L629.5,720.3z"/>
						</g>
					</g>
					<g>
						<g>
							<path fill="#F2F2F2" d="M806.3,741.8c16.9,0,33.7,0,50.6,0c6.4,0,6.4-10,0-10c-16.9,0-33.7,0-50.6,0
								C799.8,731.8,799.8,741.8,806.3,741.8L806.3,741.8z"/>
						</g>
					</g>
					<g>
						<g>
							<path fill="#F2F2F2" d="M573.4,741.8c67.2,0,134.5,0,201.7,0c6.4,0,6.4-10,0-10c-67.2,0-134.5,0-201.7,0
								C567,731.8,567,741.8,573.4,741.8L573.4,741.8z"/>
						</g>
					</g>
				</g>
				<g>
					<g>
						<g>
							<path fill="#F2F2F2" d="M711.2,822.4c-32.8,0-65.5,0-98.3,0c-6.4,0-6.4,10,0,10c32.8,0,65.5,0,98.3,0
								C717.7,832.4,717.7,822.4,711.2,822.4L711.2,822.4z"/>
						</g>
					</g>
					<g>
						<g>
							<path fill="#F2F2F2" d="M856.8,822.4c-38.1,0-76.3,0-114.4,0c-6.4,0-6.4,10,0,10c38.1,0,76.3,0,114.4,0
								C863.3,832.4,863.3,822.4,856.8,822.4L856.8,822.4z"/>
						</g>
					</g>
					<g>
						<g>
							<path fill="#F2F2F2" d="M644.8,800.9c-23.8,0-47.6,0-71.3,0c-6.4,0-6.4,10,0,10c23.8,0,47.6,0,71.3,0
								C651.2,810.9,651.2,800.9,644.8,800.9L644.8,800.9z"/>
						</g>
					</g>
					<g>
						<g>
							<path fill="#F2F2F2" d="M784.5,800.9c-35.9,0-71.9,0-107.8,0c-6.4,0-6.4,10,0,10c35.9,0,71.9,0,107.8,0
								C790.9,810.9,790.9,800.9,784.5,800.9L784.5,800.9z"/>
						</g>
					</g>
					<g>
						<g>
							<path fill="#F2F2F2" d="M856.8,800.9c-13.7,0-27.4,0-41.1,0c-6.4,0-6.4,10,0,10c13.7,0,27.4,0,41.1,0
								C863.3,810.9,863.3,800.9,856.8,800.9L856.8,800.9z"/>
						</g>
					</g>
					<g>
						<g>
							<path fill="#F2F2F2" d="M713.7,779.3c-46.8,0-93.5,0-140.3,0c-6.4,0-6.4,10,0,10c46.8,0,93.5,0,140.3,0
								C720.1,789.3,720.1,779.3,713.7,779.3L713.7,779.3z"/>
						</g>
					</g>
					<g>
						<g>
							<path fill="#F2F2F2" d="M800.8,779.3c-18.6,0-37.3,0-55.9,0c-6.4,0-6.4,10,0,10c18.6,0,37.3,0,55.9,0
								C807.2,789.3,807.2,779.3,800.8,779.3L800.8,779.3z"/>
						</g>
					</g>
					<g>
						<g>
							<path fill="#F2F2F2" d="M624,757.8c-16.9,0-33.7,0-50.6,0c-6.4,0-6.4,10,0,10c16.9,0,33.7,0,50.6,0
								C630.4,767.8,630.4,757.8,624,757.8L624,757.8z"/>
						</g>
					</g>
					<g>
						<g>
							<path fill="#F2F2F2" d="M856.8,757.8c-67.2,0-134.5,0-201.7,0c-6.4,0-6.4,10,0,10c67.2,0,134.5,0,201.7,0
								C863.3,767.8,863.3,757.8,856.8,757.8L856.8,757.8z"/>
						</g>
					</g>
				</g>
			</g>
		</g>
		<g>
			<g>
				<path fill="#B0D3D5" d="M963.6,404.1c0-1.7-1.4-3.1-3.1-3.1h-4.1c-1.7,0-3.1,1.4-3.1,3.1V619c0,1.7,1.4,3.1,3.1,3.1h4.1
					c1.7,0,3.1-1.4,3.1-3.1V404.1z"/>
				<path fill="#FFFFFF" d="M953.4,595V619c0,1.7,1.4,3.1,3.1,3.1h4.1c1.7,0,3.1-1.4,3.1-3.1V595H953.4z"/>
				<path fill="#F7CBC9" d="M952.6,606.7v12.9c0,1.9,1.6,3.5,3.5,3.5h4.7c1.9,0,3.5-1.6,3.5-3.5v-12.9H952.6z"/>
				<polygon fill="#FEB238" points="958.5,402.2 953.7,402.2 956.1,391.4 958.5,380.7 960.9,391.4 963.3,402.2 				"/>
			</g>
			<g>
				<g>
					<g>
						<g>
							<path fill="#7CB6B9" d="M1074.5,360c0,0,27.7-4.8,28-14c0.7-24.5-32.4-79.8-32.4-79.8l-33.3,16.2L1074.5,360z"/>
							<path fill="#4D5068" d="M1019.5,256c0,0-14.7-8.4-9.5-17c5.2-8.6-3-16.6,14.1-18.1c17.1-1.4,18.7,1.8,28.8,2.8
								c10.1,1,26.8,1.7,34.5,16.3c7.7,14.5-3.4,52.9-3.4,52.9L1019.5,256z"/>
							<path fill="#7CB6B9" d="M1020.7,240.7c-2.4,4.7-4.4,9.7-5.7,14.8c-2.2,8.6,3.6,14.8,2.6,22.7c-0.5,4.5-4.3,8.6-3.9,13.3
								c0.6,5.5,7.2,3,7.8,4.4c0,0,8.1,20.4,8.1,20.4c1.9,4.7,7.4,6.8,12,4.6c0,0,20.5-9.6,20.6-9.7c12.6-5.9,7.4-21,8.8-31.7
								c1.3-9.3,12.3-16.9,0-23.4c-1.6-0.8-8.6-1.1-9.5-0.2c-1.8,1.7-3.3,10-4,14.1c-0.1,0.5-0.8,0.5-0.9,0
								C1054.4,261.8,1045.2,233.7,1020.7,240.7z"/>
							<path fill="#67A3A1" d="M1053.9,314.7c0,0,18.9-8.7,22.1-20.1c0,0-13,26.5-21.2,25.1L1053.9,314.7z"/>
							<path fill="#4D5068" d="M1021.2,299.6c0,0,1.3,17.8,5.4,20.7c6,4.3,7.5,7.2,13.9,4.6c6.3-2.6,33.5-11.4,30-27.2
								c-0.5-2.3-0.1-5.5-1.1-7.6c-1.1-2.2-2.8-2.1-3.7-3.6c-1.9-3-2.3-6.8-2.9-10.3c-0.6-3.7-0.6-21.4-4.6-22.9
								c-3.4-1.3-5.7,3.4-3.5,11.8c2.2,8.4,4.4,21.3-2.7,23.7C1044.8,291.2,1026.2,288,1021.2,299.6z"/>
							<path fill="#4D5068" d="M1015.2,253.1c0,0,23.5,12.2,34.8,6.1c11.3-6.1,5.5-18.8,5.5-18.8S1006.8,224.5,1015.2,253.1z"/>
						</g>
						<g>

								<rect x="1043.9" y="844.7" transform="matrix(-0.9999 1.419226e-02 -1.419226e-02 -0.9999 2129.3813 1727.3684)" fill="#7CB6B9" width="29.4" height="53.1"/>
							<g>

									<rect x="1085.1" y="835.9" transform="matrix(-0.9901 0.1407 -0.1407 -0.9901 2310.0073 1561.6757)" fill="#7CB6B9" width="29.4" height="53.1"/>
								<path fill="#EFA233" d="M1007.2,522.2c6.8,48.2,14.7,96.3,20.5,144.6c5.3,44.2,20.6,85.6,33.5,127.9
									c1.5,4.9,21.5,73.9,23.3,73.7l34.5-4.9c-12.7-68.4-28.1-135.9-29.1-205.8c-0.3-17.5-3.1-35.2-1.4-52.8
									c1.7-17.1,11.9-29.9,15-46.3c2.5-13.3,0-24.5-3.6-37.2L1007.2,522.2z"/>
								<path fill="#9496A4" d="M1122.6,888.8l-3.1-21.9l-32.5,4.6l-7.3-9l-39.9,21.5c-3.8,2.3-5.8,7-5.1,11.9l0.6,4L1122.6,888.8z"
									/>
							</g>
							<path fill="#FFBF61" d="M1009.8,522c0.7,48.6,2.4,97.4,2,146c-0.4,44.5,9.6,87.5,17.1,131.1c0.9,5,12,76,13.8,76l34.8-0.5
								c-4-69.5-10.6-138.4-2.8-207.8c2-17.4,1.3-35.3,5.2-52.5c3.8-16.8,15.6-28.2,20.7-44c4.2-12.9,3.1-24.3,1.1-37.3L1009.8,522z
								"/>
							<path fill="#FFDCD8" d="M1107.7,330.4c5.9-1.6,12.1,14.9,12.9,18.6c2.7,11.9-1.5,23.7-2.1,35.6c-1.1,18.8-3.1,37.4-4.3,56.2
								c-2.4,37-6,73.9-8.9,110.8c-0.6,8.1-58.6-9.1-97.3-13.6c-2.8-0.9,0.5-42.6,0.6-46.3c1-47.9,0.7-99.4,35.5-136.8
								c2.3-2.5,22.1-20.9,19.6-24.4c4.4,6.1,12.2,8.8,19.4,6.8C1083,337.2,1107.4,330.5,1107.7,330.4z"/>
							<path fill="#9496A4" d="M1077.8,900.2l-0.3-22.1l-32.8,0.5l-6.1-9.9L996.3,885c-4,1.8-6.7,6.2-6.6,11.2l0.1,4H1077.8z"/>
						</g>
					</g>
					<path fill="#F7CBC9" d="M1063.6,330.4c0,0,22-5.3,30.3-19.8c0,0,15.2,16.7,16.7,20.5c1.5,3.8-50.9,27.4-50.9,27.4L1063.6,330.4
						z"/>
					<polygon fill="#F7CBC9" points="1063.6,330.4 1046.7,349.4 1063.5,338 					"/>
				</g>
				<path fill="#7CB6B9" d="M952.3,491.4c0.1-0.6,0.1-1.1,0-1.7h10.4l24.3,15.6l63-23.7l7-83.3h41.9l-15.1,93.1
					c-2.1,13.3-13.1,23.3-26.4,24.4l-72.3,5.7h-13.4l-19.2-13.8C951.1,502.3,951.4,496.9,952.3,491.4z"/>
				<path fill="#F7CBC9" d="M1053.8,414.8c0,0,0-15.9,0-16c0-18.6,14.3-51.7,39.8-35.4c10.5,6.7,9.1,29.5,9.1,41c0,0,0,10.5,0,10.5
					H1053.8z"/>
				<path fill="#7CB6B9" d="M967.1,492.4c0,0-11.2-7.9-14.9-2.7s0.4,8.1,0.4,8.1s-2.5,2.9-0.5,6.8c2,3.9,0,4.9,5.5,7.3
					s11.2,11.6,14.1,8.7C974.6,517.6,967.1,492.4,967.1,492.4z"/>
			</g>
		</g>
		<g>
			<rect x="705.8" y="555.2" fill="#FFBF61" width="29.9" height="54.1"/>
			<g>
				<path fill="#FFBF61" d="M588.2,282.5c0,0-27.3-6.8-26.9-16c1.1-24.5,38.2-77.2,38.2-77.2l32.1,18.6L588.2,282.5z"/>
				<path fill="#4D5068" d="M650.7,182.9c0,0,15.2-7.3,10.7-16.3c-4.5-9,4.2-16.4-12.8-19c-17-2.7-18.8,0.4-28.9,0.7
					c-10.1,0.3-26.9-0.2-35.6,13.7c-8.8,13.9-0.5,53-0.5,53L650.7,182.9z"/>
				<path fill="#FFBF61" d="M650.6,167.5c2.1,4.8,3.7,10,4.6,15.2c1.5,8.7-4.6,14.5-4.3,22.5c0.2,4.5,3.7,8.9,2.9,13.6
					c-1,5.4-7.4,2.5-8.1,3.8c0,0-9.6,19.8-9.6,19.8c-2.2,4.6-7.9,6.3-12.3,3.7c0,0-19.8-11.1-19.8-11.1c-12.1-6.8-5.8-21.4-6.5-32.3
					c-0.6-9.3-11.1-17.8,1.7-23.3c1.7-0.7,8.7-0.4,9.5,0.5c1.6,1.9,2.6,10.2,3,14.3c0,0.5,0.7,0.6,0.9,0.1
					C615.4,186.1,626.7,158.7,650.6,167.5z"/>
				<path fill="#E5A24A" d="M612,238.8c0,0-18.2-10.1-20.6-21.7c0,0,11,27.4,19.3,26.6L612,238.8z"/>
				<path fill="#4D5068" d="M655.1,180.2c0,0-24.4,10.4-35.2,3.5c-10.8-6.9-4.1-19.2-4.1-19.2S665.6,152.3,655.1,180.2z"/>
			</g>
			<path fill="#3A3E54" d="M528.9,407.8v18c0,22.4,19,34.9,42.5,34.9l126.6,5.6c4,0,7.3,3.1,7.3,7v103.9h35.4l6.1-139.3
				c0.7-15.7-12.5-28.8-29.1-28.8L612,402.7l-2.7-6.5L528.9,407.8z"/>
			<path fill="#FFBF61" d="M630.1,374.5c2.2,0,3.7-1.2,4.4-2.7c14.9,8,62.3,6.5,62.3,7.6c-0.2,4.2-3.1,7.1-7.1,6.8l-11.4-0.7
				l-2.1,2.6c-1.7,2.1-4.3,3.2-7.2,3l-5.7-0.4l-15.5,3.9c-4.2,1-9-0.2-13.1-3.5l-8.8-6.9c0,0,1.2-5.1,2.3-10
				C628.7,374.3,629.3,374.5,630.1,374.5z"/>
			<g opacity="0.2">
				<g>
					<path fill="#191C3C" d="M704.2,577.9v-1.4c0.1,1,0.3,2,0.6,3C704.6,579,704.4,578.5,704.2,577.9z"/>
				</g>
				<g>
					<path fill="#191C3C" d="M707.4,533.8c0.3-1.2,0.7-2.4,1.4-3.5L707.4,533.8z"/>
				</g>
				<g>
					<path fill="#191C3C" d="M718.5,464c0.8-1.1,1.6-2.2,2.4-3.4C720.3,461.8,719.4,462.9,718.5,464z"/>
				</g>
			</g>
			<path fill="#B0D3D5" d="M572.3,231c-0.3-0.1-0.7-0.1-1.1-0.1c-16.8-0.4-32.3,20.1-39.3,34c-11.4,22.8-11.8,49-10.3,74.1
				c1.6,25.8,3.2,51.5,4.5,77.4c0.4,8.2-1.1,19.6,1.4,27.5c-0.7-2.1,12.8-11,14.5-12.2c7.7-5.3,16.9-5.8,25.6-8.3
				c9.1-2.6,16.8-7.8,25.1-12.2c6.9-3.6,14.4-4.9,21.4-8.3c2.3-1.1-2.1-31.2-2.4-34.7c-1.1-12-2.5-23.9-3.6-35.9
				c-1.6-16.9-3.3-33.8-5.4-50.6c-0.9-7-0.6-15.9-4.1-22.1c-4-7.1-12.2-13.7-17.7-19.7C578.4,236.8,576.3,231.8,572.3,231z"/>
			<path fill="#FFDCD8" d="M743.6,604.6c3.2,2.4,4,6,6.2,10.8c5.2,11.7,11,22.9,19.5,32.6c2.3,2.6,2.6,6.3,0.8,9.2
				c0,0-2.3,3.7-2.4,3.9c-0.1,0.1-70.8-43.8-78.3-48.2c-0.1-4.8,9.3-35.7,17.5-27.1c5.1,5.4-0.7,16.4,11.6,16.8
				c6,0.2,17.3-1.7,22.7,0.6C742.1,603.6,742.9,604,743.6,604.6z"/>
			<path fill="#94BFBE" d="M566.4,260.7c1.3,1.1,2.4,2.2,3.2,3.4c7,9.9,4.7,23.3,4.3,34.6c-0.1,3.8-5.9,56.7-7.5,56.4
				c0,0,70.8,17,70.8,17v20.1l-99.9-12c-8.3-1-8.7-9.9-8-18.2c0,0,0.9-76.7,11.2-99.9C545.2,251.4,559.2,254.8,566.4,260.7z"/>
			<g>
				<path fill="#161633" d="M620.7,403.5l111.5,8.1c2.6,0.2,4.9-1.8,5.1-4.4l0,0c0.2-2.6-1.8-4.9-4.4-5.1L621.4,394
					c-2.6-0.2-4.9,1.8-5.1,4.4l0,0C616.1,401.1,618,403.4,620.7,403.5z"/>
				<path fill="#161633" d="M723.2,404.9l61.6-93.3c1.1-1.6,3.2-2.1,4.9-1c1.6,1.1,2.1,3.2,1,4.8l-59,89.5H723.2z"/>
			</g>
			<g opacity="0.11">
				<g>
					<path fill="#191C3C" d="M745.8,464.3l0,0.4c-0.6-0.4-1.3-0.7-1.9-1.2L745.8,464.3z"/>
				</g>
			</g>
		</g>
		<g>
			<g>
				<g>
					<g>
						<g>
							<path fill="#FFBF61" d="M422.8,863.8c0,5.3-4.3,9.5-9.5,9.5H277.6c-5.3,0-9.5-4.3-9.5-9.5V681.4c0-5.3,4.3-9.5,9.5-9.5h135.6
								c5.3,0,9.5,4.3,9.5,9.5V863.8z"/>
						</g>
						<g>
							<path fill="#FFBF61" d="M553.2,864c0,5.3-4.3,9.9-9.6,9.9h-136c-5.3,0-9.1-4.7-9.1-9.9V681.4c0-5.3,3.9-9.5,9.1-9.5h136
								c5.3,0,9.6,4.2,9.6,9.5V864z"/>
						</g>
					</g>
					<g>
						<path fill="#FFBF61" d="M430,867.9c0,10.3-8.5,18.6-18.8,18.6l0,0c-10.3,0-18.8-8.3-18.8-18.6v-18c0-10.3,8.5-18.6,18.8-18.6
							l0,0c10.3,0,18.8,8.3,18.8,18.6V867.9z"/>
					</g>
					<g>
						<rect x="277.2" y="682.8" fill="#F1F1F1" width="265.7" height="181.4"/>
					</g>
					<g>
						<g>
							<path fill="#FFFFFF" d="M410.5,853.4c-46.4-13.3-79-13.3-125.3,0c0-58.2,0-116.4,0-174.6c46.4-20.6,78.8-20,125.3,0
								C410.5,736.9,410.5,795.1,410.5,853.4z"/>
						</g>
					</g>
					<g>
						<g>
							<path fill="#FFFFFF" d="M411.3,678.4c-0.7,0.3-1.4,0.6-2.1,0.9c0,58.2,0,116.4,0,174.7c0.5-0.1,1.4-0.3,1.4-0.4V679.2
								C410.6,678.9,411.1,678.7,411.3,678.4z"/>
						</g>
						<g>
							<path fill="#E8E8E8" d="M476.7,664C476.6,664,476.6,664,476.7,664c-21.6,0.3-43.2,5.1-65.3,14.4c-0.2,0.3-0.7,0.5-0.7,0.8
								v174.3v0.7c0,0,0-0.3,0-0.8c0,0,0,0,0,0c46.1-12.8,76.4-12.7,123.7,0.4c0-58.2,0-116.4,0-174.7
								C510.7,668.8,499.7,663.8,476.7,664z"/>
						</g>
					</g>
				</g>
				<g>
					<g>
						<g>
							<g>
								<path fill="#E8E8E8" d="M303.3,710.1c8.3-2.8,17.4-4,26.1-4.9c23.4-2.4,47.2-0.3,70.1,4.9c1,0.2,1.5-1.4,0.4-1.6
									c-22.9-5.2-46.5-7.3-69.9-5.1c-9.1,0.9-18.5,2.1-27.2,5.1C301.8,708.9,302.3,710.5,303.3,710.1L303.3,710.1z"/>
								<g>
									<path fill="#E8E8E8" d="M303.7,711.6c17.2-5.6,36.3-6.4,54.3-5.7c9.4,0.4,18.8,1.5,28,3c4.4,0.7,8.7,1.6,13.1,2.6
										c1.6,0.4,2.5-0.7,2.9-2.1c0.1-0.5,0-1.1-0.4-1.5c-2.4-2.3-7.4-2.3-10.6-2.9c-4.5-0.9-9-1.6-13.5-2.2
										c-10.1-1.3-20.2-1.9-30.3-1.9c-5.4,0-48.2,1.4-46.1,9.3c0.1,0.5,0.5,0.9,1,1c0.3,0.1,0.5,0.1,0.8,0.2
										c1.9,0.4,2.7-2.5,0.8-2.9c2.1,0.5,2.6,0.3,4.8-0.3c1.8-0.5,3.6-0.9,5.4-1.2c4.1-0.8,8.3-1.4,12.4-1.8
										c8.2-0.9,16.3-1.3,24.5-1.2c8.2,0,16.5,0.7,24.6,1.7c4.3,0.5,8.5,1.2,12.8,1.9c1.9,0.3,3.7,0.7,5.6,1.1
										c1.2,0.3,2.5,0.5,3.7,0.8c0.8-1.4,0.3-1.9-1.5-1.7c-15.7-3.4-31.7-5.1-47.7-5.1c-15.1,0-31.1,1.3-45.6,6
										C301.1,709.3,301.8,712.2,303.7,711.6z"/>
								</g>
							</g>
						</g>
					</g>
					<g>
						<g>
							<g>
								<path fill="#E8E8E8" d="M380.4,718.7c6.4,1,12.8,2.2,19.1,3.6c1,0.2,1.5-1.4,0.4-1.6c-6.3-1.5-12.7-2.7-19.1-3.6
									C379.8,716.9,379.3,718.5,380.4,718.7L380.4,718.7z"/>
								<g>
									<path fill="#E8E8E8" d="M380,720.1c3.4,0.5,6.9,1.1,10.3,1.8c2.9,0.5,6.3,1.9,9.2,1.9c2.8,0,3.1-3,1.2-4.4
										c-0.7-0.5-2.4-0.6-3.3-0.8c-1.9-0.4-3.9-0.8-5.9-1.2c-3.4-0.7-6.9-1.2-10.3-1.8c-2.8-0.4-3.8,2.9-1.6,4.3
										c1.6,1.1,3.1-1.5,1.5-2.6c0.3,0.5,0.5,0.9,0.8,1.4c1,0.2,2,0.3,3,0.5c1.5,0.2,2.9,0.5,4.4,0.8c2.9,0.5,5.9,1.2,8.8,1.8
										c0.1-0.4,0.2-0.9,0.4-1.3c-1-0.2-1.9-0.4-2.9-0.6c-1.5-0.3-2.9-0.6-4.4-0.9c-3.4-0.7-6.9-1.2-10.3-1.8
										C378.9,717,378.1,719.8,380,720.1z"/>
								</g>
							</g>
						</g>
					</g>
					<g>
						<g>
							<g>
								<path fill="#E8E8E8" d="M325.9,717.8c14.6-1.9,29.4-1.8,44.1-0.4c1.1,0.1,1.1-1.6,0-1.7c-14.7-1.4-29.5-1.5-44.1,0.4
									C324.8,716.3,324.8,717.9,325.9,717.8L325.9,717.8z"/>
								<g>
									<path fill="#E8E8E8" d="M325.9,719.3c8.3-1,16.6-1.5,24.9-1.4c3.8,0,7.7,0.2,11.5,0.4c2.8,0.2,6.5,1.4,9.1,0.1
										c0.5-0.2,0.7-0.8,0.7-1.3c0-2.6-1.9-2.8-4.1-3c-6.4-0.6-12.8-0.8-19.2-0.9c-6.4,0-12.8,0.4-19.2,1c-2.6,0.3-6,0-6,3.3
										c0,0.5,0.3,1.1,0.7,1.3c0.2,0.1,0.5,0.2,0.7,0.3c1.7,0.8,3.3-1.7,1.5-2.6c0.8,1,1.8,1.3,3.1,0.7c1.9-0.2,3.8-0.4,5.7-0.5
										c3.8-0.3,7.7-0.4,11.5-0.5c7-0.1,14.1,0.3,21.1,0.9c0.4-1.5-0.2-2-1.9-1.5c-1.9-0.2-3.8-0.3-5.8-0.4
										c-3.8-0.2-7.7-0.3-11.5-0.3c-7.7,0-15.4,0.5-23,1.4C324,716.5,323.9,719.5,325.9,719.3z"/>
								</g>
							</g>
						</g>
					</g>
					<g>
						<g>
							<g>
								<path fill="#E8E8E8" d="M303.3,722.3c4.2-1.3,8.4-2.3,12.7-3.1c1.1-0.2,0.6-1.8-0.4-1.6c-4.3,0.8-8.6,1.7-12.7,3.1
									C301.8,721.1,302.3,722.7,303.3,722.3L303.3,722.3z"/>
								<g>
									<path fill="#E8E8E8" d="M303.7,723.8c2.2-0.7,4.5-1.3,6.8-1.8c2.1-0.5,4.7-0.6,6.7-1.6c2.4-1.2,0.2-4.1-1.6-4.2
										c-1.9-0.2-4.5,0.8-6.3,1.3c-2.1,0.5-5.3,0.8-7.2,2c-2,1.3-1.5,4.5,1.2,4.4c1.9-0.1,1.9-3.1,0-3c0.3,0.3,0.6,0.7,0.9,1
										c0.6-0.2,1.3-0.4,1.9-0.6c1-0.3,1.9-0.5,2.9-0.8c2-0.5,3.9-0.9,5.9-1.3c-0.1-0.4-0.2-0.9-0.4-1.3c-0.7,0.1-1.3,0.3-2,0.4
										c-1,0.2-2,0.4-3,0.6c-2.3,0.5-4.6,1.1-6.8,1.8C301.1,721.5,301.8,724.4,303.7,723.8z"/>
								</g>
							</g>
						</g>
					</g>
					<g>
						<g>
							<g>
								<path fill="#E8E8E8" d="M350.3,728.7c16.6,0.1,33,2.2,49.2,5.9c1,0.2,1.5-1.4,0.4-1.6c-16.3-3.7-32.9-5.8-49.6-5.9
									C349.2,727,349.2,728.7,350.3,728.7L350.3,728.7z"/>
								<g>
									<path fill="#E8E8E8" d="M350.3,730.2c10.7,0.1,21.3,1,31.9,2.6c5,0.8,10,1.7,15,2.8c2.2,0.5,4,0.8,4.7-1.7
										c0.1-0.5,0-1.1-0.4-1.5c-2.9-2.9-10.5-2.9-14.5-3.6c-6.5-1.1-13-1.9-19.5-2.5c-3.2-0.3-6.4-0.5-9.6-0.6
										c-2.1-0.1-6.6-1.1-8.5,0c-2,1.2-1.9,3.1,0,4.3c1.7,1,3.2-1.6,1.5-2.6c2,1.2,2.5,1.2,5,1.3c1.9,0.1,3.8,0.2,5.8,0.3
										c3.8,0.2,7.7,0.6,11.5,1c4.3,0.5,8.6,1.1,12.9,1.8c1.9,0.3,3.8,0.7,5.7,1c1.3,0.2,2.5,0.5,3.8,0.8c1.5,1,2.3,0.7,2.3-0.9
										c-15.7-3.5-31.7-5.3-47.7-5.5C348.4,727.1,348.4,730.1,350.3,730.2z"/>
								</g>
							</g>
						</g>
					</g>
					<g>
						<g>
							<g>
								<path fill="#E8E8E8" d="M303.3,734.6c12-3.7,24.5-5,37-5.7c1.1-0.1,1.1-1.7,0-1.7c-12.7,0.7-25.3,2-37.4,5.8
									C301.8,733.3,302.3,734.9,303.3,734.6L303.3,734.6z"/>
								<g>
									<path fill="#E8E8E8" d="M303.7,736c8.3-2.5,16.7-3.9,25.3-4.8c3.7-0.4,8.1,0.1,11.6-0.9c1.5-0.4,1.8-1.4,1.8-2.7
										c0-0.5-0.3-1-0.7-1.3c-2.9-1.6-7.8-0.2-10.9,0.1c-4.5,0.4-9.1,1-13.6,1.7c-5,0.8-9.9,2-14.8,3.5c-1.6,0.5-1.8,1.9-1.4,3.2
										c0.1,0.5,0.5,0.9,1,1c0.3,0.1,0.5,0.1,0.8,0.2c1.9,0.5,2.7-2.4,0.8-2.9c1,0.9,2.1,1,3.2,0.2c1.2-0.3,2.5-0.6,3.7-0.9
										c3.1-0.7,6.2-1.3,9.3-1.8c3.6-0.6,7.3-0.9,10.9-1.3c1.3-0.1,2.5-0.2,3.8-0.3c0.6,0,1.3-0.1,1.9-0.1c1.7,0.5,2.3,0,1.9-1.5
										c-12,0.7-24,2.2-35.5,5.6C301,733.7,301.8,736.6,303.7,736z"/>
								</g>
							</g>
						</g>
					</g>
					<g>
						<g>
							<g>
								<path fill="#E8E8E8" d="M303.3,746.8c8.3-2.8,17.4-4,26.1-4.9c23.4-2.4,47.2-0.3,70.1,4.9c1,0.2,1.5-1.4,0.4-1.6
									c-22.9-5.2-46.5-7.3-69.9-5.1c-9.1,0.9-18.5,2.1-27.2,5.1C301.8,745.5,302.3,747.1,303.3,746.8L303.3,746.8z"/>
								<g>
									<path fill="#E8E8E8" d="M303.7,748.2c17.2-5.6,36.3-6.4,54.3-5.7c9.4,0.4,18.8,1.5,28,3c4.4,0.7,8.7,1.6,13.1,2.6
										c1.6,0.4,2.5-0.7,2.9-2.1c0.1-0.5,0-1.1-0.4-1.5c-2.4-2.3-7.4-2.3-10.6-2.9c-4.5-0.9-9-1.6-13.5-2.2
										c-10.1-1.3-20.2-1.9-30.3-1.9c-5.4,0-48.2,1.4-46.1,9.3c0.1,0.5,0.5,0.9,1,1c0.3,0.1,0.5,0.1,0.8,0.2
										c1.9,0.4,2.7-2.5,0.8-2.9c2.1,0.5,2.6,0.3,4.8-0.3c1.8-0.5,3.6-0.9,5.4-1.2c4.1-0.8,8.3-1.4,12.4-1.8
										c8.2-0.9,16.3-1.3,24.5-1.2c8.2,0,16.5,0.7,24.6,1.6c4.3,0.5,8.5,1.2,12.8,1.9c1.9,0.3,3.7,0.7,5.6,1.1
										c1.2,0.3,2.5,0.5,3.7,0.8c0.8-1.4,0.3-1.9-1.5-1.7c-15.7-3.4-31.7-5.1-47.7-5.1c-15.1,0-31.1,1.3-45.6,6
										C301.1,745.9,301.8,748.8,303.7,748.2z"/>
								</g>
							</g>
						</g>
					</g>
					<g>
						<g>
							<g>
								<path fill="#E8E8E8" d="M384.6,756.1c5,0.8,9.9,1.8,14.8,2.9c1,0.2,1.5-1.4,0.4-1.6c-4.9-1.1-9.9-2.1-14.8-2.9
									C384,754.3,383.6,755.9,384.6,756.1L384.6,756.1z"/>
								<g>
									<path fill="#E8E8E8" d="M384.2,757.5c2.7,0.5,5.3,0.9,8,1.5c2.1,0.4,5.1,1.7,7.2,1.5c2.5-0.2,3.5-3,1.2-4.4
										c-1.8-1.1-5.1-1.2-7.2-1.6c-2.6-0.5-5.7-1.5-8.4-1.5c-2.5,0-3.4,3.2-1.2,4.4c1.7,0.9,3.2-1.7,1.5-2.6
										c0.1,0.4,0.3,0.9,0.4,1.3c0.8,0.1,1.5,0.3,2.3,0.4c1.1,0.2,2.3,0.4,3.4,0.6c2.3,0.4,4.6,0.9,6.8,1.4
										c0.1-0.4,0.2-0.9,0.4-1.3c-0.8-0.2-1.5-0.3-2.3-0.5c-1.1-0.2-2.3-0.5-3.4-0.7c-2.7-0.5-5.3-1-8-1.5
										C383.1,754.3,382.3,757.2,384.2,757.5z"/>
								</g>
							</g>
						</g>
					</g>
					<g>
						<g>
							<g>
								<path fill="#E8E8E8" d="M347.2,753.1c9.1-0.1,18.1,0.5,27.2,1.5c1.1,0.1,1.1-1.5,0-1.7c-9-1-18.1-1.6-27.2-1.5
									C346.1,751.4,346.1,753.1,347.2,753.1L347.2,753.1z"/>
								<g>
									<path fill="#E8E8E8" d="M347.2,754.6c5.2,0,10.4,0.1,15.5,0.5c3.7,0.2,9.7,2.2,13.1,0.5c0.5-0.2,0.7-0.8,0.7-1.3
										c0-1.4-0.6-2.6-2.2-2.8c-5.8-0.6-11.6-1.1-17.4-1.3c-2.9-0.1-9.2-1.6-11.5,0.7c-1.3,1.3-0.2,2.9,1,3.6
										c1.7,1,3.2-1.6,1.5-2.6c2,1.2,2.6,1.1,5.1,1.2c1.9,0,3.9,0.1,5.8,0.2c4.5,0.2,9.1,0.6,13.6,1c0-0.4,0-0.9,0-1.3
										c-1.3-0.1-2.6-0.3-3.9-0.4c-2.6-0.2-5.2-0.4-7.8-0.6c-4.5-0.3-9.1-0.3-13.6-0.3C345.3,751.6,345.3,754.6,347.2,754.6z"/>
								</g>
							</g>
						</g>
					</g>
					<g>
						<g>
							<g>
								<path fill="#E8E8E8" d="M303.3,759c10.9-3.2,22.1-4.9,33.5-5.5c1.1-0.1,1.1-1.7,0-1.7c-11.5,0.6-22.9,2.3-33.9,5.6
									C301.8,757.7,302.3,759.3,303.3,759L303.3,759z"/>
								<g>
									<path fill="#E8E8E8" d="M303.7,760.4c7.8-2.2,15.6-3.8,23.6-4.7c3-0.4,11.6,1.1,11.6-3.5c0-0.5-0.3-1-0.7-1.3
										c-2.9-1.6-7.8-0.2-11,0.2c-5.2,0.5-10.4,1.4-15.5,2.5c-2.8,0.6-9.1,0.9-10.7,3.7c-0.9,1.6,0.6,2.8,1.9,3.2
										c1.9,0.5,2.7-2.4,0.8-2.9c1,0.9,2.1,1,3.3,0.3c1.2-0.3,2.5-0.6,3.7-0.9c2.5-0.6,5-1.1,7.5-1.5c3-0.5,6-0.9,9.1-1.3
										c1.3-0.1,2.5-0.3,3.8-0.4c0.6-0.1,1.3-0.1,1.9-0.2c1.7,0.5,2.4,0,1.9-1.5c-10.8,0.6-21.6,2.5-32,5.5
										C301,758.1,301.8,761,303.7,760.4z"/>
								</g>
							</g>
						</g>
					</g>
					<g>
						<g>
							<g>
								<path fill="#E8E8E8" d="M303.3,771.2c8.3-2.8,17.4-4.1,26.1-4.9c23.4-2.4,47.2-0.3,70.1,4.9c1,0.2,1.5-1.4,0.4-1.6
									c-22.9-5.2-46.5-7.3-69.9-5.1c-9.1,0.9-18.5,2.1-27.2,5.1C301.8,769.9,302.3,771.6,303.3,771.2L303.3,771.2z"/>
								<g>
									<path fill="#E8E8E8" d="M303.7,772.7c17.2-5.6,36.3-6.4,54.3-5.7c9.4,0.4,18.8,1.5,28,3c4.4,0.7,8.7,1.6,13.1,2.6
										c1.6,0.4,2.5-0.7,2.9-2.1c0.1-0.5,0-1.1-0.4-1.5c-2.4-2.3-7.4-2.3-10.6-2.9c-4.5-0.9-9-1.6-13.5-2.2
										c-10.1-1.3-20.2-1.9-30.3-1.9c-5.4,0-48.2,1.4-46.1,9.3c0.1,0.5,0.5,0.9,1,1c0.3,0.1,0.5,0.1,0.8,0.2
										c1.9,0.4,2.7-2.5,0.8-2.9c2.1,0.5,2.6,0.3,4.8-0.3c1.8-0.5,3.6-0.9,5.4-1.2c4.1-0.8,8.3-1.4,12.4-1.8
										c8.2-0.9,16.3-1.3,24.5-1.2c8.2,0,16.5,0.7,24.6,1.6c4.3,0.5,8.5,1.2,12.8,1.9c1.9,0.3,3.7,0.7,5.6,1.1
										c1.2,0.3,2.5,0.5,3.7,0.8c0.8-1.4,0.3-1.9-1.5-1.7c-15.7-3.4-31.7-5.1-47.7-5.1c-15.1,0-31.1,1.3-45.6,6
										C301.1,770.4,301.8,773.3,303.7,772.7z"/>
								</g>
							</g>
						</g>
					</g>
					<g>
						<g>
							<g>
								<path fill="#E8E8E8" d="M333.6,778.1c22.1-1.6,44.3,0.4,65.9,5.3c1,0.2,1.5-1.4,0.4-1.6c-21.7-5-44.1-7-66.3-5.4
									C332.6,776.5,332.5,778.2,333.6,778.1L333.6,778.1z"/>
								<g>
									<path fill="#E8E8E8" d="M333.6,779.6c13.3-0.9,26.5-0.6,39.7,0.8c6.8,0.7,13.5,1.9,20.2,3.2c2.7,0.5,7.4,2.9,8.4-0.9
										c0.1-0.5,0-1.1-0.4-1.5c-1.4-1.4-3.1-1.4-5-1.8c-3.7-0.8-7.5-1.5-11.3-2.1c-7-1.2-14.1-2-21.2-2.5
										c-7.6-0.6-15.2-0.6-22.9-0.4c-2.8,0.1-9.8-1.1-9.8,3.2c0,0.5,0.3,1.1,0.7,1.3c0.2,0.1,0.5,0.3,0.7,0.4
										c1.7,0.9,3.2-1.7,1.5-2.6c0.7,1.1,1.8,1.4,3.1,0.9c1.3-0.1,2.5-0.1,3.8-0.2c2.5-0.1,5.1-0.1,7.6-0.1
										c5.7,0,11.4,0.3,17.1,0.7c5.6,0.4,11.1,1.1,16.6,2c2.5,0.4,5,0.8,7.5,1.3c1.3,0.2,2.5,0.5,3.7,0.7c0.6,0.1,1.2,0.3,1.9,0.4
										c1.5,1,2.2,0.7,2.2-0.9c-21.1-4.7-42.8-6.5-64.4-4.9C331.7,776.7,331.7,779.7,333.6,779.6z"/>
								</g>
							</g>
						</g>
					</g>
					<g>
						<g>
							<g>
								<path fill="#E8E8E8" d="M303.3,783.4c6.6-2.1,13.5-3.3,20.4-4.3c1.1-0.1,0.6-1.8-0.4-1.6c-6.9,0.9-13.7,2.1-20.4,4.3
									C301.8,782.1,302.3,783.8,303.3,783.4L303.3,783.4z"/>
								<g>
									<path fill="#E8E8E8" d="M303.7,784.9c6.7-2.1,13.5-3.3,20.4-4.3c2.8-0.4,1.7-4.6-0.8-4.6c-6.7,0-14.4,2.3-20.8,4.3
										c-2.9,0.9-1.6,4.3,0.8,4.6c1.9,0.2,1.9-2.8,0-3c0.5,0.3,0.9,0.6,1.4,0.9c1-0.3,1.9-0.6,2.9-0.8c1.4-0.4,2.9-0.7,4.3-1
										c3.4-0.8,6.8-1.3,10.3-1.8c-0.1-0.4-0.2-0.9-0.4-1.3c-1,0.1-2,0.3-2.9,0.4c-2,0.3-3.9,0.7-5.9,1c-3.4,0.7-6.8,1.5-10.1,2.6
										C301.1,782.6,301.8,785.4,303.7,784.9z"/>
								</g>
							</g>
						</g>
					</g>
					<g>
						<g>
							<g>
								<path fill="#E8E8E8" d="M303.3,795.6c8.3-2.8,17.4-4,26.1-4.9c23.4-2.4,47.2-0.3,70.1,4.9c1,0.2,1.5-1.4,0.4-1.6
									c-22.9-5.2-46.5-7.3-69.9-5.1c-9.1,0.9-18.5,2.1-27.2,5.1C301.8,794.4,302.3,796,303.3,795.6L303.3,795.6z"/>
								<g>
									<path fill="#E8E8E8" d="M303.7,797.1c17.2-5.6,36.3-6.4,54.3-5.7c9.4,0.4,18.8,1.5,28,3c4.4,0.7,8.7,1.6,13.1,2.6
										c1.6,0.4,2.5-0.7,2.9-2.1c0.1-0.5,0-1.1-0.4-1.5c-2.4-2.3-7.4-2.3-10.6-2.9c-4.5-0.9-9-1.6-13.5-2.2
										c-10.1-1.3-20.2-1.9-30.3-1.9c-5.4,0-48.2,1.4-46.1,9.3c0.1,0.5,0.5,0.9,1,1c0.3,0.1,0.5,0.1,0.8,0.2
										c1.9,0.4,2.7-2.5,0.8-2.9c2.1,0.5,2.6,0.3,4.8-0.3c1.8-0.5,3.6-0.9,5.4-1.2c4.1-0.8,8.3-1.4,12.4-1.8
										c8.2-0.9,16.3-1.3,24.5-1.2c8.2,0,16.5,0.7,24.6,1.7c4.3,0.5,8.5,1.2,12.8,1.9c1.9,0.3,3.7,0.7,5.6,1.1
										c1.2,0.3,2.5,0.5,3.7,0.8c0.8-1.4,0.3-1.9-1.5-1.7c-15.7-3.4-31.7-5.1-47.7-5.1c-15.1,0-31.1,1.3-45.6,6
										C301.1,794.8,301.8,797.7,303.7,797.1z"/>
								</g>
							</g>
						</g>
					</g>
					<g>
						<g>
							<g>
								<path fill="#E8E8E8" d="M330.4,802.8c11.7-1.1,23.5-1.1,35.3-0.2c1.1,0.1,1.1-1.6,0-1.7c-11.8-0.9-23.5-0.9-35.3,0.2
									C329.4,801.2,329.4,802.9,330.4,802.8L330.4,802.8z"/>
								<g>
									<path fill="#E8E8E8" d="M330.4,804.3c6.5-0.6,13.1-0.8,19.6-0.8c3.3,0,6.5,0.1,9.8,0.3c2.4,0.1,5.2,1,7.4-0.2
										c0.5-0.2,0.7-0.8,0.7-1.3c0-1.4-0.6-2.7-2.2-2.8c-5.9-0.4-11.8-0.6-17.7-0.6c-5.2,0-10.5,0.3-15.7,0.7
										c-2.3,0.2-4.2,0.4-4.2,3c0,0.5,0.3,1.1,0.7,1.3c0.2,0.1,0.5,0.2,0.7,0.4c1.7,0.9,3.2-1.7,1.5-2.6c0.8,1.1,1.9,1.4,3.2,0.8
										c1.3-0.1,2.6-0.2,3.9-0.2c2.6-0.1,5.2-0.2,7.8-0.3c5.9-0.1,11.8,0.1,17.7,0.5c0.4-1.5-0.2-2-2-1.5
										c-1.3-0.1-2.6-0.1-3.9-0.2c-3.3-0.1-6.5-0.2-9.8-0.2c-5.9,0-11.8,0.3-17.6,0.8C328.5,801.5,328.5,804.5,330.4,804.3z"/>
								</g>
							</g>
						</g>
					</g>
					<g>
						<g>
							<g>
								<path fill="#E8E8E8" d="M303.3,807.9c5.5-1.8,11.2-2.9,16.9-3.8c1.1-0.2,0.6-1.8-0.4-1.6c-5.7,0.9-11.4,2-16.9,3.8
									C301.8,806.6,302.3,808.2,303.3,807.9L303.3,807.9z"/>
								<g>
									<path fill="#E8E8E8" d="M303.7,809.3c3-0.9,6-1.7,9-2.4c2.4-0.5,6.1-0.4,8.3-1.6c2.2-1.2,1.3-4.4-1.2-4.4
										c-2.7,0-5.7,0.9-8.3,1.5c-2.6,0.5-7.2,0.9-9.4,2.5c-2,1.5-1.5,4.4,1.2,4.4c1.9,0,1.9-3,0-3c0.4,0.3,0.8,0.6,1.2,0.9
										c0.9-0.3,1.7-0.5,2.6-0.7c1.3-0.4,2.6-0.7,3.9-1c2.6-0.6,5.2-1.1,7.9-1.5c-0.1-0.4-0.2-0.9-0.4-1.3
										c-0.9,0.1-1.8,0.3-2.6,0.4c-1.3,0.2-2.6,0.5-3.9,0.8c-3.1,0.6-6.1,1.4-9,2.4C301.1,807,301.8,809.9,303.7,809.3z"/>
								</g>
							</g>
						</g>
					</g>
					<g>
						<g>
							<g>
								<path fill="#E8E8E8" d="M303.3,820.1c8.3-2.8,17.4-4,26.1-4.9c23.4-2.4,47.2-0.3,70.1,4.9c1,0.2,1.5-1.4,0.4-1.6
									c-22.9-5.2-46.5-7.3-69.9-5.1c-9.1,0.9-18.5,2.1-27.2,5.1C301.8,818.8,302.3,820.4,303.3,820.1L303.3,820.1z"/>
								<g>
									<path fill="#E8E8E8" d="M303.7,821.5c17.2-5.6,36.3-6.4,54.3-5.7c9.4,0.4,18.8,1.5,28,3c4.4,0.7,8.7,1.6,13.1,2.6
										c1.6,0.4,2.5-0.7,2.9-2.1c0.1-0.5,0-1.1-0.4-1.5c-2.4-2.3-7.4-2.3-10.6-2.9c-4.5-0.9-9-1.6-13.5-2.2
										c-10.1-1.3-20.2-1.9-30.3-1.9c-5.4,0-48.2,1.4-46.1,9.3c0.1,0.5,0.5,0.9,1,1c0.3,0.1,0.5,0.1,0.8,0.2
										c1.9,0.4,2.7-2.5,0.8-2.9c2.1,0.5,2.6,0.3,4.8-0.3c1.8-0.5,3.6-0.9,5.4-1.2c4.1-0.8,8.3-1.4,12.4-1.8
										c8.2-0.9,16.3-1.3,24.5-1.2c8.2,0,16.5,0.7,24.6,1.6c4.3,0.5,8.5,1.2,12.8,1.9c1.9,0.3,3.7,0.7,5.6,1.1
										c1.2,0.3,2.5,0.5,3.7,0.8c0.8-1.4,0.3-1.9-1.5-1.7c-15.7-3.4-31.7-5.1-47.7-5.1c-15.1,0-31.1,1.3-45.6,6
										C301.1,819.2,301.8,822.1,303.7,821.5z"/>
								</g>
							</g>
						</g>
					</g>
				</g>
				<g>
					<g>
						<g>
							<g>
								<g>
									<path fill="#D1D1D1" d="M519.1,707.1c-11.6-3.3-23.4-5.1-35.4-5.8c-6.2-0.4-12.5-0.3-18.7,0c-2.7,0.1-7.8-0.8-7.8,3.1
										c0,0.5,0.3,1,0.7,1.3c1.7,0.9,3.3,0.5,5.2,0.4c3.7-0.2,7.4-0.3,11.2-0.3c7.9,0,15.8,0.5,23.7,1.6c3.7,0.5,7.3,1.2,11,2
										c2.9,0.6,6.5,2.4,9.4,2.4c2.6,0,3-2.6,1.5-4.2c-1.3-1.4-3.4,0.7-2.1,2.1c-1.6-1.7-2-1.7-4.4-2.4c-2.4-0.6-4.8-1.1-7.3-1.6
										c-4.4-0.9-8.8-1.5-13.3-2c-9.9-1.1-19.8-1.1-29.7-0.7c-1.7-0.5-2.3,0-1.8,1.4c1.2-0.1,2.5-0.1,3.7-0.2
										c2.5-0.1,5-0.2,7.5-0.2c5-0.1,10,0.1,15,0.5c10.5,0.7,20.8,2.6,30.9,5.4C520.2,710.5,521,707.6,519.1,707.1z"/>
								</g>
							</g>
						</g>
					</g>
					<g>
						<g>
							<g>
								<g>
									<path fill="#D1D1D1" d="M495.7,714.6c-8.3-1-16.6-1.5-25-1.4c-3.7,0-8.4-0.5-11.9,0.5c-1.5,0.4-1.8,1.4-1.8,2.7
										c0,0.5,0.3,1,0.7,1.3c2.2,1.2,4.9,0.4,7.2,0.3c3.8-0.2,7.7-0.2,11.5-0.1s7.7,0.3,11.5,0.6c2.8,0.2,6.5,1.5,9.1,0.3
										c0.5-0.2,0.7-0.8,0.7-1.3c0-1.5-0.3-1.8-1.4-2.6c-1.6-1.2-3,1.5-1.5,2.6c-0.6-1.3-1.6-1.9-3.1-1.6
										c-1.3-0.1-2.6-0.3-3.8-0.4c-3.2-0.3-6.4-0.4-9.6-0.6c-5.8-0.2-11.6-0.1-17.3,0.2c-0.4,1.6,0.2,2,1.9,1.2
										c1.3-0.1,2.6-0.1,3.9-0.1c3.2-0.1,6.4-0.1,9.6,0c6.4,0.1,12.8,0.6,19.2,1.4C497.7,717.9,497.6,714.9,495.7,714.6z"/>
								</g>
							</g>
						</g>
					</g>
					<g>
						<g>
							<g>
								<g>
									<path fill="#D1D1D1" d="M519.1,719.3c-2.2-0.7-4.5-1.3-6.8-1.8c-2.1-0.5-4.6-1.4-6.8-1.2c-2.3,0.2-2.7,3.4-0.7,4.4
										c1.8,0.9,4.4,0.9,6.3,1.4c2.3,0.5,4.9,1.8,7.2,1.9c2.7,0.1,3.2-3.1,1.2-4.4c-1.6-1.1-3.1,1.5-1.5,2.6
										c-0.1-0.5-0.2-1-0.2-1.4c-0.6-0.2-1.3-0.4-1.9-0.6c-1-0.3-1.9-0.5-2.9-0.8c-2-0.5-3.9-0.9-5.9-1.3
										c-0.1,0.4-0.2,0.9-0.4,1.3c0.7,0.1,1.3,0.3,2,0.4c1,0.2,2,0.4,3,0.6c2.3,0.5,4.6,1.1,6.8,1.8
										C520.2,722.8,521,719.9,519.1,719.3z"/>
								</g>
							</g>
						</g>
					</g>
					<g>
						<g>
							<g>
								<g>
									<path fill="#D1D1D1" d="M471.3,725.5c-9.6,0.1-19.2,0.8-28.8,2.1c-4,0.5-7.9,1.2-11.8,1.9c-3.1,0.6-8.3,0.6-10.7,2.9
										c-0.4,0.4-0.5,0.9-0.4,1.5c1,3.8,5.8,1.4,8.5,0.9c8-1.7,16-2.8,24.1-3.6c3.2-0.3,6.3-0.5,9.5-0.7c3-0.2,7,0.5,9.9-0.3
										c2.5-0.7,2.2-3.3,0.4-4.4c-1.7-1-3.2,1.6-1.5,2.6c-2-1.2-2.5-1.1-5-1c-1.9,0.1-3.8,0.2-5.7,0.3c-3.8,0.2-7.6,0.6-11.4,1
										c-7.7,0.8-15.4,2.1-23,3.7c-2.8,0.6-2.1,1.8,0.4,1.3c1.9-0.4,3.8-0.8,5.7-1.1c4.9-0.9,9.9-1.7,14.8-2.3
										c8.3-1,16.6-1.5,25-1.6C473.2,728.5,473.2,725.5,471.3,725.5z"/>
								</g>
							</g>
						</g>
					</g>
					<g>
						<g>
							<g>
								<g>
									<path fill="#D1D1D1" d="M519.1,731.5c-6.8-2.1-13.7-3.4-20.8-4.3c-3.8-0.5-7.5-0.8-11.3-1.1c-2.3-0.2-5-0.9-7.2,0.2
										c-0.5,0.2-0.7,0.8-0.7,1.3c0,1.3,0.4,2.3,1.8,2.7c4.1,1.1,9.3,0.7,13.5,1.1c4.8,0.5,9.6,1.3,14.4,2.2
										c3.2,0.7,7.5,3,10.7,2.2c0.5-0.1,0.9-0.6,1-1c0.4-1.4,0.2-1.8-0.7-2.9c-1.3-1.4-3.4,0.7-2.1,2.1c-0.3-1.4-1.2-2-2.6-2
										c-1.2-0.3-2.4-0.6-3.6-0.9c-3-0.7-6.1-1.3-9.2-1.8c-5.7-0.9-11.4-1.4-17.2-1.8c-1.7-0.7-2.3-0.3-1.9,1.2
										c1.9,0.1,3.8,0.3,5.7,0.4c3.2,0.2,6.3,0.6,9.4,1c6.8,0.8,13.5,2.3,20,4.2C520.2,735,521,732.1,519.1,731.5z"/>
								</g>
							</g>
						</g>
					</g>
					<g>
						<g>
							<g>
								<g>
									<path fill="#D1D1D1" d="M519.1,743.7c-15.9-5.2-33.4-6.2-49.9-6c-8.4,0.1-16.9,0.8-25.3,1.9c-4.4,0.6-8.9,1.3-13.3,2.1
										c-3.1,0.6-8.3,0.6-10.6,2.9c-0.4,0.4-0.5,0.9-0.4,1.5c0.4,1.3,1,2.1,2.5,2.1c4.2,0,9.2-1.9,13.4-2.7
										c9.8-1.7,19.7-2.7,29.6-3.1c9.4-0.4,18.8,0,28.2,0.9c5.3,0.5,10.6,1.3,15.8,2.4c3.1,0.7,7.2,2.9,10.3,2.2
										c0.5-0.1,0.9-0.6,1-1c0.4-1.4,0.2-1.8-0.7-2.9c-1.3-1.5-3.4,0.7-2.1,2.1c-0.2-0.5-0.5-1-0.7-1.5c-1.2-0.4-2.3-0.7-3.5-1
										c-1.8-0.5-3.5-0.8-5.3-1.2c-3.1-0.6-6.3-1.1-9.4-1.5c-8-1.1-16.1-1.5-24.2-1.7c-15.9-0.2-31.8,1.6-47.3,4.7
										c-0.6,0.1-1.2,0.3-1.9,0.4c-1.8-0.2-2.3,0.3-1.5,1.7c1.9-0.4,3.8-0.8,5.6-1.2c4.4-0.9,8.8-1.6,13.2-2.2
										c8.7-1.3,17.6-1.9,26.4-2.1c16.3-0.3,33.6,0.8,49.2,5.9C520.2,747.2,521,744.3,519.1,743.7z"/>
								</g>
							</g>
						</g>
					</g>
					<g>
						<g>
							<g>
								<g>
									<path fill="#D1D1D1" d="M436.1,753c-2.7,0.5-5.3,0.9-8,1.5c-2.1,0.4-5.4,0.5-7.2,1.6c-2.3,1.4-1.3,4.2,1.2,4.4
										c2.1,0.2,5.1-1.1,7.2-1.5c2.7-0.5,5.3-1,8-1.5c2.7-0.5,1.8-4.2-0.4-4.5c-1.9-0.3-2.7,2.6-0.8,2.9c-0.2-0.4-0.5-0.7-0.7-1.1
										c-0.8,0.1-1.5,0.3-2.3,0.4c-1.1,0.2-2.3,0.4-3.4,0.6c-2.3,0.4-4.6,0.9-6.8,1.4c0.1,0.4,0.2,0.9,0.4,1.3
										c0.8-0.2,1.5-0.3,2.3-0.5c1.1-0.2,2.3-0.5,3.4-0.7c2.7-0.5,5.3-1,8-1.5C438.8,755.6,438,752.7,436.1,753z"/>
								</g>
							</g>
						</g>
					</g>
					<g>
						<g>
							<g>
								<g>
									<path fill="#D1D1D1" d="M474.4,749.9c-7.1,0-14.2,0.3-21.4,0.9c-2.7,0.2-8-0.5-8,3.4c0,0.5,0.3,1.1,0.7,1.3
										c2.6,1.3,6.4,0,9.2-0.2c5.2-0.4,10.3-0.6,15.5-0.7c1.6,0,4.8,0.7,5.9-1.2c0.8-1.4-0.1-2.6-1.3-3.3c-1.7-1-3.2,1.6-1.5,2.6
										c-2-1.2-2.6-1.1-5.1-1.1c-1.9,0-3.9,0.1-5.8,0.2c-4.5,0.2-9.1,0.6-13.6,1c0,0.4,0,0.9,0,1.3c1.3-0.1,2.6-0.3,3.9-0.4
										c2.6-0.2,5.2-0.4,7.8-0.6c4.5-0.3,9.1-0.3,13.6-0.3C476.3,752.9,476.3,749.9,474.4,749.9z"/>
								</g>
							</g>
						</g>
					</g>
					<g>
						<g>
							<g>
								<g>
									<path fill="#D1D1D1" d="M519.1,755.9c-6.8-1.9-13.6-3.4-20.6-4.4c-4-0.6-11.5-2.7-15.2-0.7c-0.5,0.3-0.7,0.8-0.7,1.3
										c0,2.6,1.9,2.8,4.1,2.9c6.8,0.4,13.5,1.3,20.2,2.6c3.6,0.7,9,3.5,12.6,2.5c2-0.5,1.2-2.9,0.3-3.9c-1.3-1.4-3.4,0.7-2.1,2.1
										c-0.3-1.4-1.2-2-2.6-1.9c-1.2-0.3-2.4-0.6-3.7-0.9c-2.4-0.6-4.9-1.1-7.4-1.5c-5.1-0.9-10.2-1.5-15.4-1.9
										c-1.7-0.7-2.3-0.3-1.9,1.2c1.3,0.1,2.5,0.2,3.8,0.3c3.7,0.3,7.3,0.8,11,1.3c5.7,0.9,11.3,2.2,16.8,3.8
										C520.2,759.4,521,756.5,519.1,755.9z"/>
								</g>
							</g>
						</g>
					</g>
					<g>
						<g>
							<g>
								<g>
									<path fill="#D1D1D1" d="M519.1,768.2c-15.9-5.2-33.4-6.2-49.9-6c-8.4,0.1-16.9,0.8-25.3,1.9c-4.4,0.6-8.9,1.3-13.3,2.1
										c-3.1,0.6-8.3,0.6-10.6,2.9c-0.4,0.4-0.5,0.9-0.4,1.5c0.4,1.3,1,2.1,2.5,2.1c4.2,0,9.2-1.9,13.4-2.7
										c9.8-1.7,19.7-2.7,29.6-3.1c9.4-0.4,18.8,0,28.2,0.9c5.3,0.5,10.6,1.3,15.8,2.4c3.1,0.7,7.2,3,10.3,2.2
										c0.5-0.1,0.9-0.6,1-1c0.4-1.4,0.2-1.8-0.7-2.9c-1.3-1.5-3.4,0.7-2.1,2.1c-0.2-0.5-0.5-1-0.7-1.5c-1.2-0.4-2.3-0.7-3.5-1
										c-1.8-0.5-3.5-0.8-5.3-1.2c-3.1-0.6-6.3-1.1-9.4-1.5c-8-1.1-16.1-1.5-24.2-1.7c-15.9-0.2-31.8,1.6-47.3,4.7
										c-0.6,0.1-1.2,0.3-1.9,0.4c-1.8-0.2-2.3,0.3-1.5,1.7c1.9-0.4,3.8-0.8,5.6-1.2c4.4-0.9,8.8-1.6,13.2-2.2
										c8.7-1.3,17.6-1.9,26.4-2.1c16.3-0.3,33.6,0.8,49.2,5.9C520.2,771.6,521,768.8,519.1,768.2z"/>
								</g>
							</g>
						</g>
					</g>
					<g>
						<g>
							<g>
								<g>
									<path fill="#D1D1D1" d="M488,774.9c-12.1-0.8-24.1-0.7-36.2,0.5c-5.8,0.5-11.6,1.4-17.4,2.3c-3.9,0.7-11.4,0.7-14.3,3.6
										c-0.4,0.4-0.5,0.9-0.4,1.5c1,3.8,5.8,1.4,8.4,0.9c7.3-1.5,14.7-2.6,22.1-3.4c6.9-0.8,13.8-1.1,20.8-1.2
										c3.8,0,7.6,0.1,11.4,0.2c2.4,0.1,5,0.9,7.2-0.2c0.5-0.2,0.7-0.8,0.7-1.3c0-1.4-0.3-1.8-1.5-2.6c-1.6-1.1-3.1,1.5-1.5,2.6
										c-0.6-1.3-1.6-1.7-3-1.4c-1.3-0.1-2.5-0.1-3.8-0.2c-2.5-0.1-5.1-0.1-7.6-0.1c-5.7,0-11.4,0.2-17,0.7
										c-10.2,0.8-20.4,2.3-30.4,4.4c-1.8-0.2-2.3,0.3-1.5,1.7c1.2-0.3,2.5-0.5,3.7-0.8c2.5-0.5,5-1,7.5-1.4
										c6.1-1.1,12.3-1.8,18.5-2.4c11.4-1.1,22.9-1.1,34.3-0.3C489.9,778.1,489.9,775.1,488,774.9z"/>
								</g>
							</g>
						</g>
					</g>
					<g>
						<g>
							<g>
								<g>
									<path fill="#D1D1D1" d="M519.1,780.4c-6.7-2.1-13.5-3.3-20.4-4.3c-2.8-0.4-3.9,2.9-1.6,4.3c2.1,1.3,6.7,1.1,9.2,1.5
										c3.4,0.6,6.8,1.5,10.1,2.4c1.2,0.4,2.9,1,3.8-0.3c0.9-1.2,0.7-2.4-0.4-3.4c-1.5-1.3-3.6,0.9-2.1,2.1
										c-0.1-0.4-0.3-0.9-0.4-1.3c-1-0.3-1.9-0.6-2.9-0.8c-1.4-0.4-2.9-0.7-4.3-1c-3.4-0.8-6.8-1.3-10.3-1.8
										c-0.1,0.4-0.2,0.9-0.4,1.3c1,0.1,2,0.3,2.9,0.4c2,0.3,3.9,0.7,5.9,1c3.4,0.7,6.8,1.5,10.1,2.6
										C520.2,783.8,521,780.9,519.1,780.4z"/>
								</g>
							</g>
						</g>
					</g>
					<g>
						<g>
							<g>
								<g>
									<path fill="#D1D1D1" d="M519.1,792.6c-15.9-5.2-33.4-6.2-49.9-6c-8.4,0.1-16.9,0.8-25.3,1.9c-4.4,0.6-8.9,1.3-13.3,2.1
										c-3.1,0.6-8.3,0.6-10.6,2.9c-0.4,0.4-0.5,0.9-0.4,1.5c0.4,1.3,1,2.1,2.5,2.1c4.2,0,9.2-1.9,13.4-2.7
										c9.8-1.7,19.7-2.7,29.6-3.1c9.4-0.4,18.8,0,28.2,0.9c5.3,0.5,10.6,1.3,15.8,2.4c3.1,0.7,7.2,2.9,10.3,2.2
										c0.5-0.1,0.9-0.6,1-1c0.4-1.4,0.2-1.8-0.7-2.9c-1.3-1.5-3.4,0.7-2.1,2.1c-0.2-0.5-0.5-1-0.7-1.5c-1.2-0.4-2.3-0.7-3.5-1
										c-1.8-0.5-3.5-0.8-5.3-1.2c-3.1-0.6-6.3-1.1-9.4-1.5c-8-1.1-16.1-1.5-24.2-1.7c-15.9-0.2-31.8,1.6-47.3,4.7
										c-0.6,0.1-1.2,0.3-1.9,0.4c-1.8-0.2-2.3,0.3-1.5,1.7c1.9-0.4,3.8-0.8,5.6-1.2c4.4-0.9,8.8-1.6,13.2-2.2
										c8.7-1.3,17.6-1.9,26.4-2.1c16.3-0.3,33.6,0.8,49.2,5.9C520.2,796.1,521,793.2,519.1,792.6z"/>
								</g>
							</g>
						</g>
					</g>
					<g>
						<g>
							<g>
								<g>
									<path fill="#D1D1D1" d="M491.2,799.7c-8.5-0.7-17-1-25.5-0.7c-3,0.1-12-1.4-12,3.3c0,0.5,0.3,1.1,0.7,1.3
										c2.2,1.2,5,0.3,7.4,0.2c3.9-0.2,7.8-0.3,11.8-0.3c3.9,0,7.8,0.2,11.8,0.4c2.4,0.1,5.1,1,7.3-0.1c0.5-0.2,0.7-0.8,0.7-1.3
										c0-1.4-0.3-1.8-1.5-2.6c-1.6-1.1-3.1,1.5-1.5,2.6c-0.7-1.3-1.7-1.8-3.2-1.5c-1.3-0.1-2.6-0.2-3.9-0.2
										c-2.6-0.1-5.2-0.2-7.8-0.3c-5.9-0.1-11.8,0.1-17.7,0.5c-0.4,1.6,0.2,2,2,1.2c1.3-0.1,2.6-0.1,3.9-0.2
										c3.3-0.1,6.5-0.2,9.8-0.2c5.9,0,11.8,0.3,17.6,0.8C493.1,802.8,493.1,799.8,491.2,799.7z"/>
								</g>
							</g>
						</g>
					</g>
					<g>
						<g>
							<g>
								<g>
									<path fill="#D1D1D1" d="M519.1,804.8c-3-0.9-6-1.7-9-2.4c-2.6-0.6-5.6-1.5-8.3-1.5c-2.5,0-3.4,3.2-1.2,4.4
										c2.1,1.1,5.8,1.1,8.3,1.6c1.7,0.4,3.5,0.8,5.2,1.2c1.3,0.3,2.9,1.2,4.2,1.2c2.7,0,3.2-2.9,1.2-4.4
										c-1.6-1.1-3.1,1.5-1.5,2.6c-0.2-0.5-0.4-1-0.6-1.5c-0.9-0.3-1.7-0.5-2.6-0.7c-1.3-0.4-2.6-0.7-3.9-1
										c-2.6-0.6-5.2-1.1-7.9-1.5c-0.1,0.4-0.2,0.9-0.4,1.3c0.9,0.1,1.8,0.3,2.6,0.4c1.3,0.2,2.6,0.5,3.9,0.8
										c3.1,0.6,6.1,1.4,9,2.4C520.2,808.3,521,805.4,519.1,804.8z"/>
								</g>
							</g>
						</g>
					</g>
					<g>
						<g>
							<g>
								<g>
									<path fill="#D1D1D1" d="M519.1,817c-15.9-5.2-33.4-6.2-49.9-6c-8.4,0.1-16.9,0.8-25.3,1.9c-4.4,0.6-8.9,1.3-13.3,2.1
										c-3.1,0.6-8.3,0.6-10.6,2.9c-0.4,0.4-0.5,0.9-0.4,1.5c0.4,1.3,1,2.1,2.5,2.1c4.2,0,9.2-1.9,13.4-2.7
										c9.8-1.7,19.7-2.7,29.6-3.1c9.4-0.4,18.8,0,28.2,0.9c5.3,0.5,10.6,1.3,15.8,2.4c3.1,0.7,7.2,2.9,10.3,2.2
										c0.5-0.1,0.9-0.6,1-1c0.4-1.4,0.2-1.8-0.7-2.9c-1.3-1.5-3.4,0.7-2.1,2.1c-0.2-0.5-0.5-1-0.7-1.5c-1.2-0.4-2.3-0.7-3.5-1
										c-1.8-0.5-3.5-0.8-5.3-1.2c-3.1-0.6-6.3-1.1-9.4-1.5c-8-1.1-16.1-1.5-24.2-1.7c-15.9-0.2-31.8,1.6-47.3,4.7
										c-0.6,0.1-1.2,0.3-1.9,0.4c-1.8-0.2-2.3,0.3-1.5,1.7c1.9-0.4,3.8-0.8,5.6-1.2c4.4-0.9,8.8-1.6,13.2-2.2
										c8.7-1.3,17.6-1.9,26.4-2.1c16.3-0.3,33.6,0.8,49.2,5.9C520.2,820.5,521,817.6,519.1,817z"/>
								</g>
							</g>
						</g>
					</g>
				</g>
			</g>
			<g>
				<g>
					<rect x="321.5" y="305.2" fill="#3A3E54" width="169" height="226.3"/>
				</g>
				<g>
					<rect x="321.5" y="521.9" fill="#3A3E54" width="169" height="9.5"/>
				</g>
				<g>
					<rect x="336.6" y="319.3" fill="#FFDCD8" width="143.2" height="200.4"/>
				</g>
				<g>
					<rect x="331.6" y="314.2" fill="#FFDCD8" width="143.2" height="200.4"/>
				</g>
				<g>
					<rect x="331.6" y="505.7" fill="#F7CBC9" width="143.2" height="9"/>
				</g>
				<g>
					<path fill="#FFFFFF" d="M392.8,353.6c0-2.8-2.3-5.1-5.1-5.1h-31.3c-2.8,0-5.1,2.3-5.1,5.1v3.8c0,2.8,2.3,5.1,5.1,5.1h31.3
						c2.8,0,5.1-2.3,5.1-5.1V353.6z"/>
				</g>
				<g>
					<path fill="#FFFFFF" d="M452.3,353.4c0-2.8-3.3-5-6.8-5h-38.2c-3.5,0-6.1,2.1-6.1,5v3.6c0,2.8,2.6,4.9,6.1,4.9h38.2
						c3.5,0,6.8-2.1,6.8-4.9V353.4z"/>
				</g>
				<g>
					<g>
						<path fill="#FFFFFF" d="M357.1,389.6l-1.9,6.1h-4.1l6.9-21.6h5l7,21.6h-4.2l-2-6.1H357.1z M363.2,386.6l-1.7-5.3
							c-0.4-1.3-0.8-2.8-1.1-4h-0.1c-0.3,1.2-0.6,2.8-1,4l-1.7,5.3H363.2z"/>
					</g>
					<g>
						<path fill="#FFFFFF" d="M373.1,374.4c1.2-0.3,3.5-0.4,5.7-0.4c2.9,0,4.7,0.4,6.2,1.4c1.3,0.8,2.2,2.2,2.2,4
							c0,2-1.2,3.8-3.6,4.7v0.1c2.3,0.6,4.4,2.4,4.4,5.3c0,1.9-0.8,3.4-2.1,4.4c-1.5,1.3-4.1,2-8,2c-2.2,0-3.8-0.2-4.8-0.3V374.4z
							 M377,382.9h2c2.7,0,4.3-1.3,4.3-3.1c0-2-1.5-2.9-4-2.9c-1.2,0-1.8,0.1-2.2,0.2V382.9z M377,392.8c0.5,0.1,1.2,0.1,2.1,0.1
							c2.5,0,4.8-1,4.8-3.6c0-2.5-2.2-3.5-4.9-3.5h-2V392.8z"/>
					</g>
					<g>
						<path fill="#FFFFFF" d="M407,395c-0.9,0.5-3,1-5.6,1c-6.8,0-11-4.3-11-10.8c0-7.1,4.9-11.4,11.5-11.4c2.6,0,4.4,0.5,5.2,1
							l-0.9,3.1c-1-0.4-2.4-0.8-4.2-0.8c-4.4,0-7.6,2.8-7.6,7.9c0,4.7,2.8,7.8,7.5,7.8c1.6,0,3.3-0.3,4.3-0.8L407,395z"/>
					</g>
				</g>
				<g>
					<rect x="351.2" y="406.8" fill="#FFFFFF" width="20.2" height="20.2"/>
				</g>
				<g>
					<rect x="351.2" y="434.9" fill="#FFFFFF" width="20.2" height="20.2"/>
				</g>
				<g>
					<rect x="351.2" y="464.1" fill="#FFFFFF" width="20.2" height="19.7"/>
				</g>
				<g>
					<path fill="#FFFFFF" d="M447.2,416.1c0-1.7-1.4-3.1-3.1-3.1h-60.1c-1.7,0-3.1,1.4-3.1,3.1v0c0,1.7,1.4,3.1,3.1,3.1h60.1
						C445.8,419.2,447.2,417.8,447.2,416.1L447.2,416.1z"/>
				</g>
				<g>
					<path fill="#FFFFFF" d="M447.2,473.9c0-1.7-1.4-3.1-3.1-3.1h-60.1c-1.7,0-3.1,1.4-3.1,3.1v0c0,1.7,1.4,3.1,3.1,3.1h60.1
						C445.8,477,447.2,475.6,447.2,473.9L447.2,473.9z"/>
				</g>
				<g>
					<path fill="#FFFFFF" d="M413.6,443.6c0-1.7-0.7-3.1-1.5-3.1H382c-0.9,0-1.5,1.4-1.5,3.1l0,0c0,1.7,0.7,3.1,1.5,3.1H412
						C412.9,446.7,413.6,445.3,413.6,443.6L413.6,443.6z"/>
				</g>
				<g>
					<path fill="#FFFFFF" d="M445.1,443.6c0-1.7-0.5-3.1-1-3.1h-20.4c-0.6,0-1,1.4-1,3.1l0,0c0,1.7,0.5,3.1,1,3.1H444
						C444.6,446.7,445.1,445.3,445.1,443.6L445.1,443.6z"/>
				</g>
				<g>
					<path fill="#C1C1C1" d="M420,309.9l-20.3-2.4l-20.5,2.4l2.3-2.9c0.1-0.1,11.6-14.8,4.6-23.4c-1.6-1.9-2.1-4.2-1.4-6.5
						c1-3.5,4.9-6.9,9.5-8.5c0.3-0.1,2.7-0.8,4.1-0.7c1.4-0.1,3.8,0.6,4.1,0.7c4.3,1.4,9.5,4.9,10.8,9.1c0.6,2.1,0.2,4.1-1.2,5.8
						c-7,8.5,5.3,23.2,5.5,23.4L420,309.9z M398.2,270.9c-0.7,0-2.2,0.4-2.9,0.6c-3.7,1.2-6.8,3.8-7.5,6.4c-0.4,1.3-0.1,2.5,0.8,3.7
						c3.6,4.4,3.9,10.6,0.9,17.9c-1.1,2.6-2.4,4.9-3.4,6.5l13.7-1.6l13.1,1.6c-1.1-1.7-2.5-3.9-3.7-6.4c-3.4-7.3-3.2-13.5,0.4-17.9
						c0.8-0.9,1-1.9,0.7-3c-0.8-2.6-4.5-5.7-8.7-7c-0.8-0.2-2.3-0.6-3-0.6l-0.1,0L398.2,270.9C398.2,270.9,398.2,270.9,398.2,270.9z
						"/>
				</g>
				<g>
					<path fill="#1B3249" d="M425.9,300.8c0-2.8-2.3-5.1-5.1-5.1h-40.8c-2.8,0-5.1,2.3-5.1,5.1v14.4c0,2.8,2.3,5.1,5.1,5.1h40.8
						c2.8,0,5.1-2.3,5.1-5.1V300.8z"/>
				</g>
				<g>
					<g>
						<circle fill="#284360" cx="387.4" cy="306.9" r="2.8"/>
					</g>
					<g>
						<circle fill="#284360" cx="412" cy="306.9" r="2.8"/>
					</g>
				</g>
			</g>
			<g>
				<g>
					<g>
						<path fill="#FFBF61" d="M483.6,573.9H285.9V383.5L483.6,573.9z M307.7,552.1H427L307.7,437.3V552.1z"/>
					</g>
				</g>
				<g>
					<g>

							<rect x="426.3" y="523.7" transform="matrix(0.7185 0.6955 -0.6955 0.7185 488.8441 -148.0238)" fill="#FFFFFF" width="2.1" height="12.4"/>
					</g>
					<g>

							<rect x="419.1" y="517.9" transform="matrix(0.7186 0.6954 -0.6954 0.7186 484.7002 -143.8384)" fill="#FFFFFF" width="2.1" height="18.3"/>
					</g>
					<g>

							<rect x="416" y="513.7" transform="matrix(0.7185 0.6955 -0.6955 0.7185 478.9928 -143.661)" fill="#FFFFFF" width="2.1" height="12.4"/>
					</g>
					<g>

							<rect x="408.8" y="507.9" transform="matrix(0.718 0.696 -0.696 0.718 475.4075 -139.4198)" fill="#FFFFFF" width="2.1" height="18.3"/>
					</g>
					<g>

							<rect x="405.6" y="503.7" transform="matrix(0.718 0.696 -0.696 0.718 469.5847 -139.2555)" fill="#FFFFFF" width="2.1" height="12.4"/>
					</g>
					<g>

							<rect x="398.4" y="497.9" transform="matrix(0.718 0.696 -0.696 0.718 465.5464 -135.0569)" fill="#FFFFFF" width="2.1" height="18.3"/>
					</g>
					<g>

							<rect x="395.3" y="493.8" transform="matrix(0.718 0.696 -0.696 0.718 459.723 -134.8928)" fill="#FFFFFF" width="2.1" height="12.4"/>
					</g>
					<g>

							<rect x="388.1" y="487.9" transform="matrix(0.718 0.696 -0.696 0.718 455.6852 -130.6938)" fill="#FFFFFF" width="2.1" height="18.3"/>
					</g>
					<g>

							<rect x="385" y="483.8" transform="matrix(0.7182 0.6959 -0.6959 0.7182 449.7597 -130.54)" fill="#FFFFFF" width="2.1" height="12.4"/>
					</g>
					<g>

							<rect x="377.8" y="477.9" transform="matrix(0.7185 0.6955 -0.6955 0.7185 445.4059 -126.3765)" fill="#FFFFFF" width="2.1" height="18.3"/>
					</g>
					<g>

							<rect x="374.7" y="473.8" transform="matrix(0.7186 0.6954 -0.6954 0.7186 439.4875 -126.2206)" fill="#FFFFFF" width="2.1" height="12.4"/>
					</g>
					<g>

							<rect x="367.5" y="468" transform="matrix(0.718 0.696 -0.696 0.718 435.9633 -121.9674)" fill="#FFFFFF" width="2.1" height="18.3"/>
					</g>
					<g>

							<rect x="364.4" y="463.8" transform="matrix(0.7182 0.6959 -0.6959 0.7182 430.0425 -121.8138)" fill="#FFFFFF" width="2.1" height="12.4"/>
					</g>
					<g>

							<rect x="357.2" y="458" transform="matrix(0.7184 0.6956 -0.6956 0.7184 425.8061 -117.6387)" fill="#FFFFFF" width="2.1" height="18.3"/>
					</g>
					<g>

							<rect x="354.1" y="453.8" transform="matrix(0.7184 0.6956 -0.6956 0.7184 419.9869 -117.4734)" fill="#FFFFFF" width="2.1" height="12.4"/>
					</g>
					<g>

							<rect x="346.9" y="448" transform="matrix(0.7183 0.6958 -0.6958 0.7183 416.0493 -113.2644)" fill="#FFFFFF" width="2.1" height="18.3"/>
					</g>
					<g>

							<rect x="343.7" y="443.8" transform="matrix(0.7182 0.6959 -0.6959 0.7182 410.3218 -113.0881)" fill="#FFFFFF" width="2.1" height="12.4"/>
					</g>
					<g>

							<rect x="336.5" y="438" transform="matrix(0.7182 0.6959 -0.6959 0.7182 406.2852 -108.8905)" fill="#FFFFFF" width="2.1" height="18.3"/>
					</g>
					<g>

							<rect x="333.4" y="433.8" transform="matrix(0.7183 0.6958 -0.6958 0.7183 400.3697 -108.7363)" fill="#FFFFFF" width="2.1" height="12.4"/>
					</g>
					<g>

							<rect x="326.2" y="428" transform="matrix(0.7182 0.6959 -0.6959 0.7182 396.4293 -104.5269)" fill="#FFFFFF" width="2.1" height="18.3"/>
					</g>
					<g>

							<rect x="323.1" y="423.8" transform="matrix(0.7183 0.6958 -0.6958 0.7183 390.5134 -104.3738)" fill="#FFFFFF" width="2.1" height="12.4"/>
					</g>
					<g>

							<rect x="315.9" y="418" transform="matrix(0.7183 0.6958 -0.6958 0.7183 386.4773 -100.1761)" fill="#FFFFFF" width="2.1" height="18.3"/>
					</g>
				</g>
			</g>
			<g>
				<g>
					<rect x="291.2" y="604.6" fill="#FFBF61" width="188.2" height="32.2"/>
				</g>
				<g>
					<g>
						<rect x="465.1" y="607.6" fill="#FFFFFF" width="2.2" height="12"/>
					</g>
					<g>
						<rect x="456.9" y="607.6" fill="#FFFFFF" width="2.2" height="18.7"/>
					</g>
					<g>
						<rect x="450.1" y="607.6" fill="#FFFFFF" width="2.2" height="12"/>
					</g>
					<g>
						<rect x="442.6" y="607.6" fill="#FFFFFF" width="1.5" height="18.7"/>
					</g>
					<g>
						<rect x="435.9" y="607.6" fill="#FFFFFF" width="1.5" height="12"/>
					</g>
					<g>
						<rect x="428.4" y="607.6" fill="#FFFFFF" width="1.5" height="18.7"/>
					</g>
					<g>
						<rect x="420.9" y="607.6" fill="#FFFFFF" width="2.2" height="12"/>
					</g>
					<g>
						<rect x="413.4" y="607.6" fill="#FFFFFF" width="2.2" height="18.7"/>
					</g>
					<g>
						<rect x="405.9" y="607.6" fill="#FFFFFF" width="2.2" height="12"/>
					</g>
					<g>
						<rect x="399.9" y="607.6" fill="#FFFFFF" width="2.2" height="18.7"/>
					</g>
					<g>
						<rect x="392.4" y="607.6" fill="#FFFFFF" width="2.2" height="12"/>
					</g>
					<g>
						<rect x="384.9" y="607.6" fill="#FFFFFF" width="2.2" height="18.7"/>
					</g>
					<g>
						<rect x="378.2" y="607.6" fill="#FFFFFF" width="1.5" height="12"/>
					</g>
					<g>
						<rect x="371.4" y="607.6" fill="#FFFFFF" width="1.5" height="18.7"/>
					</g>
					<g>
						<rect x="363.2" y="607.6" fill="#FFFFFF" width="2.2" height="12"/>
					</g>
					<g>
						<rect x="355.7" y="607.6" fill="#FFFFFF" width="2.2" height="18.7"/>
					</g>
					<g>
						<rect x="348.9" y="607.6" fill="#FFFFFF" width="2.2" height="12"/>
					</g>
					<g>
						<rect x="342.2" y="607.6" fill="#FFFFFF" width="2.2" height="18.7"/>
					</g>
					<g>
						<rect x="334.7" y="607.6" fill="#FFFFFF" width="2.2" height="12"/>
					</g>
					<g>
						<rect x="327.2" y="607.6" fill="#FFFFFF" width="2.2" height="18.7"/>
					</g>
					<g>
						<rect x="321.2" y="607.6" fill="#FFFFFF" width="1.5" height="12"/>
					</g>
					<g>
						<rect x="313.7" y="607.6" fill="#FFFFFF" width="1.5" height="18.7"/>
					</g>
				</g>
			</g>
		</g>
		<g>
			<g>
				<path id="XMLID_3_" fill="#B0D3D5" d="M583,67.4v77.4c0,9.8-7.9,17.7-17.7,17.7h-8.1v18v23.9c0,1.9-2.3,2.7-3.5,1.3l-44.8-43.3
					H296c-9.8,0-17.7-7.9-17.7-17.7V67.4c0-9.8,7.9-17.7,17.7-17.7h269.4C575.1,49.7,583,57.6,583,67.4z"/>
				<g>
					<g>
						<g>
							<path fill="#FFFFFF" d="M371.3,79.2c-21.7-0.2-43.5-0.2-65.2,0c-6.4,0.1-6.5,10.1,0,10c21.7-0.2,43.5-0.2,65.2,0
								C377.8,89.3,377.8,79.3,371.3,79.2L371.3,79.2z"/>
						</g>
					</g>
					<g>
						<g>
							<path fill="#FFFFFF" d="M479.2,79c-29.4,0-58.8,0-88.2,0.2c-6.4,0-6.4,10,0,10c29.4-0.1,58.8-0.2,88.2-0.2
								C485.6,89,485.6,79,479.2,79L479.2,79z"/>
						</g>
					</g>
					<g>
						<g>
							<path fill="#FFFFFF" d="M551.6,79.2c-17-0.1-33.9-0.1-50.9-0.2c-6.4,0-6.4,10,0,10c17,0,33.9,0.1,50.9,0.2
								C558,89.2,558,79.2,551.6,79.2L551.6,79.2z"/>
						</g>
					</g>
					<g>
						<g>
							<path fill="#FFFFFF" d="M499.9,100.7c-55.7,0-111.5,0-167.2,0c-9.8,0-19.7,0-29.5,0c-6.4,0-6.4,10,0,10
								c55.7,0,111.5,0,167.2,0c9.8,0,19.7,0,29.5,0C506.3,110.7,506.3,100.7,499.9,100.7L499.9,100.7z"/>
						</g>
					</g>
					<g>
						<g>
							<path fill="#FFFFFF" d="M551.6,100.7c-9.8,0-19.6,0-29.4,0c-6.4,0-6.4,10,0,10c9.8,0,19.6,0,29.4,0
								C558,110.7,558,100.7,551.6,100.7L551.6,100.7z"/>
						</g>
					</g>
					<g>
						<g>
							<path fill="#FFFFFF" d="M389,122.3c-29.1-0.3-58.3-0.3-87.4,0c-6.4,0.1-6.5,10.1,0,10c29.1-0.3,58.3-0.3,87.4,0
								C395.4,132.4,395.4,122.4,389,122.3L389,122.3z"/>
						</g>
					</g>
					<g>
						<g>
							<path fill="#FFFFFF" d="M511.5,122.3c-34.6-0.3-69.2-0.3-103.8,0c-6.4,0.1-6.5,10.1,0,10c34.6-0.3,69.2-0.3,103.8,0
								C518,132.3,518,122.3,511.5,122.3L511.5,122.3z"/>
						</g>
					</g>
				</g>
			</g>
			<g>
				<g>
					<path fill="#7CB6B9" d="M368.4,216.4l1.6,4.7l-4.7,1.6c-1.5,0.5-2.2,2.1-1.7,3.5c0.5,1.5,2.1,2.2,3.5,1.7l4.7-1.6l1.6,4.7
						c0.5,1.5,2.1,2.2,3.5,1.8c1.5-0.5,2.2-2.1,1.7-3.5l-1.6-4.7l4.7-1.6c1.5-0.5,2.2-2.1,1.7-3.5c-0.5-1.5-2.1-2.2-3.5-1.7
						l-4.7,1.6l-1.6-4.7c-0.5-1.5-2.1-2.2-3.5-1.8C368.7,213.4,367.9,215,368.4,216.4z"/>
					<path fill="#7CB6B9" d="M1163.5,423.4l-4.9-0.7l0.7-4.9c0.2-1.5-0.8-2.9-2.3-3.2c-1.5-0.2-2.9,0.8-3.2,2.3l-0.7,4.9l-4.9-0.7
						c-1.5-0.2-2.9,0.8-3.2,2.3c-0.2,1.5,0.8,2.9,2.4,3.2l4.9,0.7l-0.7,4.9c-0.2,1.5,0.8,2.9,2.3,3.1c1.5,0.2,2.9-0.8,3.2-2.3
						l0.7-4.9l4.9,0.7c1.5,0.2,2.9-0.8,3.2-2.3C1166.1,425,1165.1,423.6,1163.5,423.4z"/>
					<path fill="#7CB6B9" d="M258.9,492.9h-4.9V488c0-1.5-1.2-2.8-2.8-2.8c-1.5,0-2.8,1.2-2.8,2.8v4.9h-4.9c-1.5,0-2.8,1.2-2.8,2.8
						c0,1.5,1.2,2.8,2.8,2.8h4.9v4.9c0,1.5,1.2,2.8,2.8,2.8c1.5,0,2.8-1.2,2.8-2.8v-4.9h4.9c1.5,0,2.8-1.2,2.8-2.8
						C261.6,494.1,260.4,492.9,258.9,492.9z"/>
					<path fill="#FFD9A0" d="M295.9,217.6l4.4,2.2l-2.2,4.4c-0.7,1.4-0.1,3,1.3,3.7c1.4,0.7,3,0.1,3.7-1.3l2.2-4.4l4.4,2.2
						c1.4,0.7,3,0.1,3.7-1.3c0.7-1.4,0.1-3-1.3-3.7l-4.4-2.2l2.2-4.4c0.7-1.4,0.1-3-1.3-3.7c-1.4-0.7-3-0.1-3.7,1.3l-2.2,4.4
						l-4.4-2.2c-1.4-0.7-3-0.1-3.7,1.3C294,215.2,294.5,216.9,295.9,217.6z"/>
					<path fill="#FFD9A0" d="M244.1,432.7l-3.5,3.5l-3.5-3.5c-1.1-1.1-2.8-1.1-3.9,0c-1.1,1.1-1.1,2.8,0,3.9l3.5,3.5l-3.5,3.5
						c-1.1,1.1-1.1,2.8,0,3.9c1.1,1.1,2.8,1.1,3.9,0l3.5-3.5l3.5,3.5c1.1,1.1,2.8,1.1,3.9,0c1.1-1.1,1.1-2.8,0-3.9l-3.5-3.5l3.5-3.5
						c1.1-1.1,1.1-2.8,0-3.9C246.9,431.6,245.2,431.6,244.1,432.7z"/>
					<path fill="#FFD9A0" d="M1161.1,372.6l-4,2.9l-2.9-4c-0.9-1.2-2.7-1.5-3.9-0.6c-1.2,0.9-1.5,2.7-0.6,3.9l2.9,3.9l-4,2.9
						c-1.2,0.9-1.5,2.7-0.6,3.9c0.9,1.2,2.7,1.5,3.9,0.6l4-2.9l2.9,4c0.9,1.2,2.7,1.5,3.9,0.6c1.2-0.9,1.5-2.7,0.6-3.9l-2.9-4
						l3.9-2.9c1.2-0.9,1.5-2.7,0.6-3.9C1164,372,1162.3,371.7,1161.1,372.6z"/>
					<path fill="#FFDCD8" d="M220.7,472.7c0,2.8-2.3,5.2-5.2,5.2c-2.8,0-5.2-2.3-5.2-5.2c0-2.8,2.3-5.2,5.2-5.2
						C218.4,467.6,220.7,469.9,220.7,472.7z"/>
					<path fill="#FFDCD8" d="M333,186.8c2.7-0.9,5.6,0.5,6.5,3.2c0.9,2.7-0.5,5.6-3.2,6.5c-2.7,0.9-5.6-0.5-6.5-3.2
						C328.9,190.6,330.3,187.7,333,186.8z"/>
					<path fill="#7CB6B9" d="M1080.7,169.8l1.8,4.6l-4.6,1.8c-1.4,0.6-2.1,2.2-1.6,3.6c0.6,1.4,2.2,2.1,3.6,1.6l4.6-1.8l1.8,4.6
						c0.6,1.4,2.2,2.1,3.6,1.6c1.4-0.6,2.1-2.2,1.6-3.6l-1.8-4.6l4.6-1.8c1.4-0.6,2.1-2.2,1.6-3.6c-0.6-1.4-2.2-2.1-3.6-1.6
						l-4.6,1.8l-1.8-4.6c-0.6-1.4-2.2-2.1-3.6-1.6C1080.8,166.8,1080.1,168.4,1080.7,169.8z"/>
					<path fill="#FFD9A0" d="M980,162.3l4.5,2l-2,4.5c-0.6,1.4,0,3,1.5,3.7c1.4,0.6,3.1,0,3.7-1.5l1.9-4.5l4.5,2
						c1.4,0.6,3,0,3.7-1.4c0.6-1.4,0-3-1.5-3.7l-4.5-2l2-4.5c0.6-1.4,0-3-1.4-3.7c-1.4-0.6-3.1,0-3.7,1.4l-2,4.5l-4.5-2
						c-1.4-0.6-3,0-3.7,1.5C977.9,160.1,978.6,161.7,980,162.3z"/>
					<path fill="#FFDCD8" d="M1035.7,136.2c2.6-1.1,5.6,0.2,6.7,2.9c1,2.6-0.2,5.7-2.9,6.7c-2.6,1-5.6-0.2-6.7-2.9
						C1031.7,140.3,1033,137.3,1035.7,136.2z"/>
					<path fill="#FFDCD8" d="M1191.5,411.6c-0.4,2.8-3,4.8-5.8,4.4c-2.8-0.4-4.8-3-4.4-5.9c0.4-2.8,3-4.8,5.9-4.4
						C1190,406.2,1192,408.8,1191.5,411.6z"/>
				</g>
			</g>
		</g>
	</g>
</g>
</svg>
