<svg id="visual" viewBox="0 0 900 600" width="900" height="600" xmlns="http://www.w3.org/2000/svg" xmlns:xlink="http://www.w3.org/1999/xlink" version="1.1"><path d="M0 464L13.7 467.3C27.3 470.7 54.7 477.3 82 484.2C109.3 491 136.7 498 163.8 496.2C191 494.3 218 483.7 245.2 480.8C272.3 478 299.7 483 327 484.7C354.3 486.3 381.7 484.7 409 480.8C436.3 477 463.7 471 491 473.3C518.3 475.7 545.7 486.3 573 493.8C600.3 501.3 627.7 505.7 654.8 505.3C682 505 709 500 736.2 498C763.3 496 790.7 497 818 500.2C845.3 503.3 872.7 508.7 886.3 511.3L900 514L900 601L886.3 601C872.7 601 845.3 601 818 601C790.7 601 763.3 601 736.2 601C709 601 682 601 654.8 601C627.7 601 600.3 601 573 601C545.7 601 518.3 601 491 601C463.7 601 436.3 601 409 601C381.7 601 354.3 601 327 601C299.7 601 272.3 601 245.2 601C218 601 191 601 163.8 601C136.7 601 109.3 601 82 601C54.7 601 27.3 601 13.7 601L0 601Z" fill="#c62368"></path><path d="M0 525L13.7 523.3C27.3 521.7 54.7 518.3 82 518.8C109.3 519.3 136.7 523.7 163.8 523.2C191 522.7 218 517.3 245.2 521C272.3 524.7 299.7 537.3 327 538.7C354.3 540 381.7 530 409 532.3C436.3 534.7 463.7 549.3 491 552.5C518.3 555.7 545.7 547.3 573 541.8C600.3 536.3 627.7 533.7 654.8 531.5C682 529.3 709 527.7 736.2 525.3C763.3 523 790.7 520 818 524.8C845.3 529.7 872.7 542.3 886.3 548.7L900 555L900 601L886.3 601C872.7 601 845.3 601 818 601C790.7 601 763.3 601 736.2 601C709 601 682 601 654.8 601C627.7 601 600.3 601 573 601C545.7 601 518.3 601 491 601C463.7 601 436.3 601 409 601C381.7 601 354.3 601 327 601C299.7 601 272.3 601 245.2 601C218 601 191 601 163.8 601C136.7 601 109.3 601 82 601C54.7 601 27.3 601 13.7 601L0 601Z" fill="#fa7268"></path></svg>