<svg xmlns="http://www.w3.org/2000/svg" viewBox="0 -960 960 960" fill="currentColor"><path d="M120-220v-520q0-22 17.5-33.5T175-777l399 167q19 8 23 23.5t-2 29.5q-6 14-20 22t-33 0L200-680v140l124 31q11 3 16.5 11t5.5 18q0 10-5.5 18T324-451l-124 31v140l149-63q19-8 32.5-.5T401-322q6 14 2 29.5T380-269l-204 86q-20 8-38-3.5T120-220Zm418.5 81.5Q480-197 480-280t58.5-141.5Q597-480 680-480t141.5 58.5Q880-363 880-280t-58.5 141.5Q763-80 680-80t-141.5-58.5ZM700-288v-92q0-8-6-14t-14-6q-8 0-14 6t-6 14v91q0 8 3 15.5t9 13.5l60 60q6 6 14 6t14-6q6-6 6-14t-6-14l-60-60ZM337-480Z"/></svg>
